M48
;Layer_Color=9474304
;FILE_FORMAT=4:4
METRIC,TZ
;TYPE=PLATED
T01F00S00C0.2540
T02F00S00C0.7700
T03F00S00C0.8500
T04F00S00C0.9000
T05F00S00C1.0000
T06F00S00C1.5240
;TYPE=NON_PLATED
T08F00S00C1.7000
T09F00S00C4.0000
%
T01
X1918716Y1733550
X1932316Y1725930
X1957316Y1713450
Y1751330
X1965706Y1774190
X1973326Y1816180
Y1839590
X2030476
X2194946Y1812930
T02
X1999996Y1708150
X2025396
X2050796
X2076196
X2101596
X2126996
X2152396
X2215896Y1708150
X2241296
X2266696
X2292096
X2317496
X2342896
X2368296
Y1786850
X2342896
X2317496
X2292096
X2266696
X2241296
X2215896
X2152396Y1786850
X2126996
X2101596
X2076196
X2050796
X2025396
X1999996
T03
X1655626Y1762930
Y1852930
X1944316
Y1762930
X2062226Y1864360
Y1889760
Y1915160
Y1940560
Y1965960
X2214626
Y1940560
Y1915160
Y1889760
Y1864360
X2278296Y1821180
X2368296
X2214626Y1991360
Y2016760
X2062226
Y1991360
T04
X1701546Y1675130
Y1700530
Y1725930
Y1751330
Y1776730
Y1802130
Y1827530
Y1852930
X1777746
Y1827530
Y1802130
Y1776730
Y1751330
Y1725930
Y1700530
Y1675130
X1822196
Y1700530
Y1725930
Y1751330
Y1776730
Y1802130
Y1827530
Y1852930
X1898396
Y1827530
Y1802130
Y1776730
Y1751330
Y1725930
Y1700530
Y1675130
X2003266Y1916430
Y1941830
Y1967230
Y1992630
T05
X2295036Y1864290
X2320036
X2345036
Y2009290
X2295036
T06
X2071116Y1196340
X2134616Y1221740
X2261616Y1196340
X2325116Y1221740
Y1412240
X2261616Y1386840
X2134616Y1412240
X2071116Y1386840
Y1577340
X2261616
X1880616
Y1386840
X1944116Y1412240
Y1221740
X1880616Y1196340
X1753616Y1221740
X1690116Y1196340
Y1386840
X1753616Y1412240
X1690116Y1577340
X1753616Y1602740
X1944116
X2134616
X2325116
T08
X1677416Y1170940
X1779016
X1867916
X1969516
X2058416
X2160016
X2248916
X2350516
Y1361440
X2248916
X2160016
X2058416
Y1551940
X2160016
X2248916
X2350516
X1969516
X1867916
X1779016
X1677416
Y1361440
X1779016
X1867916
X1969516
T09
X1728216Y1170940
X1918716
X2109216
X2299716
Y1361440
X2109216
Y1551940
X2299716
X1918716
Y1361440
X1728216
Y1551940
M30
