G04*
G04 #@! TF.GenerationSoftware,Altium Limited,Altium Designer,25.3.3 (18)*
G04*
G04 Layer_Physical_Order=2*
G04 Layer_Color=16711680*
%FSLAX43Y43*%
%MOMM*%
G71*
G04*
G04 #@! TF.SameCoordinates,C300852C-C8DC-408C-B86D-D4AF72776700*
G04*
G04*
G04 #@! TF.FilePolarity,Positive*
G04*
G01*
G75*
%ADD10C,0.254*%
%ADD17C,4.000*%
%ADD18C,1.700*%
%ADD25C,1.550*%
%ADD26R,1.550X1.550*%
G04:AMPARAMS|DCode=27|XSize=2.4mm|YSize=5mm|CornerRadius=1.2mm|HoleSize=0mm|Usage=FLASHONLY|Rotation=0.000|XOffset=0mm|YOffset=0mm|HoleType=Round|Shape=RoundedRectangle|*
%AMROUNDEDRECTD27*
21,1,2.400,2.600,0,0,0.0*
21,1,0.000,5.000,0,0,0.0*
1,1,2.400,0.000,-1.300*
1,1,2.400,0.000,-1.300*
1,1,2.400,0.000,1.300*
1,1,2.400,0.000,1.300*
%
%ADD27ROUNDEDRECTD27*%
%ADD32C,1.500*%
%ADD33C,2.500*%
%ADD34R,1.500X1.500*%
%ADD35R,1.350X1.350*%
%ADD36C,1.350*%
%ADD37C,1.358*%
%ADD38R,1.358X1.358*%
%ADD39R,1.170X1.170*%
%ADD40C,1.170*%
%ADD41R,1.350X1.350*%
%ADD42C,0.508*%
D10*
X194884Y185745D02*
Y186200D01*
X194432Y185293D02*
X194884Y185745D01*
Y186200D02*
X200327Y191643D01*
X205383Y189127D02*
X206072D01*
X200327Y194183D02*
X205383Y189127D01*
X206072D02*
X206223Y188976D01*
X189879Y185332D02*
Y186275D01*
X200327Y196723D01*
X189840Y185293D02*
X189879Y185332D01*
X201470Y200406D02*
X220193D01*
X200327Y199263D02*
X201470Y200406D01*
X226304Y193929D02*
Y194370D01*
Y193055D02*
Y193929D01*
X222606Y199136D02*
X226304Y195438D01*
X221463Y199136D02*
X222606D01*
X226304Y194370D02*
Y195438D01*
Y194370D02*
X227295Y195361D01*
X221674Y188274D02*
Y188765D01*
Y188274D02*
X227830Y182118D01*
X221463Y188976D02*
X221674Y188765D01*
X234504Y200929D02*
X237704Y197729D01*
Y193929D02*
Y197729D01*
X233304Y200929D02*
X234504D01*
X198603Y201676D02*
X206223D01*
X182220Y185293D02*
X198603Y201676D01*
X197333Y178368D02*
Y181618D01*
Y178368D02*
X199798Y175903D01*
X185121Y180213D02*
X188867Y183959D01*
X197333D01*
X230480Y177165D02*
X236830Y170815D01*
X229504Y182085D02*
X230480Y181109D01*
Y177165D02*
Y181109D01*
X229504Y182085D02*
Y186429D01*
X219495Y180040D02*
Y181293D01*
X215240Y175785D02*
X219495Y180040D01*
X215240Y170815D02*
Y175785D01*
X219495Y181293D02*
Y192088D01*
X165691Y179222D02*
X167814Y181344D01*
X165691Y176422D02*
Y179222D01*
X167814Y181344D02*
X173826D01*
X177775Y167513D02*
X179045Y168783D01*
X188570D02*
X189840Y170053D01*
X179045Y168783D02*
X188570D01*
X184575Y183959D02*
X185909Y185293D01*
X179268D02*
X180602Y183959D01*
X184575D01*
X177775Y185293D02*
X179268D01*
X213462Y184789D02*
Y191135D01*
X211426Y182753D02*
X213462Y184789D01*
X189840Y182753D02*
X211426D01*
X213462Y191135D02*
X221463Y199136D01*
X215240Y178685D02*
Y190373D01*
X221463Y196596D01*
X219495Y192088D02*
X221463Y194056D01*
X185909Y185293D02*
X189840D01*
X220193Y200406D02*
X221463Y199136D01*
X203620Y184531D02*
X207257D01*
X203048Y183959D02*
X203620Y184531D01*
X207257D02*
X208338Y185612D01*
X173826Y181344D02*
X177775Y185293D01*
X165563Y176293D02*
X165691Y176422D01*
X206223Y196596D02*
X206308Y196511D01*
X208338Y185612D02*
Y195301D01*
X207128Y196511D02*
X208338Y195301D01*
X206308Y196511D02*
X207128D01*
X189459Y160274D02*
X200000Y170815D01*
X175362Y160274D02*
X189459D01*
X194412D02*
X202540Y168402D01*
Y170815D01*
X204568Y175903D02*
X207620Y172851D01*
X199798Y175903D02*
X204568D01*
X207620Y170815D02*
Y172851D01*
Y170815D02*
X212763Y165672D01*
X226550Y186429D02*
X229504D01*
X221463Y191516D02*
X226550Y186429D01*
X226304Y193055D02*
X231922Y187436D01*
Y186510D02*
X232004Y186429D01*
X231922Y186510D02*
Y187436D01*
X227295Y195361D02*
X227736D01*
X233304Y200929D01*
X177775Y182753D02*
Y182887D01*
X195732Y171345D02*
Y175133D01*
X193232Y172593D02*
Y176821D01*
X189840Y180213D02*
X193232Y176821D01*
X189840Y177673D02*
X191872Y175641D01*
Y173355D02*
Y175641D01*
X186030Y178943D02*
X189840Y182753D01*
X196571Y169161D02*
Y177419D01*
X194922Y167513D02*
X196571Y169161D01*
X189840Y167513D02*
X194922D01*
X182220Y180213D02*
X185121D01*
X212763Y165672D02*
X227114D01*
X232512Y160274D01*
X169012Y162306D02*
X170155Y163449D01*
X169012Y157734D02*
Y162306D01*
Y157734D02*
X169139Y157607D01*
X182220Y170053D02*
X186030Y173863D01*
Y178943D01*
X177775Y172593D02*
Y175133D01*
Y170053D02*
Y172593D01*
Y170053D02*
X182220D01*
X170155D02*
X177775D01*
Y175133D02*
Y177673D01*
Y180213D01*
Y182753D01*
X170155Y163449D02*
Y167513D01*
Y170053D01*
X226035Y157607D02*
X226162Y157734D01*
X207239Y157607D02*
X226035D01*
X206985D02*
X207112Y157734D01*
X188189Y157607D02*
X206985D01*
X187935D02*
X188062Y157734D01*
X169139Y157607D02*
X187935D01*
X169139Y138557D02*
X187935D01*
X188062Y138684D01*
X169012D02*
X169139Y138557D01*
X188062Y138684D02*
X188189Y138557D01*
X206985D01*
X207112Y138684D01*
X207239Y138557D02*
X226035D01*
X226162Y138684D01*
X207239Y119507D02*
X226035D01*
X226162Y119634D01*
X206985Y119507D02*
X207112Y119634D01*
X188189Y119507D02*
X206985D01*
X187935D02*
X188062Y119634D01*
X169139Y119507D02*
X187935D01*
X169012Y119634D02*
X169139Y119507D01*
X188062Y119634D02*
X188189Y119507D01*
X188062Y157734D02*
X188189Y157607D01*
X207112Y119634D02*
X207239Y119507D01*
X169012Y119634D02*
Y138557D01*
Y138684D02*
Y157607D01*
X207112Y157734D02*
X207239Y157607D01*
X207112Y138684D02*
X207239Y138557D01*
X157571Y204608D02*
G03*
X154397Y201434I0J-3175D01*
G01*
X245232Y104597D02*
G03*
X248407Y107772I0J3175D01*
G01*
X154408D02*
G03*
X157583Y104597I3175J0D01*
G01*
X248382Y201422D02*
G03*
X245207Y204597I-3175J0D01*
G01*
X154397Y107772D02*
X154397Y201434D01*
X248397Y201422D02*
X248397Y107520D01*
X157583Y104597D02*
X245232Y104597D01*
X157302Y204597D02*
X245207Y204597D01*
D17*
X229972Y117094D02*
D03*
X210922D02*
D03*
X191872D02*
D03*
X172822D02*
D03*
X229972Y136144D02*
D03*
X210922D02*
D03*
X191872D02*
D03*
X172822D02*
D03*
X229972Y155194D02*
D03*
X210922D02*
D03*
X191872D02*
D03*
X172822D02*
D03*
D18*
X235052Y117094D02*
D03*
X224892D02*
D03*
X216002D02*
D03*
X205842D02*
D03*
X196952D02*
D03*
X186792D02*
D03*
X177902D02*
D03*
X167742D02*
D03*
X235052Y136144D02*
D03*
X224892D02*
D03*
X216002D02*
D03*
X205842D02*
D03*
X196952D02*
D03*
X186792D02*
D03*
X177902D02*
D03*
X167742D02*
D03*
X235052Y155194D02*
D03*
X224892D02*
D03*
X216002D02*
D03*
X205842D02*
D03*
X196952D02*
D03*
X186792D02*
D03*
X177902D02*
D03*
X167742D02*
D03*
D25*
X229504Y200929D02*
D03*
X234504D02*
D03*
Y186429D02*
D03*
X232004D02*
D03*
D26*
X229504D02*
D03*
D27*
X237704Y193929D02*
D03*
X226304D02*
D03*
D32*
X200327Y199263D02*
D03*
Y196723D02*
D03*
Y194183D02*
D03*
Y191643D02*
D03*
X177775Y167513D02*
D03*
Y170053D02*
D03*
Y172593D02*
D03*
Y175133D02*
D03*
Y177673D02*
D03*
Y180213D02*
D03*
Y182753D02*
D03*
Y185293D02*
D03*
X170155Y167513D02*
D03*
Y170053D02*
D03*
Y172593D02*
D03*
Y175133D02*
D03*
Y177673D02*
D03*
Y180213D02*
D03*
Y182753D02*
D03*
X189840Y167513D02*
D03*
Y170053D02*
D03*
Y172593D02*
D03*
Y175133D02*
D03*
Y177673D02*
D03*
Y180213D02*
D03*
Y182753D02*
D03*
Y185293D02*
D03*
X182220Y167513D02*
D03*
Y170053D02*
D03*
Y172593D02*
D03*
Y175133D02*
D03*
Y177673D02*
D03*
Y180213D02*
D03*
Y182753D02*
D03*
D33*
X232512Y122174D02*
D03*
X226162Y119634D02*
D03*
X213462Y122174D02*
D03*
X207112Y119634D02*
D03*
X194412Y122174D02*
D03*
X188062Y119634D02*
D03*
X175362Y122174D02*
D03*
X169012Y119634D02*
D03*
X232512Y141224D02*
D03*
X226162Y138684D02*
D03*
X213462Y141224D02*
D03*
X207112Y138684D02*
D03*
X194412Y141224D02*
D03*
X188062Y138684D02*
D03*
X175362Y141224D02*
D03*
X169012Y138684D02*
D03*
X232512Y160274D02*
D03*
X226162Y157734D02*
D03*
X213462Y160274D02*
D03*
X207112Y157734D02*
D03*
X194412Y160274D02*
D03*
X188062Y157734D02*
D03*
X175362Y160274D02*
D03*
X169012Y157734D02*
D03*
D34*
X170155Y185293D02*
D03*
X182220D02*
D03*
D35*
X165563D02*
D03*
X194432D02*
D03*
D36*
X165563Y176293D02*
D03*
X236830Y182118D02*
D03*
X194432Y176293D02*
D03*
D37*
X221463Y194056D02*
D03*
Y191516D02*
D03*
Y188976D02*
D03*
Y186436D02*
D03*
Y196596D02*
D03*
Y199136D02*
D03*
Y201676D02*
D03*
X206223Y194056D02*
D03*
Y191516D02*
D03*
Y188976D02*
D03*
Y186436D02*
D03*
Y196596D02*
D03*
Y199136D02*
D03*
D38*
Y201676D02*
D03*
D39*
X221590Y170815D02*
D03*
X200000Y170815D02*
D03*
D40*
X224130Y170815D02*
D03*
X226670D02*
D03*
X229210D02*
D03*
X231750D02*
D03*
X234290D02*
D03*
X236830D02*
D03*
Y178685D02*
D03*
X234290D02*
D03*
X231750D02*
D03*
X229210D02*
D03*
X226670D02*
D03*
X224130D02*
D03*
X221590D02*
D03*
X202540Y170815D02*
D03*
X205080D02*
D03*
X207620D02*
D03*
X210160D02*
D03*
X212700D02*
D03*
X215240D02*
D03*
Y178685D02*
D03*
X212700D02*
D03*
X210160D02*
D03*
X207620D02*
D03*
X205080D02*
D03*
X202540D02*
D03*
X200000D02*
D03*
D41*
X227830Y182118D02*
D03*
D42*
X195732Y175133D02*
D03*
X219495Y181293D02*
D03*
X203048Y183959D02*
D03*
X197333D02*
D03*
Y181618D02*
D03*
X196571Y177419D02*
D03*
X195732Y171345D02*
D03*
X193232Y172593D02*
D03*
X191872Y173355D02*
D03*
M02*
