G04*
G04 #@! TF.GenerationSoftware,Altium Limited,Altium Designer,25.3.3 (18)*
G04*
G04 Layer_Color=32768*
%FSLAX43Y43*%
%MOMM*%
G71*
G04*
G04 #@! TF.SameCoordinates,C300852C-C8DC-408C-B86D-D4AF72776700*
G04*
G04*
G04 #@! TF.FilePolarity,Positive*
G04*
G01*
G75*
%ADD10C,0.254*%
%ADD43C,0.508*%
%ADD44C,0.350*%
D10*
X157571Y204608D02*
G03*
X154397Y201434I0J-3175D01*
G01*
X245232Y104597D02*
G03*
X248407Y107772I0J3175D01*
G01*
X154408D02*
G03*
X157583Y104597I3175J0D01*
G01*
X248382Y201422D02*
G03*
X245207Y204597I-3175J0D01*
G01*
X154397Y107772D02*
X154397Y201434D01*
X248397Y201422D02*
X248397Y107520D01*
X157583Y104597D02*
X245232Y104597D01*
X157302Y204597D02*
X245207Y204597D01*
D43*
X258222D02*
X258730Y203073D01*
X257714D02*
X258222Y204597D01*
X257714Y106121D02*
X258222Y104597D01*
X258730Y106121D01*
X258222Y163427D02*
Y204597D01*
Y104597D02*
Y144559D01*
X245588Y204597D02*
X258476D01*
X245613Y104597D02*
X258476D01*
X246873Y215214D02*
X248397Y215722D01*
X246873Y216230D02*
X248397Y215722D01*
X154397D02*
X155921Y216230D01*
X154397Y215722D02*
X155921Y215214D01*
X209394Y215722D02*
X248397D01*
X154397D02*
X192191D01*
X248397Y201803D02*
Y215976D01*
X154397Y201815D02*
Y215976D01*
D44*
X259571Y145163D02*
Y145829D01*
Y145496D01*
X257572D01*
X257905Y145163D01*
Y146829D02*
X257572Y147162D01*
Y147828D01*
X257905Y148162D01*
X259238D01*
X259571Y147828D01*
Y147162D01*
X259238Y146829D01*
X257905D01*
Y148828D02*
X257572Y149161D01*
Y149828D01*
X257905Y150161D01*
X259238D01*
X259571Y149828D01*
Y149161D01*
X259238Y148828D01*
X257905D01*
X259571Y150827D02*
X259238D01*
Y151161D01*
X259571D01*
Y150827D01*
X257905Y152493D02*
X257572Y152827D01*
Y153493D01*
X257905Y153826D01*
X259238D01*
X259571Y153493D01*
Y152827D01*
X259238Y152493D01*
X257905D01*
X259571Y157159D02*
X258905Y156492D01*
X258238D01*
X257572Y157159D01*
X259571Y158158D02*
X258238D01*
Y158492D01*
X258572Y158825D01*
X259571D01*
X258572D01*
X258238Y159158D01*
X258572Y159491D01*
X259571D01*
Y160158D02*
X258238D01*
Y160491D01*
X258572Y160824D01*
X259571D01*
X258572D01*
X258238Y161157D01*
X258572Y161491D01*
X259571D01*
Y162157D02*
X258905Y162823D01*
X258238D01*
X257572Y162157D01*
X192795Y214706D02*
X193128Y214372D01*
X193795D01*
X194128Y214706D01*
Y216038D01*
X193795Y216372D01*
X193128D01*
X192795Y216038D01*
Y215705D01*
X193128Y215372D01*
X194128D01*
X195794Y214372D02*
Y216372D01*
X194795Y215372D01*
X196127D01*
X196794Y214372D02*
Y214706D01*
X197127D01*
Y214372D01*
X196794D01*
X198460Y216038D02*
X198793Y216372D01*
X199460D01*
X199793Y216038D01*
Y214706D01*
X199460Y214372D01*
X198793D01*
X198460Y214706D01*
Y216038D01*
X203125Y214372D02*
X202459Y215039D01*
Y215705D01*
X203125Y216372D01*
X204125Y214372D02*
Y215705D01*
X204458D01*
X204791Y215372D01*
Y214372D01*
Y215372D01*
X205125Y215705D01*
X205458Y215372D01*
Y214372D01*
X206124D02*
Y215705D01*
X206457D01*
X206791Y215372D01*
Y214372D01*
Y215372D01*
X207124Y215705D01*
X207457Y215372D01*
Y214372D01*
X208124D02*
X208790Y215039D01*
Y215705D01*
X208124Y216372D01*
M02*
