G04*
G04 #@! TF.GenerationSoftware,Altium Limited,Altium Designer,25.3.3 (18)*
G04*
G04 Layer_Color=2752767*
%FSLAX43Y43*%
%MOMM*%
G71*
G04*
G04 #@! TF.SameCoordinates,C300852C-C8DC-408C-B86D-D4AF72776700*
G04*
G04*
G04 #@! TF.FilePolarity,Positive*
G04*
G01*
G75*
%ADD10C,0.254*%
%ADD15C,0.127*%
%ADD44C,0.350*%
%ADD45C,0.381*%
%ADD47C,0.560*%
%ADD48C,0.490*%
D10*
X157571Y204608D02*
G03*
X154397Y201434I0J-3175D01*
G01*
X245232Y104597D02*
G03*
X248407Y107772I0J3175D01*
G01*
X154408D02*
G03*
X157583Y104597I3175J0D01*
G01*
X248382Y201422D02*
G03*
X245207Y204597I-3175J0D01*
G01*
X154397Y107772D02*
X154397Y201434D01*
X248397Y201422D02*
X248397Y107520D01*
X157583Y104597D02*
X245232Y104597D01*
X157302Y204597D02*
X245207Y204597D01*
D15*
X168377Y155194D02*
G03*
X168377Y155194I-635J0D01*
G01*
X178537D02*
G03*
X178537Y155194I-635J0D01*
G01*
X187427D02*
G03*
X187427Y155194I-635J0D01*
G01*
X197587D02*
G03*
X197587Y155194I-635J0D01*
G01*
X206477D02*
G03*
X206477Y155194I-635J0D01*
G01*
X216637D02*
G03*
X216637Y155194I-635J0D01*
G01*
X225527D02*
G03*
X225527Y155194I-635J0D01*
G01*
X235687D02*
G03*
X235687Y155194I-635J0D01*
G01*
X168377Y136144D02*
G03*
X168377Y136144I-635J0D01*
G01*
X178537D02*
G03*
X178537Y136144I-635J0D01*
G01*
X187427D02*
G03*
X187427Y136144I-635J0D01*
G01*
X197587D02*
G03*
X197587Y136144I-635J0D01*
G01*
X206477D02*
G03*
X206477Y136144I-635J0D01*
G01*
X216637D02*
G03*
X216637Y136144I-635J0D01*
G01*
X225527D02*
G03*
X225527Y136144I-635J0D01*
G01*
X235687D02*
G03*
X235687Y136144I-635J0D01*
G01*
X168377Y117094D02*
G03*
X168377Y117094I-635J0D01*
G01*
X178537D02*
G03*
X178537Y117094I-635J0D01*
G01*
X187427D02*
G03*
X187427Y117094I-635J0D01*
G01*
X197587D02*
G03*
X197587Y117094I-635J0D01*
G01*
X206477D02*
G03*
X206477Y117094I-635J0D01*
G01*
X216637D02*
G03*
X216637Y117094I-635J0D01*
G01*
X225527D02*
G03*
X225527Y117094I-635J0D01*
G01*
X235687D02*
G03*
X235687Y117094I-635J0D01*
G01*
X191491Y172974D02*
X192253D01*
Y173736D01*
X191491D02*
X192253D01*
X191491Y172974D02*
Y173736D01*
X191237Y172720D02*
X192507D01*
Y173990D01*
X191237D02*
X192507D01*
X191237Y172720D02*
Y173990D01*
X192851Y172212D02*
X193613D01*
Y172974D01*
X192851D02*
X193613D01*
X192851Y172212D02*
Y172974D01*
X192597Y171958D02*
X193867D01*
Y173228D01*
X192597D02*
X193867D01*
X192597Y171958D02*
Y173228D01*
X195351Y170964D02*
X196113D01*
Y171726D01*
X195351D02*
X196113D01*
X195351Y170964D02*
Y171726D01*
X195097Y170710D02*
X196367D01*
Y171980D01*
X195097D02*
X196367D01*
X195097Y170710D02*
Y171980D01*
X196190Y177038D02*
X196952D01*
Y177800D01*
X196190D02*
X196952D01*
X196190Y177038D02*
Y177800D01*
X195936Y176784D02*
X197206D01*
Y178054D01*
X195936D02*
X197206D01*
X195936Y176784D02*
Y178054D01*
X196952Y181237D02*
X197714D01*
Y181999D01*
X196952D02*
X197714D01*
X196952Y181237D02*
Y181999D01*
X196698Y180983D02*
X197968D01*
Y182253D01*
X196698D02*
X197968D01*
X196698Y180983D02*
Y182253D01*
X196952Y183578D02*
X197714D01*
Y184340D01*
X196952D02*
X197714D01*
X196952Y183578D02*
Y184340D01*
X196698Y183324D02*
X197968D01*
Y184594D01*
X196698D02*
X197968D01*
X196698Y183324D02*
Y184594D01*
X202667Y183578D02*
X203429D01*
Y184340D01*
X202667D02*
X203429D01*
X202667Y183578D02*
Y184340D01*
X202413Y183324D02*
X203683D01*
Y184594D01*
X202413D02*
X203683D01*
X202413Y183324D02*
Y184594D01*
X219114Y180912D02*
X219876D01*
Y181674D01*
X219114D02*
X219876D01*
X219114Y180912D02*
Y181674D01*
X218860Y180658D02*
X220130D01*
Y181928D01*
X218860D02*
X220130D01*
X218860Y180658D02*
Y181928D01*
X195351Y174752D02*
X196113D01*
Y175514D01*
X195351D02*
X196113D01*
X195351Y174752D02*
Y175514D01*
X195097Y174498D02*
X196367D01*
Y175768D01*
X195097D02*
X196367D01*
X195097Y174498D02*
Y175768D01*
X199682Y178367D02*
X200000Y178050D01*
X199365Y178367D02*
X199682D01*
X199365D02*
X199682Y178685D01*
X199365Y179003D02*
X199682Y178685D01*
X199365Y179003D02*
X199682D01*
X200000Y179320D01*
X200317Y179003D01*
X200635D01*
X200317Y178685D02*
X200635Y179003D01*
X200317Y178685D02*
X200635Y178367D01*
X200317D02*
X200635D01*
X200000Y178050D02*
X200317Y178367D01*
X202222D02*
X202540Y178050D01*
X201905Y178367D02*
X202222D01*
X201905D02*
X202222Y178685D01*
X201905Y179003D02*
X202222Y178685D01*
X201905Y179003D02*
X202222D01*
X202540Y179320D01*
X202857Y179003D01*
X203175D01*
X202857Y178685D02*
X203175Y179003D01*
X202857Y178685D02*
X203175Y178367D01*
X202857D02*
X203175D01*
X202540Y178050D02*
X202857Y178367D01*
X204762D02*
X205080Y178050D01*
X204445Y178367D02*
X204762D01*
X204445D02*
X204762Y178685D01*
X204445Y179003D02*
X204762Y178685D01*
X204445Y179003D02*
X204762D01*
X205080Y179320D01*
X205397Y179003D01*
X205715D01*
X205397Y178685D02*
X205715Y179003D01*
X205397Y178685D02*
X205715Y178367D01*
X205397D02*
X205715D01*
X205080Y178050D02*
X205397Y178367D01*
X207302D02*
X207620Y178050D01*
X206985Y178367D02*
X207302D01*
X206985D02*
X207302Y178685D01*
X206985Y179003D02*
X207302Y178685D01*
X206985Y179003D02*
X207302D01*
X207620Y179320D01*
X207937Y179003D01*
X208255D01*
X207937Y178685D02*
X208255Y179003D01*
X207937Y178685D02*
X208255Y178367D01*
X207937D02*
X208255D01*
X207620Y178050D02*
X207937Y178367D01*
X209842D02*
X210160Y178050D01*
X209525Y178367D02*
X209842D01*
X209525D02*
X209842Y178685D01*
X209525Y179003D02*
X209842Y178685D01*
X209525Y179003D02*
X209842D01*
X210160Y179320D01*
X210477Y179003D01*
X210795D01*
X210477Y178685D02*
X210795Y179003D01*
X210477Y178685D02*
X210795Y178367D01*
X210477D02*
X210795D01*
X210160Y178050D02*
X210477Y178367D01*
X212382D02*
X212700Y178050D01*
X212065Y178367D02*
X212382D01*
X212065D02*
X212382Y178685D01*
X212065Y179003D02*
X212382Y178685D01*
X212065Y179003D02*
X212382D01*
X212700Y179320D01*
X213017Y179003D01*
X213335D01*
X213017Y178685D02*
X213335Y179003D01*
X213017Y178685D02*
X213335Y178367D01*
X213017D02*
X213335D01*
X212700Y178050D02*
X213017Y178367D01*
X214922D02*
X215240Y178050D01*
X214605Y178367D02*
X214922D01*
X214605D02*
X214922Y178685D01*
X214605Y179003D02*
X214922Y178685D01*
X214605Y179003D02*
X214922D01*
X215240Y179320D01*
X215557Y179003D01*
X215875D01*
X215557Y178685D02*
X215875Y179003D01*
X215557Y178685D02*
X215875Y178367D01*
X215557D02*
X215875D01*
X215240Y178050D02*
X215557Y178367D01*
X214922Y170497D02*
X215240Y170180D01*
X214605Y170497D02*
X214922D01*
X214605D02*
X214922Y170815D01*
X214605Y171133D02*
X214922Y170815D01*
X214605Y171133D02*
X214922D01*
X215240Y171450D01*
X215557Y171133D01*
X215875D01*
X215557Y170815D02*
X215875Y171133D01*
X215557Y170815D02*
X215875Y170497D01*
X215557D02*
X215875D01*
X215240Y170180D02*
X215557Y170497D01*
X212382D02*
X212700Y170180D01*
X212065Y170497D02*
X212382D01*
X212065D02*
X212382Y170815D01*
X212065Y171133D02*
X212382Y170815D01*
X212065Y171133D02*
X212382D01*
X212700Y171450D01*
X213017Y171133D01*
X213335D01*
X213017Y170815D02*
X213335Y171133D01*
X213017Y170815D02*
X213335Y170497D01*
X213017D02*
X213335D01*
X212700Y170180D02*
X213017Y170497D01*
X209842D02*
X210160Y170180D01*
X209525Y170497D02*
X209842D01*
X209525D02*
X209842Y170815D01*
X209525Y171133D02*
X209842Y170815D01*
X209525Y171133D02*
X209842D01*
X210160Y171450D01*
X210477Y171133D01*
X210795D01*
X210477Y170815D02*
X210795Y171133D01*
X210477Y170815D02*
X210795Y170497D01*
X210477D02*
X210795D01*
X210160Y170180D02*
X210477Y170497D01*
X207302D02*
X207620Y170180D01*
X206985Y170497D02*
X207302D01*
X206985D02*
X207302Y170815D01*
X206985Y171133D02*
X207302Y170815D01*
X206985Y171133D02*
X207302D01*
X207620Y171450D01*
X207937Y171133D01*
X208255D01*
X207937Y170815D02*
X208255Y171133D01*
X207937Y170815D02*
X208255Y170497D01*
X207937D02*
X208255D01*
X207620Y170180D02*
X207937Y170497D01*
X204762D02*
X205080Y170180D01*
X204445Y170497D02*
X204762D01*
X204445D02*
X204762Y170815D01*
X204445Y171133D02*
X204762Y170815D01*
X204445Y171133D02*
X204762D01*
X205080Y171450D01*
X205397Y171133D01*
X205715D01*
X205397Y170815D02*
X205715Y171133D01*
X205397Y170815D02*
X205715Y170497D01*
X205397D02*
X205715D01*
X205080Y170180D02*
X205397Y170497D01*
X202222D02*
X202540Y170180D01*
X201905Y170497D02*
X202222D01*
X201905D02*
X202222Y170815D01*
X201905Y171133D02*
X202222Y170815D01*
X201905Y171133D02*
X202222D01*
X202540Y171450D01*
X202857Y171133D01*
X203175D01*
X202857Y170815D02*
X203175Y171133D01*
X202857Y170815D02*
X203175Y170497D01*
X202857D02*
X203175D01*
X202540Y170180D02*
X202857Y170497D01*
X199682D02*
X200000Y170180D01*
X199365Y170497D02*
X199682D01*
X199365D02*
X199682Y170815D01*
X199365Y171133D02*
X199682Y170815D01*
X199365Y171133D02*
X199682D01*
X200000Y171450D01*
X200317Y171133D01*
X200635D01*
X200317Y170815D02*
X200635Y171133D01*
X200317Y170815D02*
X200635Y170497D01*
X200317D02*
X200635D01*
X200000Y170180D02*
X200317Y170497D01*
X181585Y184658D02*
X182220Y184975D01*
X182855Y184658D01*
X182537Y185293D02*
X182855Y184658D01*
X182537Y185293D02*
X182855Y185928D01*
X182220Y185611D02*
X182855Y185928D01*
X181585D02*
X182220Y185611D01*
X181585Y185928D02*
X181902Y185293D01*
X181585Y184658D02*
X181902Y185293D01*
X181585Y182118D02*
X182220Y182436D01*
X182855Y182118D01*
X182537Y182753D02*
X182855Y182118D01*
X182537Y182753D02*
X182855Y183388D01*
X182220Y183070D02*
X182855Y183388D01*
X181585D02*
X182220Y183070D01*
X181585Y183388D02*
X181902Y182753D01*
X181585Y182118D02*
X181902Y182753D01*
X181585Y179578D02*
X182220Y179895D01*
X182855Y179578D01*
X182537Y180213D02*
X182855Y179578D01*
X182537Y180213D02*
X182855Y180848D01*
X182220Y180531D02*
X182855Y180848D01*
X181585D02*
X182220Y180531D01*
X181585Y180848D02*
X181902Y180213D01*
X181585Y179578D02*
X181902Y180213D01*
X181585Y177038D02*
X182220Y177355D01*
X182855Y177038D01*
X182537Y177673D02*
X182855Y177038D01*
X182537Y177673D02*
X182855Y178308D01*
X182220Y177990D02*
X182855Y178308D01*
X181585D02*
X182220Y177990D01*
X181585Y178308D02*
X181902Y177673D01*
X181585Y177038D02*
X181902Y177673D01*
X181585Y174498D02*
X182220Y174816D01*
X182855Y174498D01*
X182537Y175133D02*
X182855Y174498D01*
X182537Y175133D02*
X182855Y175768D01*
X182220Y175451D02*
X182855Y175768D01*
X181585D02*
X182220Y175451D01*
X181585Y175768D02*
X181902Y175133D01*
X181585Y174498D02*
X181902Y175133D01*
X181585Y171958D02*
X182220Y172275D01*
X182855Y171958D01*
X182537Y172593D02*
X182855Y171958D01*
X182537Y172593D02*
X182855Y173228D01*
X182220Y172911D02*
X182855Y173228D01*
X181585D02*
X182220Y172911D01*
X181585Y173228D02*
X181902Y172593D01*
X181585Y171958D02*
X181902Y172593D01*
X181585Y169418D02*
X182220Y169736D01*
X182855Y169418D01*
X182537Y170053D02*
X182855Y169418D01*
X182537Y170053D02*
X182855Y170688D01*
X182220Y170370D02*
X182855Y170688D01*
X181585D02*
X182220Y170370D01*
X181585Y170688D02*
X181902Y170053D01*
X181585Y169418D02*
X181902Y170053D01*
X181585Y166878D02*
X182220Y167195D01*
X182855Y166878D01*
X182537Y167513D02*
X182855Y166878D01*
X182537Y167513D02*
X182855Y168148D01*
X182220Y167831D02*
X182855Y168148D01*
X181585D02*
X182220Y167831D01*
X181585Y168148D02*
X181902Y167513D01*
X181585Y166878D02*
X181902Y167513D01*
X189205Y184658D02*
X189840Y184975D01*
X190475Y184658D01*
X190157Y185293D02*
X190475Y184658D01*
X190157Y185293D02*
X190475Y185928D01*
X189840Y185611D02*
X190475Y185928D01*
X189205D02*
X189840Y185611D01*
X189205Y185928D02*
X189522Y185293D01*
X189205Y184658D02*
X189522Y185293D01*
X189205Y182118D02*
X189840Y182436D01*
X190475Y182118D01*
X190157Y182753D02*
X190475Y182118D01*
X190157Y182753D02*
X190475Y183388D01*
X189840Y183070D02*
X190475Y183388D01*
X189205D02*
X189840Y183070D01*
X189205Y183388D02*
X189522Y182753D01*
X189205Y182118D02*
X189522Y182753D01*
X189205Y179578D02*
X189840Y179895D01*
X190475Y179578D01*
X190157Y180213D02*
X190475Y179578D01*
X190157Y180213D02*
X190475Y180848D01*
X189840Y180531D02*
X190475Y180848D01*
X189205D02*
X189840Y180531D01*
X189205Y180848D02*
X189522Y180213D01*
X189205Y179578D02*
X189522Y180213D01*
X189205Y177038D02*
X189840Y177355D01*
X190475Y177038D01*
X190157Y177673D02*
X190475Y177038D01*
X190157Y177673D02*
X190475Y178308D01*
X189840Y177990D02*
X190475Y178308D01*
X189205D02*
X189840Y177990D01*
X189205Y178308D02*
X189522Y177673D01*
X189205Y177038D02*
X189522Y177673D01*
X189205Y174498D02*
X189840Y174816D01*
X190475Y174498D01*
X190157Y175133D02*
X190475Y174498D01*
X190157Y175133D02*
X190475Y175768D01*
X189840Y175451D02*
X190475Y175768D01*
X189205D02*
X189840Y175451D01*
X189205Y175768D02*
X189522Y175133D01*
X189205Y174498D02*
X189522Y175133D01*
X189205Y171958D02*
X189840Y172275D01*
X190475Y171958D01*
X190157Y172593D02*
X190475Y171958D01*
X190157Y172593D02*
X190475Y173228D01*
X189840Y172911D02*
X190475Y173228D01*
X189205D02*
X189840Y172911D01*
X189205Y173228D02*
X189522Y172593D01*
X189205Y171958D02*
X189522Y172593D01*
X189205Y169418D02*
X189840Y169736D01*
X190475Y169418D01*
X190157Y170053D02*
X190475Y169418D01*
X190157Y170053D02*
X190475Y170688D01*
X189840Y170370D02*
X190475Y170688D01*
X189205D02*
X189840Y170370D01*
X189205Y170688D02*
X189522Y170053D01*
X189205Y169418D02*
X189522Y170053D01*
X189205Y166878D02*
X189840Y167195D01*
X190475Y166878D01*
X190157Y167513D02*
X190475Y166878D01*
X190157Y167513D02*
X190475Y168148D01*
X189840Y167831D02*
X190475Y168148D01*
X189205D02*
X189840Y167831D01*
X189205Y168148D02*
X189522Y167513D01*
X189205Y166878D02*
X189522Y167513D01*
X193797Y175975D02*
X194114D01*
X193797D02*
Y176611D01*
X194114D01*
Y176928D01*
X194749D01*
Y176611D02*
Y176928D01*
Y176611D02*
X195067D01*
Y175975D02*
Y176611D01*
X194749Y175975D02*
X195067D01*
X194749Y175658D02*
Y175975D01*
X194114Y175658D02*
X194749D01*
X194114D02*
Y175975D01*
X193797Y184975D02*
X194114D01*
X193797D02*
Y185611D01*
X194114D01*
Y185928D01*
X194749D01*
Y185611D02*
Y185928D01*
Y185611D02*
X195067D01*
Y184975D02*
Y185611D01*
X194749Y184975D02*
X195067D01*
X194749Y184658D02*
Y184975D01*
X194114Y184658D02*
X194749D01*
X194114D02*
Y184975D01*
X227195Y181801D02*
X227512D01*
X227195D02*
Y182436D01*
X227512D01*
Y182753D01*
X228147D01*
Y182436D02*
Y182753D01*
Y182436D02*
X228465D01*
Y181801D02*
Y182436D01*
X228147Y181801D02*
X228465D01*
X228147Y181483D02*
Y181801D01*
X227512Y181483D02*
X228147D01*
X227512D02*
Y181801D01*
X236195D02*
X236512D01*
X236195D02*
Y182436D01*
X236512D01*
Y182753D01*
X237147D01*
Y182436D02*
Y182753D01*
Y182436D02*
X237465D01*
Y181801D02*
Y182436D01*
X237147Y181801D02*
X237465D01*
X237147Y181483D02*
Y181801D01*
X236512Y181483D02*
X237147D01*
X236512D02*
Y181801D01*
X221272Y178367D02*
X221590Y178050D01*
X220955Y178367D02*
X221272D01*
X220955D02*
X221272Y178685D01*
X220955Y179003D02*
X221272Y178685D01*
X220955Y179003D02*
X221272D01*
X221590Y179320D01*
X221907Y179003D01*
X222225D01*
X221907Y178685D02*
X222225Y179003D01*
X221907Y178685D02*
X222225Y178367D01*
X221907D02*
X222225D01*
X221590Y178050D02*
X221907Y178367D01*
X223812D02*
X224130Y178050D01*
X223495Y178367D02*
X223812D01*
X223495D02*
X223812Y178685D01*
X223495Y179003D02*
X223812Y178685D01*
X223495Y179003D02*
X223812D01*
X224130Y179320D01*
X224447Y179003D01*
X224765D01*
X224447Y178685D02*
X224765Y179003D01*
X224447Y178685D02*
X224765Y178367D01*
X224447D02*
X224765D01*
X224130Y178050D02*
X224447Y178367D01*
X226352D02*
X226670Y178050D01*
X226035Y178367D02*
X226352D01*
X226035D02*
X226352Y178685D01*
X226035Y179003D02*
X226352Y178685D01*
X226035Y179003D02*
X226352D01*
X226670Y179320D01*
X226987Y179003D01*
X227305D01*
X226987Y178685D02*
X227305Y179003D01*
X226987Y178685D02*
X227305Y178367D01*
X226987D02*
X227305D01*
X226670Y178050D02*
X226987Y178367D01*
X228892D02*
X229210Y178050D01*
X228575Y178367D02*
X228892D01*
X228575D02*
X228892Y178685D01*
X228575Y179003D02*
X228892Y178685D01*
X228575Y179003D02*
X228892D01*
X229210Y179320D01*
X229527Y179003D01*
X229845D01*
X229527Y178685D02*
X229845Y179003D01*
X229527Y178685D02*
X229845Y178367D01*
X229527D02*
X229845D01*
X229210Y178050D02*
X229527Y178367D01*
X231432D02*
X231750Y178050D01*
X231115Y178367D02*
X231432D01*
X231115D02*
X231432Y178685D01*
X231115Y179003D02*
X231432Y178685D01*
X231115Y179003D02*
X231432D01*
X231750Y179320D01*
X232067Y179003D01*
X232385D01*
X232067Y178685D02*
X232385Y179003D01*
X232067Y178685D02*
X232385Y178367D01*
X232067D02*
X232385D01*
X231750Y178050D02*
X232067Y178367D01*
X233972D02*
X234290Y178050D01*
X233655Y178367D02*
X233972D01*
X233655D02*
X233972Y178685D01*
X233655Y179003D02*
X233972Y178685D01*
X233655Y179003D02*
X233972D01*
X234290Y179320D01*
X234607Y179003D01*
X234925D01*
X234607Y178685D02*
X234925Y179003D01*
X234607Y178685D02*
X234925Y178367D01*
X234607D02*
X234925D01*
X234290Y178050D02*
X234607Y178367D01*
X236512D02*
X236830Y178050D01*
X236195Y178367D02*
X236512D01*
X236195D02*
X236512Y178685D01*
X236195Y179003D02*
X236512Y178685D01*
X236195Y179003D02*
X236512D01*
X236830Y179320D01*
X237147Y179003D01*
X237465D01*
X237147Y178685D02*
X237465Y179003D01*
X237147Y178685D02*
X237465Y178367D01*
X237147D02*
X237465D01*
X236830Y178050D02*
X237147Y178367D01*
X236512Y170497D02*
X236830Y170180D01*
X236195Y170497D02*
X236512D01*
X236195D02*
X236512Y170815D01*
X236195Y171133D02*
X236512Y170815D01*
X236195Y171133D02*
X236512D01*
X236830Y171450D01*
X237147Y171133D01*
X237465D01*
X237147Y170815D02*
X237465Y171133D01*
X237147Y170815D02*
X237465Y170497D01*
X237147D02*
X237465D01*
X236830Y170180D02*
X237147Y170497D01*
X233972D02*
X234290Y170180D01*
X233655Y170497D02*
X233972D01*
X233655D02*
X233972Y170815D01*
X233655Y171133D02*
X233972Y170815D01*
X233655Y171133D02*
X233972D01*
X234290Y171450D01*
X234607Y171133D01*
X234925D01*
X234607Y170815D02*
X234925Y171133D01*
X234607Y170815D02*
X234925Y170497D01*
X234607D02*
X234925D01*
X234290Y170180D02*
X234607Y170497D01*
X231432D02*
X231750Y170180D01*
X231115Y170497D02*
X231432D01*
X231115D02*
X231432Y170815D01*
X231115Y171133D02*
X231432Y170815D01*
X231115Y171133D02*
X231432D01*
X231750Y171450D01*
X232067Y171133D01*
X232385D01*
X232067Y170815D02*
X232385Y171133D01*
X232067Y170815D02*
X232385Y170497D01*
X232067D02*
X232385D01*
X231750Y170180D02*
X232067Y170497D01*
X228892D02*
X229210Y170180D01*
X228575Y170497D02*
X228892D01*
X228575D02*
X228892Y170815D01*
X228575Y171133D02*
X228892Y170815D01*
X228575Y171133D02*
X228892D01*
X229210Y171450D01*
X229527Y171133D01*
X229845D01*
X229527Y170815D02*
X229845Y171133D01*
X229527Y170815D02*
X229845Y170497D01*
X229527D02*
X229845D01*
X229210Y170180D02*
X229527Y170497D01*
X226352D02*
X226670Y170180D01*
X226035Y170497D02*
X226352D01*
X226035D02*
X226352Y170815D01*
X226035Y171133D02*
X226352Y170815D01*
X226035Y171133D02*
X226352D01*
X226670Y171450D01*
X226987Y171133D01*
X227305D01*
X226987Y170815D02*
X227305Y171133D01*
X226987Y170815D02*
X227305Y170497D01*
X226987D02*
X227305D01*
X226670Y170180D02*
X226987Y170497D01*
X223812D02*
X224130Y170180D01*
X223495Y170497D02*
X223812D01*
X223495D02*
X223812Y170815D01*
X223495Y171133D02*
X223812Y170815D01*
X223495Y171133D02*
X223812D01*
X224130Y171450D01*
X224447Y171133D01*
X224765D01*
X224447Y170815D02*
X224765Y171133D01*
X224447Y170815D02*
X224765Y170497D01*
X224447D02*
X224765D01*
X224130Y170180D02*
X224447Y170497D01*
X221272D02*
X221590Y170180D01*
X220955Y170497D02*
X221272D01*
X220955D02*
X221272Y170815D01*
X220955Y171133D02*
X221272Y170815D01*
X220955Y171133D02*
X221272D01*
X221590Y171450D01*
X221907Y171133D01*
X222225D01*
X221907Y170815D02*
X222225Y171133D01*
X221907Y170815D02*
X222225Y170497D01*
X221907D02*
X222225D01*
X221590Y170180D02*
X221907Y170497D01*
X225669Y193929D02*
X226304Y193294D01*
X226939Y193929D01*
X226304Y194564D02*
X226939Y193929D01*
X225669D02*
X226304Y194564D01*
X237069Y193929D02*
X237704Y193294D01*
X238339Y193929D01*
X237704Y194564D02*
X238339Y193929D01*
X237069D02*
X237704Y194564D01*
X231369Y185794D02*
Y186111D01*
X231686Y186429D01*
X231369Y186747D02*
X231686Y186429D01*
X231369Y186747D02*
Y187064D01*
X231686D01*
X232004Y186747D01*
X232321Y187064D01*
X232639D01*
Y186747D02*
Y187064D01*
X232321Y186429D02*
X232639Y186747D01*
X232321Y186429D02*
X232639Y186111D01*
Y185794D02*
Y186111D01*
X232321Y185794D02*
X232639D01*
X232004Y186111D02*
X232321Y185794D01*
X231686D02*
X232004Y186111D01*
X231369Y185794D02*
X231686D01*
X233869D02*
Y186111D01*
X234186Y186429D01*
X233869Y186747D02*
X234186Y186429D01*
X233869Y186747D02*
Y187064D01*
X234186D01*
X234504Y186747D01*
X234821Y187064D01*
X235139D01*
Y186747D02*
Y187064D01*
X234821Y186429D02*
X235139Y186747D01*
X234821Y186429D02*
X235139Y186111D01*
Y185794D02*
Y186111D01*
X234821Y185794D02*
X235139D01*
X234504Y186111D02*
X234821Y185794D01*
X234186D02*
X234504Y186111D01*
X233869Y185794D02*
X234186D01*
X228869D02*
Y186111D01*
X229186Y186429D01*
X228869Y186747D02*
X229186Y186429D01*
X228869Y186747D02*
Y187064D01*
X229186D01*
X229504Y186747D01*
X229821Y187064D01*
X230139D01*
Y186747D02*
Y187064D01*
X229821Y186429D02*
X230139Y186747D01*
X229821Y186429D02*
X230139Y186111D01*
Y185794D02*
Y186111D01*
X229821Y185794D02*
X230139D01*
X229504Y186111D02*
X229821Y185794D01*
X229186D02*
X229504Y186111D01*
X228869Y185794D02*
X229186D01*
X233869Y200294D02*
Y200611D01*
X234186Y200929D01*
X233869Y201247D02*
X234186Y200929D01*
X233869Y201247D02*
Y201564D01*
X234186D01*
X234504Y201247D01*
X234821Y201564D01*
X235139D01*
Y201247D02*
Y201564D01*
X234821Y200929D02*
X235139Y201247D01*
X234821Y200929D02*
X235139Y200611D01*
Y200294D02*
Y200611D01*
X234821Y200294D02*
X235139D01*
X234504Y200611D02*
X234821Y200294D01*
X234186D02*
X234504Y200611D01*
X233869Y200294D02*
X234186D01*
X228869D02*
Y200611D01*
X229186Y200929D01*
X228869Y201247D02*
X229186Y200929D01*
X228869Y201247D02*
Y201564D01*
X229186D01*
X229504Y201247D01*
X229821Y201564D01*
X230139D01*
Y201247D02*
Y201564D01*
X229821Y200929D02*
X230139Y201247D01*
X229821Y200929D02*
X230139Y200611D01*
Y200294D02*
Y200611D01*
X229821Y200294D02*
X230139D01*
X229504Y200611D02*
X229821Y200294D01*
X229186D02*
X229504Y200611D01*
X228869Y200294D02*
X229186D01*
X205588Y201359D02*
X205905D01*
X205588D02*
Y201993D01*
X205905D01*
Y202311D01*
X206540D01*
Y201993D02*
Y202311D01*
Y201993D02*
X206858D01*
Y201359D02*
Y201993D01*
X206540Y201359D02*
X206858D01*
X206540Y201041D02*
Y201359D01*
X205905Y201041D02*
X206540D01*
X205905D02*
Y201359D01*
X205588Y198818D02*
X205905D01*
X205588D02*
Y199454D01*
X205905D01*
Y199771D01*
X206540D01*
Y199454D02*
Y199771D01*
Y199454D02*
X206858D01*
Y198818D02*
Y199454D01*
X206540Y198818D02*
X206858D01*
X206540Y198501D02*
Y198818D01*
X205905Y198501D02*
X206540D01*
X205905D02*
Y198818D01*
X205588Y196279D02*
X205905D01*
X205588D02*
Y196913D01*
X205905D01*
Y197231D01*
X206540D01*
Y196913D02*
Y197231D01*
Y196913D02*
X206858D01*
Y196279D02*
Y196913D01*
X206540Y196279D02*
X206858D01*
X206540Y195961D02*
Y196279D01*
X205905Y195961D02*
X206540D01*
X205905D02*
Y196279D01*
X205588Y186118D02*
X205905D01*
X205588D02*
Y186753D01*
X205905D01*
Y187071D01*
X206540D01*
Y186753D02*
Y187071D01*
Y186753D02*
X206858D01*
Y186118D02*
Y186753D01*
X206540Y186118D02*
X206858D01*
X206540Y185801D02*
Y186118D01*
X205905Y185801D02*
X206540D01*
X205905D02*
Y186118D01*
X205588Y188658D02*
X205905D01*
X205588D02*
Y189294D01*
X205905D01*
Y189611D01*
X206540D01*
Y189294D02*
Y189611D01*
Y189294D02*
X206858D01*
Y188658D02*
Y189294D01*
X206540Y188658D02*
X206858D01*
X206540Y188341D02*
Y188658D01*
X205905Y188341D02*
X206540D01*
X205905D02*
Y188658D01*
X205588Y191199D02*
X205905D01*
X205588D02*
Y191833D01*
X205905D01*
Y192151D01*
X206540D01*
Y191833D02*
Y192151D01*
Y191833D02*
X206858D01*
Y191199D02*
Y191833D01*
X206540Y191199D02*
X206858D01*
X206540Y190881D02*
Y191199D01*
X205905Y190881D02*
X206540D01*
X205905D02*
Y191199D01*
X205588Y193738D02*
X205905D01*
X205588D02*
Y194374D01*
X205905D01*
Y194691D01*
X206540D01*
Y194374D02*
Y194691D01*
Y194374D02*
X206858D01*
Y193738D02*
Y194374D01*
X206540Y193738D02*
X206858D01*
X206540Y193421D02*
Y193738D01*
X205905Y193421D02*
X206540D01*
X205905D02*
Y193738D01*
X220828Y201359D02*
X221145D01*
X220828D02*
Y201993D01*
X221145D01*
Y202311D01*
X221780D01*
Y201993D02*
Y202311D01*
Y201993D02*
X222098D01*
Y201359D02*
Y201993D01*
X221780Y201359D02*
X222098D01*
X221780Y201041D02*
Y201359D01*
X221145Y201041D02*
X221780D01*
X221145D02*
Y201359D01*
X220828Y198818D02*
X221145D01*
X220828D02*
Y199454D01*
X221145D01*
Y199771D01*
X221780D01*
Y199454D02*
Y199771D01*
Y199454D02*
X222098D01*
Y198818D02*
Y199454D01*
X221780Y198818D02*
X222098D01*
X221780Y198501D02*
Y198818D01*
X221145Y198501D02*
X221780D01*
X221145D02*
Y198818D01*
X220828Y196279D02*
X221145D01*
X220828D02*
Y196913D01*
X221145D01*
Y197231D01*
X221780D01*
Y196913D02*
Y197231D01*
Y196913D02*
X222098D01*
Y196279D02*
Y196913D01*
X221780Y196279D02*
X222098D01*
X221780Y195961D02*
Y196279D01*
X221145Y195961D02*
X221780D01*
X221145D02*
Y196279D01*
X220828Y186118D02*
X221145D01*
X220828D02*
Y186753D01*
X221145D01*
Y187071D01*
X221780D01*
Y186753D02*
Y187071D01*
Y186753D02*
X222098D01*
Y186118D02*
Y186753D01*
X221780Y186118D02*
X222098D01*
X221780Y185801D02*
Y186118D01*
X221145Y185801D02*
X221780D01*
X221145D02*
Y186118D01*
X220828Y188658D02*
X221145D01*
X220828D02*
Y189294D01*
X221145D01*
Y189611D01*
X221780D01*
Y189294D02*
Y189611D01*
Y189294D02*
X222098D01*
Y188658D02*
Y189294D01*
X221780Y188658D02*
X222098D01*
X221780Y188341D02*
Y188658D01*
X221145Y188341D02*
X221780D01*
X221145D02*
Y188658D01*
X220828Y191199D02*
X221145D01*
X220828D02*
Y191833D01*
X221145D01*
Y192151D01*
X221780D01*
Y191833D02*
Y192151D01*
Y191833D02*
X222098D01*
Y191199D02*
Y191833D01*
X221780Y191199D02*
X222098D01*
X221780Y190881D02*
Y191199D01*
X221145Y190881D02*
X221780D01*
X221145D02*
Y191199D01*
X220828Y193738D02*
X221145D01*
X220828D02*
Y194374D01*
X221145D01*
Y194691D01*
X221780D01*
Y194374D02*
Y194691D01*
Y194374D02*
X222098D01*
Y193738D02*
Y194374D01*
X221780Y193738D02*
X222098D01*
X221780Y193421D02*
Y193738D01*
X221145Y193421D02*
X221780D01*
X221145D02*
Y193738D01*
X164928Y175975D02*
X165245D01*
X164928D02*
Y176611D01*
X165245D01*
Y176928D01*
X165880D01*
Y176611D02*
Y176928D01*
Y176611D02*
X166198D01*
Y175975D02*
Y176611D01*
X165880Y175975D02*
X166198D01*
X165880Y175658D02*
Y175975D01*
X165245Y175658D02*
X165880D01*
X165245D02*
Y175975D01*
X164928Y184975D02*
X165245D01*
X164928D02*
Y185611D01*
X165245D01*
Y185928D01*
X165880D01*
Y185611D02*
Y185928D01*
Y185611D02*
X166198D01*
Y184975D02*
Y185611D01*
X165880Y184975D02*
X166198D01*
X165880Y184658D02*
Y184975D01*
X165245Y184658D02*
X165880D01*
X165245D02*
Y184975D01*
X169520Y184658D02*
X170155Y184975D01*
X170790Y184658D01*
X170472Y185293D02*
X170790Y184658D01*
X170472Y185293D02*
X170790Y185928D01*
X170155Y185611D02*
X170790Y185928D01*
X169520D02*
X170155Y185611D01*
X169520Y185928D02*
X169837Y185293D01*
X169520Y184658D02*
X169837Y185293D01*
X169520Y182118D02*
X170155Y182436D01*
X170790Y182118D01*
X170472Y182753D02*
X170790Y182118D01*
X170472Y182753D02*
X170790Y183388D01*
X170155Y183070D02*
X170790Y183388D01*
X169520D02*
X170155Y183070D01*
X169520Y183388D02*
X169837Y182753D01*
X169520Y182118D02*
X169837Y182753D01*
X169520Y179578D02*
X170155Y179895D01*
X170790Y179578D01*
X170472Y180213D02*
X170790Y179578D01*
X170472Y180213D02*
X170790Y180848D01*
X170155Y180531D02*
X170790Y180848D01*
X169520D02*
X170155Y180531D01*
X169520Y180848D02*
X169837Y180213D01*
X169520Y179578D02*
X169837Y180213D01*
X169520Y177038D02*
X170155Y177355D01*
X170790Y177038D01*
X170472Y177673D02*
X170790Y177038D01*
X170472Y177673D02*
X170790Y178308D01*
X170155Y177990D02*
X170790Y178308D01*
X169520D02*
X170155Y177990D01*
X169520Y178308D02*
X169837Y177673D01*
X169520Y177038D02*
X169837Y177673D01*
X169520Y174498D02*
X170155Y174816D01*
X170790Y174498D01*
X170472Y175133D02*
X170790Y174498D01*
X170472Y175133D02*
X170790Y175768D01*
X170155Y175451D02*
X170790Y175768D01*
X169520D02*
X170155Y175451D01*
X169520Y175768D02*
X169837Y175133D01*
X169520Y174498D02*
X169837Y175133D01*
X169520Y171958D02*
X170155Y172275D01*
X170790Y171958D01*
X170472Y172593D02*
X170790Y171958D01*
X170472Y172593D02*
X170790Y173228D01*
X170155Y172911D02*
X170790Y173228D01*
X169520D02*
X170155Y172911D01*
X169520Y173228D02*
X169837Y172593D01*
X169520Y171958D02*
X169837Y172593D01*
X169520Y169418D02*
X170155Y169736D01*
X170790Y169418D01*
X170472Y170053D02*
X170790Y169418D01*
X170472Y170053D02*
X170790Y170688D01*
X170155Y170370D02*
X170790Y170688D01*
X169520D02*
X170155Y170370D01*
X169520Y170688D02*
X169837Y170053D01*
X169520Y169418D02*
X169837Y170053D01*
X169520Y166878D02*
X170155Y167195D01*
X170790Y166878D01*
X170472Y167513D02*
X170790Y166878D01*
X170472Y167513D02*
X170790Y168148D01*
X170155Y167831D02*
X170790Y168148D01*
X169520D02*
X170155Y167831D01*
X169520Y168148D02*
X169837Y167513D01*
X169520Y166878D02*
X169837Y167513D01*
X177140Y184658D02*
X177775Y184975D01*
X178410Y184658D01*
X178092Y185293D02*
X178410Y184658D01*
X178092Y185293D02*
X178410Y185928D01*
X177775Y185611D02*
X178410Y185928D01*
X177140D02*
X177775Y185611D01*
X177140Y185928D02*
X177457Y185293D01*
X177140Y184658D02*
X177457Y185293D01*
X177140Y182118D02*
X177775Y182436D01*
X178410Y182118D01*
X178092Y182753D02*
X178410Y182118D01*
X178092Y182753D02*
X178410Y183388D01*
X177775Y183070D02*
X178410Y183388D01*
X177140D02*
X177775Y183070D01*
X177140Y183388D02*
X177457Y182753D01*
X177140Y182118D02*
X177457Y182753D01*
X177140Y179578D02*
X177775Y179895D01*
X178410Y179578D01*
X178092Y180213D02*
X178410Y179578D01*
X178092Y180213D02*
X178410Y180848D01*
X177775Y180531D02*
X178410Y180848D01*
X177140D02*
X177775Y180531D01*
X177140Y180848D02*
X177457Y180213D01*
X177140Y179578D02*
X177457Y180213D01*
X177140Y177038D02*
X177775Y177355D01*
X178410Y177038D01*
X178092Y177673D02*
X178410Y177038D01*
X178092Y177673D02*
X178410Y178308D01*
X177775Y177990D02*
X178410Y178308D01*
X177140D02*
X177775Y177990D01*
X177140Y178308D02*
X177457Y177673D01*
X177140Y177038D02*
X177457Y177673D01*
X177140Y174498D02*
X177775Y174816D01*
X178410Y174498D01*
X178092Y175133D02*
X178410Y174498D01*
X178092Y175133D02*
X178410Y175768D01*
X177775Y175451D02*
X178410Y175768D01*
X177140D02*
X177775Y175451D01*
X177140Y175768D02*
X177457Y175133D01*
X177140Y174498D02*
X177457Y175133D01*
X177140Y171958D02*
X177775Y172275D01*
X178410Y171958D01*
X178092Y172593D02*
X178410Y171958D01*
X178092Y172593D02*
X178410Y173228D01*
X177775Y172911D02*
X178410Y173228D01*
X177140D02*
X177775Y172911D01*
X177140Y173228D02*
X177457Y172593D01*
X177140Y171958D02*
X177457Y172593D01*
X177140Y169418D02*
X177775Y169736D01*
X178410Y169418D01*
X178092Y170053D02*
X178410Y169418D01*
X178092Y170053D02*
X178410Y170688D01*
X177775Y170370D02*
X178410Y170688D01*
X177140D02*
X177775Y170370D01*
X177140Y170688D02*
X177457Y170053D01*
X177140Y169418D02*
X177457Y170053D01*
X177140Y166878D02*
X177775Y167195D01*
X178410Y166878D01*
X178092Y167513D02*
X178410Y166878D01*
X178092Y167513D02*
X178410Y168148D01*
X177775Y167831D02*
X178410Y168148D01*
X177140D02*
X177775Y167831D01*
X177140Y168148D02*
X177457Y167513D01*
X177140Y166878D02*
X177457Y167513D01*
X168377Y157099D02*
X169647D01*
Y158369D01*
X168377D02*
X169647D01*
X168377Y157099D02*
Y158369D01*
X174727Y159639D02*
X175997D01*
Y160909D01*
X174727D02*
X175997D01*
X174727Y159639D02*
Y160909D01*
X172822Y154559D02*
X173457Y155829D01*
X172187D02*
X173457D01*
X172187D02*
X172822Y154559D01*
X187427Y157099D02*
X188697D01*
Y158369D01*
X187427D02*
X188697D01*
X187427Y157099D02*
Y158369D01*
X193777Y159639D02*
X195047D01*
Y160909D01*
X193777D02*
X195047D01*
X193777Y159639D02*
Y160909D01*
X191872Y154559D02*
X192507Y155829D01*
X191237D02*
X192507D01*
X191237D02*
X191872Y154559D01*
X206477Y157099D02*
X207747D01*
Y158369D01*
X206477D02*
X207747D01*
X206477Y157099D02*
Y158369D01*
X212827Y159639D02*
X214097D01*
Y160909D01*
X212827D02*
X214097D01*
X212827Y159639D02*
Y160909D01*
X210922Y154559D02*
X211557Y155829D01*
X210287D02*
X211557D01*
X210287D02*
X210922Y154559D01*
X225527Y157099D02*
X226797D01*
Y158369D01*
X225527D02*
X226797D01*
X225527Y157099D02*
Y158369D01*
X231877Y159639D02*
X233147D01*
Y160909D01*
X231877D02*
X233147D01*
X231877Y159639D02*
Y160909D01*
X229972Y154559D02*
X230607Y155829D01*
X229337D02*
X230607D01*
X229337D02*
X229972Y154559D01*
X168377Y138049D02*
X169647D01*
Y139319D01*
X168377D02*
X169647D01*
X168377Y138049D02*
Y139319D01*
X174727Y140589D02*
X175997D01*
Y141859D01*
X174727D02*
X175997D01*
X174727Y140589D02*
Y141859D01*
X172822Y135509D02*
X173457Y136779D01*
X172187D02*
X173457D01*
X172187D02*
X172822Y135509D01*
X187427Y138049D02*
X188697D01*
Y139319D01*
X187427D02*
X188697D01*
X187427Y138049D02*
Y139319D01*
X193777Y140589D02*
X195047D01*
Y141859D01*
X193777D02*
X195047D01*
X193777Y140589D02*
Y141859D01*
X191872Y135509D02*
X192507Y136779D01*
X191237D02*
X192507D01*
X191237D02*
X191872Y135509D01*
X206477Y138049D02*
X207747D01*
Y139319D01*
X206477D02*
X207747D01*
X206477Y138049D02*
Y139319D01*
X212827Y140589D02*
X214097D01*
Y141859D01*
X212827D02*
X214097D01*
X212827Y140589D02*
Y141859D01*
X210922Y135509D02*
X211557Y136779D01*
X210287D02*
X211557D01*
X210287D02*
X210922Y135509D01*
X225527Y138049D02*
X226797D01*
Y139319D01*
X225527D02*
X226797D01*
X225527Y138049D02*
Y139319D01*
X231877Y140589D02*
X233147D01*
Y141859D01*
X231877D02*
X233147D01*
X231877Y140589D02*
Y141859D01*
X229972Y135509D02*
X230607Y136779D01*
X229337D02*
X230607D01*
X229337D02*
X229972Y135509D01*
X168377Y118999D02*
X169647D01*
Y120269D01*
X168377D02*
X169647D01*
X168377Y118999D02*
Y120269D01*
X174727Y121539D02*
X175997D01*
Y122809D01*
X174727D02*
X175997D01*
X174727Y121539D02*
Y122809D01*
X172822Y116459D02*
X173457Y117729D01*
X172187D02*
X173457D01*
X172187D02*
X172822Y116459D01*
X187427Y118999D02*
X188697D01*
Y120269D01*
X187427D02*
X188697D01*
X187427Y118999D02*
Y120269D01*
X193777Y121539D02*
X195047D01*
Y122809D01*
X193777D02*
X195047D01*
X193777Y121539D02*
Y122809D01*
X191872Y116459D02*
X192507Y117729D01*
X191237D02*
X192507D01*
X191237D02*
X191872Y116459D01*
X206477Y118999D02*
X207747D01*
Y120269D01*
X206477D02*
X207747D01*
X206477Y118999D02*
Y120269D01*
X212827Y121539D02*
X214097D01*
Y122809D01*
X212827D02*
X214097D01*
X212827Y121539D02*
Y122809D01*
X210922Y116459D02*
X211557Y117729D01*
X210287D02*
X211557D01*
X210287D02*
X210922Y116459D01*
X225527Y118999D02*
X226797D01*
Y120269D01*
X225527D02*
X226797D01*
X225527Y118999D02*
Y120269D01*
X231877Y121539D02*
X233147D01*
Y122809D01*
X231877D02*
X233147D01*
X231877Y121539D02*
Y122809D01*
X229972Y116459D02*
X230607Y117729D01*
X229337D02*
X230607D01*
X229337D02*
X229972Y116459D01*
X199692Y191008D02*
X200327Y191326D01*
X200962Y191008D01*
X200644Y191643D02*
X200962Y191008D01*
X200644Y191643D02*
X200962Y192278D01*
X200327Y191960D02*
X200962Y192278D01*
X199692D02*
X200327Y191960D01*
X199692Y192278D02*
X200009Y191643D01*
X199692Y191008D02*
X200009Y191643D01*
X199692Y193548D02*
X200327Y193865D01*
X200962Y193548D01*
X200644Y194183D02*
X200962Y193548D01*
X200644Y194183D02*
X200962Y194818D01*
X200327Y194501D02*
X200962Y194818D01*
X199692D02*
X200327Y194501D01*
X199692Y194818D02*
X200009Y194183D01*
X199692Y193548D02*
X200009Y194183D01*
X199692Y196088D02*
X200327Y196406D01*
X200962Y196088D01*
X200644Y196723D02*
X200962Y196088D01*
X200644Y196723D02*
X200962Y197358D01*
X200327Y197040D02*
X200962Y197358D01*
X199692D02*
X200327Y197040D01*
X199692Y197358D02*
X200009Y196723D01*
X199692Y196088D02*
X200009Y196723D01*
X199692Y198628D02*
X200327Y198945D01*
X200962Y198628D01*
X200644Y199263D02*
X200962Y198628D01*
X200644Y199263D02*
X200962Y199898D01*
X200327Y199581D02*
X200962Y199898D01*
X199692D02*
X200327Y199581D01*
X199692Y199898D02*
X200009Y199263D01*
X199692Y198628D02*
X200009Y199263D01*
D44*
X272511Y178975D02*
G03*
X272511Y178975I-847J0D01*
G01*
X271157Y201327D02*
X272173D01*
Y202343D01*
X271157D02*
X272173D01*
X271157Y201327D02*
Y202343D01*
X270818Y200988D02*
X272511D01*
Y202682D01*
X270818D02*
X272511D01*
X270818Y200988D02*
Y202682D01*
X271241Y197602D02*
X271665Y197178D01*
X270818Y197602D02*
X271241D01*
X270818D02*
X271241Y198025D01*
X270818Y198448D02*
X271241Y198025D01*
X270818Y198448D02*
X271241D01*
X271665Y198872D01*
X272088Y198448D01*
X272511D01*
X272088Y198025D02*
X272511Y198448D01*
X272088Y198025D02*
X272511Y197602D01*
X272088D02*
X272511D01*
X271665Y197178D02*
X272088Y197602D01*
X270818Y193792D02*
X271241D01*
X270818D02*
Y194638D01*
X271241D01*
Y195062D01*
X272088D01*
Y194638D02*
Y195062D01*
Y194638D02*
X272511D01*
Y193792D02*
Y194638D01*
X272088Y193792D02*
X272511D01*
X272088Y193368D02*
Y193792D01*
X271241Y193368D02*
X272088D01*
X271241D02*
Y193792D01*
X270818Y189558D02*
X271665Y189982D01*
X272511Y189558D01*
X272088Y190405D02*
X272511Y189558D01*
X272088Y190405D02*
X272511Y191252D01*
X271665Y190828D02*
X272511Y191252D01*
X270818D02*
X271665Y190828D01*
X270818Y191252D02*
X271241Y190405D01*
X270818Y189558D02*
X271241Y190405D01*
X270818Y185748D02*
Y186172D01*
X271241Y186595D01*
X270818Y187018D02*
X271241Y186595D01*
X270818Y187018D02*
Y187442D01*
X271241D01*
X271665Y187018D01*
X272088Y187442D01*
X272511D01*
Y187018D02*
Y187442D01*
X272088Y186595D02*
X272511Y187018D01*
X272088Y186595D02*
X272511Y186172D01*
Y185748D02*
Y186172D01*
X272088Y185748D02*
X272511D01*
X271665Y186172D02*
X272088Y185748D01*
X271241D02*
X271665Y186172D01*
X270818Y185748D02*
X271241D01*
X270818Y181938D02*
X272511D01*
Y183632D01*
X270818D02*
X272511D01*
X270818Y181938D02*
Y183632D01*
X271665Y174318D02*
X272511Y176012D01*
X270818D02*
X272511D01*
X270818D02*
X271665Y174318D01*
X270818Y171355D02*
X271665Y170508D01*
X272511Y171355D01*
X271665Y172202D02*
X272511Y171355D01*
X270818D02*
X271665Y172202D01*
X414951Y200988D02*
Y202512D01*
X415713D01*
X415967Y202258D01*
Y201750D01*
X415713Y201496D01*
X414951D01*
X415459D02*
X415967Y200988D01*
X416729D02*
X417237D01*
X417491Y201242D01*
Y201750D01*
X417237Y202004D01*
X416729D01*
X416475Y201750D01*
Y201242D01*
X416729Y200988D01*
X417998Y202004D02*
Y201242D01*
X418252Y200988D01*
X419014D01*
Y202004D01*
X419522Y200988D02*
Y202004D01*
X420284D01*
X420538Y201750D01*
Y200988D01*
X422061Y202512D02*
Y200988D01*
X421299D01*
X421045Y201242D01*
Y201750D01*
X421299Y202004D01*
X422061D01*
X423331Y200988D02*
X422823D01*
X422569Y201242D01*
Y201750D01*
X422823Y202004D01*
X423331D01*
X423585Y201750D01*
Y201496D01*
X422569D01*
X425108Y202512D02*
Y200988D01*
X424346D01*
X424092Y201242D01*
Y201750D01*
X424346Y202004D01*
X425108D01*
X414951Y197178D02*
Y198702D01*
X415713D01*
X415967Y198448D01*
Y197940D01*
X415713Y197686D01*
X414951D01*
X415459D02*
X415967Y197178D01*
X416729D02*
X417237D01*
X417491Y197432D01*
Y197940D01*
X417237Y198194D01*
X416729D01*
X416475Y197940D01*
Y197432D01*
X416729Y197178D01*
X417998Y198194D02*
Y197432D01*
X418252Y197178D01*
X419014D01*
Y198194D01*
X419522Y197178D02*
Y198194D01*
X420284D01*
X420538Y197940D01*
Y197178D01*
X422061Y198702D02*
Y197178D01*
X421299D01*
X421045Y197432D01*
Y197940D01*
X421299Y198194D01*
X422061D01*
X423331Y197178D02*
X422823D01*
X422569Y197432D01*
Y197940D01*
X422823Y198194D01*
X423331D01*
X423585Y197940D01*
Y197686D01*
X422569D01*
X425108Y198702D02*
Y197178D01*
X424346D01*
X424092Y197432D01*
Y197940D01*
X424346Y198194D01*
X425108D01*
X415459Y193368D02*
X414951Y193876D01*
Y194384D01*
X415459Y194892D01*
X416221Y193368D02*
Y194892D01*
X416729Y194384D01*
X417237Y194892D01*
Y193368D01*
X417744D02*
X418252D01*
X417998D01*
Y194384D01*
X417744D01*
X419014D02*
X420030Y193368D01*
X419522Y193876D01*
X420030Y194384D01*
X419014Y193368D01*
X421299D02*
X420792D01*
X420538Y193622D01*
Y194130D01*
X420792Y194384D01*
X421299D01*
X421553Y194130D01*
Y193876D01*
X420538D01*
X423077Y194892D02*
Y193368D01*
X422315D01*
X422061Y193622D01*
Y194130D01*
X422315Y194384D01*
X423077D01*
X423585Y193368D02*
X424092Y193876D01*
Y194384D01*
X423585Y194892D01*
X415459Y189558D02*
X414951Y190066D01*
Y190574D01*
X415459Y191082D01*
X416221Y189558D02*
Y191082D01*
X416729Y190574D01*
X417237Y191082D01*
Y189558D01*
X417744D02*
X418252D01*
X417998D01*
Y190574D01*
X417744D01*
X419014D02*
X420030Y189558D01*
X419522Y190066D01*
X420030Y190574D01*
X419014Y189558D01*
X421299D02*
X420792D01*
X420538Y189812D01*
Y190320D01*
X420792Y190574D01*
X421299D01*
X421553Y190320D01*
Y190066D01*
X420538D01*
X423077Y191082D02*
Y189558D01*
X422315D01*
X422061Y189812D01*
Y190320D01*
X422315Y190574D01*
X423077D01*
X423585Y189558D02*
X424092Y190066D01*
Y190574D01*
X423585Y191082D01*
X415459Y185748D02*
X414951Y186256D01*
Y186764D01*
X415459Y187272D01*
X416221Y185748D02*
Y187272D01*
X416729Y186764D01*
X417237Y187272D01*
Y185748D01*
X417744D02*
X418252D01*
X417998D01*
Y186764D01*
X417744D01*
X419014D02*
X420030Y185748D01*
X419522Y186256D01*
X420030Y186764D01*
X419014Y185748D01*
X421299D02*
X420792D01*
X420538Y186002D01*
Y186510D01*
X420792Y186764D01*
X421299D01*
X421553Y186510D01*
Y186256D01*
X420538D01*
X423077Y187272D02*
Y185748D01*
X422315D01*
X422061Y186002D01*
Y186510D01*
X422315Y186764D01*
X423077D01*
X423585Y185748D02*
X424092Y186256D01*
Y186764D01*
X423585Y187272D01*
X414951Y181938D02*
Y183462D01*
X415713D01*
X415967Y183208D01*
Y182700D01*
X415713Y182446D01*
X414951D01*
X415459D02*
X415967Y181938D01*
X416729D02*
X417237D01*
X417491Y182192D01*
Y182700D01*
X417237Y182954D01*
X416729D01*
X416475Y182700D01*
Y182192D01*
X416729Y181938D01*
X417998Y182954D02*
Y182192D01*
X418252Y181938D01*
X419014D01*
Y182954D01*
X419522Y181938D02*
Y182954D01*
X420284D01*
X420538Y182700D01*
Y181938D01*
X422061Y183462D02*
Y181938D01*
X421299D01*
X421045Y182192D01*
Y182700D01*
X421299Y182954D01*
X422061D01*
X423331Y181938D02*
X422823D01*
X422569Y182192D01*
Y182700D01*
X422823Y182954D01*
X423331D01*
X423585Y182700D01*
Y182446D01*
X422569D01*
X425108Y183462D02*
Y181938D01*
X424346D01*
X424092Y182192D01*
Y182700D01*
X424346Y182954D01*
X425108D01*
X414951Y178128D02*
Y179652D01*
X415713D01*
X415967Y179398D01*
Y178890D01*
X415713Y178636D01*
X414951D01*
X415459D02*
X415967Y178128D01*
X416729D02*
X417237D01*
X417491Y178382D01*
Y178890D01*
X417237Y179144D01*
X416729D01*
X416475Y178890D01*
Y178382D01*
X416729Y178128D01*
X417998Y179144D02*
Y178382D01*
X418252Y178128D01*
X419014D01*
Y179144D01*
X419522Y178128D02*
Y179144D01*
X420284D01*
X420538Y178890D01*
Y178128D01*
X422061Y179652D02*
Y178128D01*
X421299D01*
X421045Y178382D01*
Y178890D01*
X421299Y179144D01*
X422061D01*
X423331Y178128D02*
X422823D01*
X422569Y178382D01*
Y178890D01*
X422823Y179144D01*
X423331D01*
X423585Y178890D01*
Y178636D01*
X422569D01*
X425108Y179652D02*
Y178128D01*
X424346D01*
X424092Y178382D01*
Y178890D01*
X424346Y179144D01*
X425108D01*
X414951Y174318D02*
Y175842D01*
X415713D01*
X415967Y175588D01*
Y175080D01*
X415713Y174826D01*
X414951D01*
X415459D02*
X415967Y174318D01*
X416729D02*
X417237D01*
X417491Y174572D01*
Y175080D01*
X417237Y175334D01*
X416729D01*
X416475Y175080D01*
Y174572D01*
X416729Y174318D01*
X417998Y175334D02*
Y174572D01*
X418252Y174318D01*
X419014D01*
Y175334D01*
X419522Y174318D02*
Y175334D01*
X420284D01*
X420538Y175080D01*
Y174318D01*
X422061Y175842D02*
Y174318D01*
X421299D01*
X421045Y174572D01*
Y175080D01*
X421299Y175334D01*
X422061D01*
X423331Y174318D02*
X422823D01*
X422569Y174572D01*
Y175080D01*
X422823Y175334D01*
X423331D01*
X423585Y175080D01*
Y174826D01*
X422569D01*
X425108Y175842D02*
Y174318D01*
X424346D01*
X424092Y174572D01*
Y175080D01*
X424346Y175334D01*
X425108D01*
X414951Y170508D02*
Y172032D01*
X415713D01*
X415967Y171778D01*
Y171270D01*
X415713Y171016D01*
X414951D01*
X415459D02*
X415967Y170508D01*
X416729D02*
X417237D01*
X417491Y170762D01*
Y171270D01*
X417237Y171524D01*
X416729D01*
X416475Y171270D01*
Y170762D01*
X416729Y170508D01*
X417998Y171524D02*
Y170762D01*
X418252Y170508D01*
X419014D01*
Y171524D01*
X419522Y170508D02*
Y171524D01*
X420284D01*
X420538Y171270D01*
Y170508D01*
X422061Y172032D02*
Y170508D01*
X421299D01*
X421045Y170762D01*
Y171270D01*
X421299Y171524D01*
X422061D01*
X423331Y170508D02*
X422823D01*
X422569Y170762D01*
Y171270D01*
X422823Y171524D01*
X423331D01*
X423585Y171270D01*
Y171016D01*
X422569D01*
X425108Y172032D02*
Y170508D01*
X424346D01*
X424092Y170762D01*
Y171270D01*
X424346Y171524D01*
X425108D01*
X427139Y170508D02*
Y172032D01*
X427901D01*
X428155Y171778D01*
Y171270D01*
X427901Y171016D01*
X427139D01*
X427647D02*
X428155Y170508D01*
X429425D02*
X428917D01*
X428663Y170762D01*
Y171270D01*
X428917Y171524D01*
X429425D01*
X429679Y171270D01*
Y171016D01*
X428663D01*
X431202Y171524D02*
X430440D01*
X430186Y171270D01*
Y170762D01*
X430440Y170508D01*
X431202D01*
X431964Y171778D02*
Y171524D01*
X431710D01*
X432218D01*
X431964D01*
Y170762D01*
X432218Y170508D01*
X433233Y171524D02*
X433741D01*
X433995Y171270D01*
Y170508D01*
X433233D01*
X432980Y170762D01*
X433233Y171016D01*
X433995D01*
X434503Y170508D02*
Y171524D01*
X435265D01*
X435519Y171270D01*
Y170508D01*
X436534Y170001D02*
X436788D01*
X437042Y170254D01*
Y171524D01*
X436280D01*
X436027Y171270D01*
Y170762D01*
X436280Y170508D01*
X437042D01*
X437550D02*
X438058D01*
X437804D01*
Y172032D01*
X437550D01*
X439581Y170508D02*
X439074D01*
X438820Y170762D01*
Y171270D01*
X439074Y171524D01*
X439581D01*
X439835Y171270D01*
Y171016D01*
X438820D01*
X399662Y202512D02*
Y201496D01*
X400170Y200988D01*
X400678Y201496D01*
Y202512D01*
X401186Y200988D02*
X401693D01*
X401439D01*
Y202004D01*
X401186D01*
X402709D02*
X403217D01*
X403471Y201750D01*
Y200988D01*
X402709D01*
X402455Y201242D01*
X402709Y201496D01*
X403471D01*
X399662Y197178D02*
Y198702D01*
X400424D01*
X400678Y198448D01*
Y197940D01*
X400424Y197686D01*
X399662D01*
X401439Y198194D02*
X401947D01*
X402201Y197940D01*
Y197178D01*
X401439D01*
X401186Y197432D01*
X401439Y197686D01*
X402201D01*
X403725Y198702D02*
Y197178D01*
X402963D01*
X402709Y197432D01*
Y197940D01*
X402963Y198194D01*
X403725D01*
X399662Y193368D02*
Y194892D01*
X400424D01*
X400678Y194638D01*
Y194130D01*
X400424Y193876D01*
X399662D01*
X401439Y194384D02*
X401947D01*
X402201Y194130D01*
Y193368D01*
X401439D01*
X401186Y193622D01*
X401439Y193876D01*
X402201D01*
X403725Y194892D02*
Y193368D01*
X402963D01*
X402709Y193622D01*
Y194130D01*
X402963Y194384D01*
X403725D01*
X399662Y189558D02*
Y191082D01*
X400424D01*
X400678Y190828D01*
Y190320D01*
X400424Y190066D01*
X399662D01*
X401439Y190574D02*
X401947D01*
X402201Y190320D01*
Y189558D01*
X401439D01*
X401186Y189812D01*
X401439Y190066D01*
X402201D01*
X403725Y191082D02*
Y189558D01*
X402963D01*
X402709Y189812D01*
Y190320D01*
X402963Y190574D01*
X403725D01*
X399662Y185748D02*
Y187272D01*
X400424D01*
X400678Y187018D01*
Y186510D01*
X400424Y186256D01*
X399662D01*
X401439Y186764D02*
X401947D01*
X402201Y186510D01*
Y185748D01*
X401439D01*
X401186Y186002D01*
X401439Y186256D01*
X402201D01*
X403725Y187272D02*
Y185748D01*
X402963D01*
X402709Y186002D01*
Y186510D01*
X402963Y186764D01*
X403725D01*
X399662Y181938D02*
Y183462D01*
X400424D01*
X400678Y183208D01*
Y182700D01*
X400424Y182446D01*
X399662D01*
X401439Y182954D02*
X401947D01*
X402201Y182700D01*
Y181938D01*
X401439D01*
X401186Y182192D01*
X401439Y182446D01*
X402201D01*
X403725Y183462D02*
Y181938D01*
X402963D01*
X402709Y182192D01*
Y182700D01*
X402963Y182954D01*
X403725D01*
X399662Y178128D02*
Y179652D01*
X400424D01*
X400678Y179398D01*
Y178890D01*
X400424Y178636D01*
X399662D01*
X401439Y179144D02*
X401947D01*
X402201Y178890D01*
Y178128D01*
X401439D01*
X401186Y178382D01*
X401439Y178636D01*
X402201D01*
X403725Y179652D02*
Y178128D01*
X402963D01*
X402709Y178382D01*
Y178890D01*
X402963Y179144D01*
X403725D01*
X399662Y174318D02*
Y175842D01*
X400424D01*
X400678Y175588D01*
Y175080D01*
X400424Y174826D01*
X399662D01*
X401439Y175334D02*
X401947D01*
X402201Y175080D01*
Y174318D01*
X401439D01*
X401186Y174572D01*
X401439Y174826D01*
X402201D01*
X403725Y175842D02*
Y174318D01*
X402963D01*
X402709Y174572D01*
Y175080D01*
X402963Y175334D01*
X403725D01*
X399662Y170508D02*
Y172032D01*
X400424D01*
X400678Y171778D01*
Y171270D01*
X400424Y171016D01*
X399662D01*
X401439Y171524D02*
X401947D01*
X402201Y171270D01*
Y170508D01*
X401439D01*
X401186Y170762D01*
X401439Y171016D01*
X402201D01*
X403725Y172032D02*
Y170508D01*
X402963D01*
X402709Y170762D01*
Y171270D01*
X402963Y171524D01*
X403725D01*
X361381Y202512D02*
X362397D01*
X361889D01*
Y200988D01*
X363159D02*
X363667D01*
X363921Y201242D01*
Y201750D01*
X363667Y202004D01*
X363159D01*
X362905Y201750D01*
Y201242D01*
X363159Y200988D01*
X364428Y200481D02*
Y202004D01*
X365190D01*
X365444Y201750D01*
Y201242D01*
X365190Y200988D01*
X364428D01*
X367475Y202512D02*
Y200988D01*
X368491D01*
X369253Y202004D02*
X369761D01*
X370015Y201750D01*
Y200988D01*
X369253D01*
X368999Y201242D01*
X369253Y201496D01*
X370015D01*
X370522Y202004D02*
Y201242D01*
X370776Y200988D01*
X371538D01*
Y200734D01*
X371284Y200481D01*
X371030D01*
X371538Y200988D02*
Y202004D01*
X372808Y200988D02*
X372300D01*
X372046Y201242D01*
Y201750D01*
X372300Y202004D01*
X372808D01*
X373062Y201750D01*
Y201496D01*
X372046D01*
X373570Y202004D02*
Y200988D01*
Y201496D01*
X373823Y201750D01*
X374077Y202004D01*
X374331D01*
X376617Y201750D02*
X377632D01*
X379664Y202512D02*
Y200988D01*
X380425D01*
X380679Y201242D01*
Y201496D01*
X380425Y201750D01*
X379664D01*
X380425D01*
X380679Y202004D01*
Y202258D01*
X380425Y202512D01*
X379664D01*
X381441Y200988D02*
X381949D01*
X382203Y201242D01*
Y201750D01*
X381949Y202004D01*
X381441D01*
X381187Y201750D01*
Y201242D01*
X381441Y200988D01*
X382964Y202258D02*
Y202004D01*
X382711D01*
X383218D01*
X382964D01*
Y201242D01*
X383218Y200988D01*
X384234Y202258D02*
Y202004D01*
X383980D01*
X384488D01*
X384234D01*
Y201242D01*
X384488Y200988D01*
X385504D02*
X386012D01*
X386265Y201242D01*
Y201750D01*
X386012Y202004D01*
X385504D01*
X385250Y201750D01*
Y201242D01*
X385504Y200988D01*
X386773D02*
Y202004D01*
X387027D01*
X387281Y201750D01*
Y200988D01*
Y201750D01*
X387535Y202004D01*
X387789Y201750D01*
Y200988D01*
X389820Y202512D02*
Y200988D01*
X390836D01*
X391598Y202004D02*
X392105D01*
X392359Y201750D01*
Y200988D01*
X391598D01*
X391344Y201242D01*
X391598Y201496D01*
X392359D01*
X392867Y202004D02*
Y201242D01*
X393121Y200988D01*
X393883D01*
Y200734D01*
X393629Y200481D01*
X393375D01*
X393883Y200988D02*
Y202004D01*
X395153Y200988D02*
X394645D01*
X394391Y201242D01*
Y201750D01*
X394645Y202004D01*
X395153D01*
X395406Y201750D01*
Y201496D01*
X394391D01*
X395914Y202004D02*
Y200988D01*
Y201496D01*
X396168Y201750D01*
X396422Y202004D01*
X396676D01*
X361381Y198702D02*
X362397D01*
X361889D01*
Y197178D01*
X363159D02*
X363667D01*
X363921Y197432D01*
Y197940D01*
X363667Y198194D01*
X363159D01*
X362905Y197940D01*
Y197432D01*
X363159Y197178D01*
X364428Y196671D02*
Y198194D01*
X365190D01*
X365444Y197940D01*
Y197432D01*
X365190Y197178D01*
X364428D01*
X367475Y198702D02*
Y197178D01*
X368491D01*
X369253Y198194D02*
X369761D01*
X370015Y197940D01*
Y197178D01*
X369253D01*
X368999Y197432D01*
X369253Y197686D01*
X370015D01*
X370522Y198194D02*
Y197432D01*
X370776Y197178D01*
X371538D01*
Y196924D01*
X371284Y196671D01*
X371030D01*
X371538Y197178D02*
Y198194D01*
X372808Y197178D02*
X372300D01*
X372046Y197432D01*
Y197940D01*
X372300Y198194D01*
X372808D01*
X373062Y197940D01*
Y197686D01*
X372046D01*
X373570Y198194D02*
Y197178D01*
Y197686D01*
X373823Y197940D01*
X374077Y198194D01*
X374331D01*
X376617Y197940D02*
X377632D01*
X379664Y198702D02*
Y197178D01*
X380425D01*
X380679Y197432D01*
Y197686D01*
X380425Y197940D01*
X379664D01*
X380425D01*
X380679Y198194D01*
Y198448D01*
X380425Y198702D01*
X379664D01*
X381441Y197178D02*
X381949D01*
X382203Y197432D01*
Y197940D01*
X381949Y198194D01*
X381441D01*
X381187Y197940D01*
Y197432D01*
X381441Y197178D01*
X382964Y198448D02*
Y198194D01*
X382711D01*
X383218D01*
X382964D01*
Y197432D01*
X383218Y197178D01*
X384234Y198448D02*
Y198194D01*
X383980D01*
X384488D01*
X384234D01*
Y197432D01*
X384488Y197178D01*
X385504D02*
X386012D01*
X386265Y197432D01*
Y197940D01*
X386012Y198194D01*
X385504D01*
X385250Y197940D01*
Y197432D01*
X385504Y197178D01*
X386773D02*
Y198194D01*
X387027D01*
X387281Y197940D01*
Y197178D01*
Y197940D01*
X387535Y198194D01*
X387789Y197940D01*
Y197178D01*
X389820Y198702D02*
Y197178D01*
X390836D01*
X391598Y198194D02*
X392105D01*
X392359Y197940D01*
Y197178D01*
X391598D01*
X391344Y197432D01*
X391598Y197686D01*
X392359D01*
X392867Y198194D02*
Y197432D01*
X393121Y197178D01*
X393883D01*
Y196924D01*
X393629Y196671D01*
X393375D01*
X393883Y197178D02*
Y198194D01*
X395153Y197178D02*
X394645D01*
X394391Y197432D01*
Y197940D01*
X394645Y198194D01*
X395153D01*
X395406Y197940D01*
Y197686D01*
X394391D01*
X395914Y198194D02*
Y197178D01*
Y197686D01*
X396168Y197940D01*
X396422Y198194D01*
X396676D01*
X361381Y194892D02*
X362397D01*
X361889D01*
Y193368D01*
X363159D02*
X363667D01*
X363921Y193622D01*
Y194130D01*
X363667Y194384D01*
X363159D01*
X362905Y194130D01*
Y193622D01*
X363159Y193368D01*
X364428Y192861D02*
Y194384D01*
X365190D01*
X365444Y194130D01*
Y193622D01*
X365190Y193368D01*
X364428D01*
X367475Y194892D02*
Y193368D01*
X368491D01*
X369253Y194384D02*
X369761D01*
X370015Y194130D01*
Y193368D01*
X369253D01*
X368999Y193622D01*
X369253Y193876D01*
X370015D01*
X370522Y194384D02*
Y193622D01*
X370776Y193368D01*
X371538D01*
Y193114D01*
X371284Y192861D01*
X371030D01*
X371538Y193368D02*
Y194384D01*
X372808Y193368D02*
X372300D01*
X372046Y193622D01*
Y194130D01*
X372300Y194384D01*
X372808D01*
X373062Y194130D01*
Y193876D01*
X372046D01*
X373570Y194384D02*
Y193368D01*
Y193876D01*
X373823Y194130D01*
X374077Y194384D01*
X374331D01*
X376617Y194130D02*
X377632D01*
X379664Y194892D02*
Y193368D01*
X380425D01*
X380679Y193622D01*
Y193876D01*
X380425Y194130D01*
X379664D01*
X380425D01*
X380679Y194384D01*
Y194638D01*
X380425Y194892D01*
X379664D01*
X381441Y193368D02*
X381949D01*
X382203Y193622D01*
Y194130D01*
X381949Y194384D01*
X381441D01*
X381187Y194130D01*
Y193622D01*
X381441Y193368D01*
X382964Y194638D02*
Y194384D01*
X382711D01*
X383218D01*
X382964D01*
Y193622D01*
X383218Y193368D01*
X384234Y194638D02*
Y194384D01*
X383980D01*
X384488D01*
X384234D01*
Y193622D01*
X384488Y193368D01*
X385504D02*
X386012D01*
X386265Y193622D01*
Y194130D01*
X386012Y194384D01*
X385504D01*
X385250Y194130D01*
Y193622D01*
X385504Y193368D01*
X386773D02*
Y194384D01*
X387027D01*
X387281Y194130D01*
Y193368D01*
Y194130D01*
X387535Y194384D01*
X387789Y194130D01*
Y193368D01*
X389820Y194892D02*
Y193368D01*
X390836D01*
X391598Y194384D02*
X392105D01*
X392359Y194130D01*
Y193368D01*
X391598D01*
X391344Y193622D01*
X391598Y193876D01*
X392359D01*
X392867Y194384D02*
Y193622D01*
X393121Y193368D01*
X393883D01*
Y193114D01*
X393629Y192861D01*
X393375D01*
X393883Y193368D02*
Y194384D01*
X395153Y193368D02*
X394645D01*
X394391Y193622D01*
Y194130D01*
X394645Y194384D01*
X395153D01*
X395406Y194130D01*
Y193876D01*
X394391D01*
X395914Y194384D02*
Y193368D01*
Y193876D01*
X396168Y194130D01*
X396422Y194384D01*
X396676D01*
X361381Y191082D02*
X362397D01*
X361889D01*
Y189558D01*
X363159D02*
X363667D01*
X363921Y189812D01*
Y190320D01*
X363667Y190574D01*
X363159D01*
X362905Y190320D01*
Y189812D01*
X363159Y189558D01*
X364428Y189051D02*
Y190574D01*
X365190D01*
X365444Y190320D01*
Y189812D01*
X365190Y189558D01*
X364428D01*
X367475Y191082D02*
Y189558D01*
X368491D01*
X369253Y190574D02*
X369761D01*
X370015Y190320D01*
Y189558D01*
X369253D01*
X368999Y189812D01*
X369253Y190066D01*
X370015D01*
X370522Y190574D02*
Y189812D01*
X370776Y189558D01*
X371538D01*
Y189304D01*
X371284Y189051D01*
X371030D01*
X371538Y189558D02*
Y190574D01*
X372808Y189558D02*
X372300D01*
X372046Y189812D01*
Y190320D01*
X372300Y190574D01*
X372808D01*
X373062Y190320D01*
Y190066D01*
X372046D01*
X373570Y190574D02*
Y189558D01*
Y190066D01*
X373823Y190320D01*
X374077Y190574D01*
X374331D01*
X376617Y190320D02*
X377632D01*
X379664Y191082D02*
Y189558D01*
X380425D01*
X380679Y189812D01*
Y190066D01*
X380425Y190320D01*
X379664D01*
X380425D01*
X380679Y190574D01*
Y190828D01*
X380425Y191082D01*
X379664D01*
X381441Y189558D02*
X381949D01*
X382203Y189812D01*
Y190320D01*
X381949Y190574D01*
X381441D01*
X381187Y190320D01*
Y189812D01*
X381441Y189558D01*
X382964Y190828D02*
Y190574D01*
X382711D01*
X383218D01*
X382964D01*
Y189812D01*
X383218Y189558D01*
X384234Y190828D02*
Y190574D01*
X383980D01*
X384488D01*
X384234D01*
Y189812D01*
X384488Y189558D01*
X385504D02*
X386012D01*
X386265Y189812D01*
Y190320D01*
X386012Y190574D01*
X385504D01*
X385250Y190320D01*
Y189812D01*
X385504Y189558D01*
X386773D02*
Y190574D01*
X387027D01*
X387281Y190320D01*
Y189558D01*
Y190320D01*
X387535Y190574D01*
X387789Y190320D01*
Y189558D01*
X389820Y191082D02*
Y189558D01*
X390836D01*
X391598Y190574D02*
X392105D01*
X392359Y190320D01*
Y189558D01*
X391598D01*
X391344Y189812D01*
X391598Y190066D01*
X392359D01*
X392867Y190574D02*
Y189812D01*
X393121Y189558D01*
X393883D01*
Y189304D01*
X393629Y189051D01*
X393375D01*
X393883Y189558D02*
Y190574D01*
X395153Y189558D02*
X394645D01*
X394391Y189812D01*
Y190320D01*
X394645Y190574D01*
X395153D01*
X395406Y190320D01*
Y190066D01*
X394391D01*
X395914Y190574D02*
Y189558D01*
Y190066D01*
X396168Y190320D01*
X396422Y190574D01*
X396676D01*
X361381Y187272D02*
X362397D01*
X361889D01*
Y185748D01*
X363159D02*
X363667D01*
X363921Y186002D01*
Y186510D01*
X363667Y186764D01*
X363159D01*
X362905Y186510D01*
Y186002D01*
X363159Y185748D01*
X364428Y185241D02*
Y186764D01*
X365190D01*
X365444Y186510D01*
Y186002D01*
X365190Y185748D01*
X364428D01*
X367475Y187272D02*
Y185748D01*
X368491D01*
X369253Y186764D02*
X369761D01*
X370015Y186510D01*
Y185748D01*
X369253D01*
X368999Y186002D01*
X369253Y186256D01*
X370015D01*
X370522Y186764D02*
Y186002D01*
X370776Y185748D01*
X371538D01*
Y185494D01*
X371284Y185241D01*
X371030D01*
X371538Y185748D02*
Y186764D01*
X372808Y185748D02*
X372300D01*
X372046Y186002D01*
Y186510D01*
X372300Y186764D01*
X372808D01*
X373062Y186510D01*
Y186256D01*
X372046D01*
X373570Y186764D02*
Y185748D01*
Y186256D01*
X373823Y186510D01*
X374077Y186764D01*
X374331D01*
X376617Y186510D02*
X377632D01*
X379664Y187272D02*
Y185748D01*
X380425D01*
X380679Y186002D01*
Y186256D01*
X380425Y186510D01*
X379664D01*
X380425D01*
X380679Y186764D01*
Y187018D01*
X380425Y187272D01*
X379664D01*
X381441Y185748D02*
X381949D01*
X382203Y186002D01*
Y186510D01*
X381949Y186764D01*
X381441D01*
X381187Y186510D01*
Y186002D01*
X381441Y185748D01*
X382964Y187018D02*
Y186764D01*
X382711D01*
X383218D01*
X382964D01*
Y186002D01*
X383218Y185748D01*
X384234Y187018D02*
Y186764D01*
X383980D01*
X384488D01*
X384234D01*
Y186002D01*
X384488Y185748D01*
X385504D02*
X386012D01*
X386265Y186002D01*
Y186510D01*
X386012Y186764D01*
X385504D01*
X385250Y186510D01*
Y186002D01*
X385504Y185748D01*
X386773D02*
Y186764D01*
X387027D01*
X387281Y186510D01*
Y185748D01*
Y186510D01*
X387535Y186764D01*
X387789Y186510D01*
Y185748D01*
X389820Y187272D02*
Y185748D01*
X390836D01*
X391598Y186764D02*
X392105D01*
X392359Y186510D01*
Y185748D01*
X391598D01*
X391344Y186002D01*
X391598Y186256D01*
X392359D01*
X392867Y186764D02*
Y186002D01*
X393121Y185748D01*
X393883D01*
Y185494D01*
X393629Y185241D01*
X393375D01*
X393883Y185748D02*
Y186764D01*
X395153Y185748D02*
X394645D01*
X394391Y186002D01*
Y186510D01*
X394645Y186764D01*
X395153D01*
X395406Y186510D01*
Y186256D01*
X394391D01*
X395914Y186764D02*
Y185748D01*
Y186256D01*
X396168Y186510D01*
X396422Y186764D01*
X396676D01*
X361381Y183462D02*
X362397D01*
X361889D01*
Y181938D01*
X363159D02*
X363667D01*
X363921Y182192D01*
Y182700D01*
X363667Y182954D01*
X363159D01*
X362905Y182700D01*
Y182192D01*
X363159Y181938D01*
X364428Y181431D02*
Y182954D01*
X365190D01*
X365444Y182700D01*
Y182192D01*
X365190Y181938D01*
X364428D01*
X367475Y183462D02*
Y181938D01*
X368491D01*
X369253Y182954D02*
X369761D01*
X370015Y182700D01*
Y181938D01*
X369253D01*
X368999Y182192D01*
X369253Y182446D01*
X370015D01*
X370522Y182954D02*
Y182192D01*
X370776Y181938D01*
X371538D01*
Y181684D01*
X371284Y181431D01*
X371030D01*
X371538Y181938D02*
Y182954D01*
X372808Y181938D02*
X372300D01*
X372046Y182192D01*
Y182700D01*
X372300Y182954D01*
X372808D01*
X373062Y182700D01*
Y182446D01*
X372046D01*
X373570Y182954D02*
Y181938D01*
Y182446D01*
X373823Y182700D01*
X374077Y182954D01*
X374331D01*
X376617Y182700D02*
X377632D01*
X379664Y183462D02*
Y181938D01*
X380425D01*
X380679Y182192D01*
Y182446D01*
X380425Y182700D01*
X379664D01*
X380425D01*
X380679Y182954D01*
Y183208D01*
X380425Y183462D01*
X379664D01*
X381441Y181938D02*
X381949D01*
X382203Y182192D01*
Y182700D01*
X381949Y182954D01*
X381441D01*
X381187Y182700D01*
Y182192D01*
X381441Y181938D01*
X382964Y183208D02*
Y182954D01*
X382711D01*
X383218D01*
X382964D01*
Y182192D01*
X383218Y181938D01*
X384234Y183208D02*
Y182954D01*
X383980D01*
X384488D01*
X384234D01*
Y182192D01*
X384488Y181938D01*
X385504D02*
X386012D01*
X386265Y182192D01*
Y182700D01*
X386012Y182954D01*
X385504D01*
X385250Y182700D01*
Y182192D01*
X385504Y181938D01*
X386773D02*
Y182954D01*
X387027D01*
X387281Y182700D01*
Y181938D01*
Y182700D01*
X387535Y182954D01*
X387789Y182700D01*
Y181938D01*
X389820Y183462D02*
Y181938D01*
X390836D01*
X391598Y182954D02*
X392105D01*
X392359Y182700D01*
Y181938D01*
X391598D01*
X391344Y182192D01*
X391598Y182446D01*
X392359D01*
X392867Y182954D02*
Y182192D01*
X393121Y181938D01*
X393883D01*
Y181684D01*
X393629Y181431D01*
X393375D01*
X393883Y181938D02*
Y182954D01*
X395153Y181938D02*
X394645D01*
X394391Y182192D01*
Y182700D01*
X394645Y182954D01*
X395153D01*
X395406Y182700D01*
Y182446D01*
X394391D01*
X395914Y182954D02*
Y181938D01*
Y182446D01*
X396168Y182700D01*
X396422Y182954D01*
X396676D01*
X361381Y179652D02*
X362397D01*
X361889D01*
Y178128D01*
X363159D02*
X363667D01*
X363921Y178382D01*
Y178890D01*
X363667Y179144D01*
X363159D01*
X362905Y178890D01*
Y178382D01*
X363159Y178128D01*
X364428Y177621D02*
Y179144D01*
X365190D01*
X365444Y178890D01*
Y178382D01*
X365190Y178128D01*
X364428D01*
X367475Y179652D02*
Y178128D01*
X368491D01*
X369253Y179144D02*
X369761D01*
X370015Y178890D01*
Y178128D01*
X369253D01*
X368999Y178382D01*
X369253Y178636D01*
X370015D01*
X370522Y179144D02*
Y178382D01*
X370776Y178128D01*
X371538D01*
Y177874D01*
X371284Y177621D01*
X371030D01*
X371538Y178128D02*
Y179144D01*
X372808Y178128D02*
X372300D01*
X372046Y178382D01*
Y178890D01*
X372300Y179144D01*
X372808D01*
X373062Y178890D01*
Y178636D01*
X372046D01*
X373570Y179144D02*
Y178128D01*
Y178636D01*
X373823Y178890D01*
X374077Y179144D01*
X374331D01*
X376617Y178890D02*
X377632D01*
X379664Y179652D02*
Y178128D01*
X380425D01*
X380679Y178382D01*
Y178636D01*
X380425Y178890D01*
X379664D01*
X380425D01*
X380679Y179144D01*
Y179398D01*
X380425Y179652D01*
X379664D01*
X381441Y178128D02*
X381949D01*
X382203Y178382D01*
Y178890D01*
X381949Y179144D01*
X381441D01*
X381187Y178890D01*
Y178382D01*
X381441Y178128D01*
X382964Y179398D02*
Y179144D01*
X382711D01*
X383218D01*
X382964D01*
Y178382D01*
X383218Y178128D01*
X384234Y179398D02*
Y179144D01*
X383980D01*
X384488D01*
X384234D01*
Y178382D01*
X384488Y178128D01*
X385504D02*
X386012D01*
X386265Y178382D01*
Y178890D01*
X386012Y179144D01*
X385504D01*
X385250Y178890D01*
Y178382D01*
X385504Y178128D01*
X386773D02*
Y179144D01*
X387027D01*
X387281Y178890D01*
Y178128D01*
Y178890D01*
X387535Y179144D01*
X387789Y178890D01*
Y178128D01*
X389820Y179652D02*
Y178128D01*
X390836D01*
X391598Y179144D02*
X392105D01*
X392359Y178890D01*
Y178128D01*
X391598D01*
X391344Y178382D01*
X391598Y178636D01*
X392359D01*
X392867Y179144D02*
Y178382D01*
X393121Y178128D01*
X393883D01*
Y177874D01*
X393629Y177621D01*
X393375D01*
X393883Y178128D02*
Y179144D01*
X395153Y178128D02*
X394645D01*
X394391Y178382D01*
Y178890D01*
X394645Y179144D01*
X395153D01*
X395406Y178890D01*
Y178636D01*
X394391D01*
X395914Y179144D02*
Y178128D01*
Y178636D01*
X396168Y178890D01*
X396422Y179144D01*
X396676D01*
X361381Y175842D02*
X362397D01*
X361889D01*
Y174318D01*
X363159D02*
X363667D01*
X363921Y174572D01*
Y175080D01*
X363667Y175334D01*
X363159D01*
X362905Y175080D01*
Y174572D01*
X363159Y174318D01*
X364428Y173811D02*
Y175334D01*
X365190D01*
X365444Y175080D01*
Y174572D01*
X365190Y174318D01*
X364428D01*
X367475Y175842D02*
Y174318D01*
X368491D01*
X369253Y175334D02*
X369761D01*
X370015Y175080D01*
Y174318D01*
X369253D01*
X368999Y174572D01*
X369253Y174826D01*
X370015D01*
X370522Y175334D02*
Y174572D01*
X370776Y174318D01*
X371538D01*
Y174064D01*
X371284Y173811D01*
X371030D01*
X371538Y174318D02*
Y175334D01*
X372808Y174318D02*
X372300D01*
X372046Y174572D01*
Y175080D01*
X372300Y175334D01*
X372808D01*
X373062Y175080D01*
Y174826D01*
X372046D01*
X373570Y175334D02*
Y174318D01*
Y174826D01*
X373823Y175080D01*
X374077Y175334D01*
X374331D01*
X376617Y175080D02*
X377632D01*
X379664Y175842D02*
Y174318D01*
X380425D01*
X380679Y174572D01*
Y174826D01*
X380425Y175080D01*
X379664D01*
X380425D01*
X380679Y175334D01*
Y175588D01*
X380425Y175842D01*
X379664D01*
X381441Y174318D02*
X381949D01*
X382203Y174572D01*
Y175080D01*
X381949Y175334D01*
X381441D01*
X381187Y175080D01*
Y174572D01*
X381441Y174318D01*
X382964Y175588D02*
Y175334D01*
X382711D01*
X383218D01*
X382964D01*
Y174572D01*
X383218Y174318D01*
X384234Y175588D02*
Y175334D01*
X383980D01*
X384488D01*
X384234D01*
Y174572D01*
X384488Y174318D01*
X385504D02*
X386012D01*
X386265Y174572D01*
Y175080D01*
X386012Y175334D01*
X385504D01*
X385250Y175080D01*
Y174572D01*
X385504Y174318D01*
X386773D02*
Y175334D01*
X387027D01*
X387281Y175080D01*
Y174318D01*
Y175080D01*
X387535Y175334D01*
X387789Y175080D01*
Y174318D01*
X389820Y175842D02*
Y174318D01*
X390836D01*
X391598Y175334D02*
X392105D01*
X392359Y175080D01*
Y174318D01*
X391598D01*
X391344Y174572D01*
X391598Y174826D01*
X392359D01*
X392867Y175334D02*
Y174572D01*
X393121Y174318D01*
X393883D01*
Y174064D01*
X393629Y173811D01*
X393375D01*
X393883Y174318D02*
Y175334D01*
X395153Y174318D02*
X394645D01*
X394391Y174572D01*
Y175080D01*
X394645Y175334D01*
X395153D01*
X395406Y175080D01*
Y174826D01*
X394391D01*
X395914Y175334D02*
Y174318D01*
Y174826D01*
X396168Y175080D01*
X396422Y175334D01*
X396676D01*
X361381Y172032D02*
X362397D01*
X361889D01*
Y170508D01*
X363159D02*
X363667D01*
X363921Y170762D01*
Y171270D01*
X363667Y171524D01*
X363159D01*
X362905Y171270D01*
Y170762D01*
X363159Y170508D01*
X364428Y170001D02*
Y171524D01*
X365190D01*
X365444Y171270D01*
Y170762D01*
X365190Y170508D01*
X364428D01*
X367475Y172032D02*
Y170508D01*
X368491D01*
X369253Y171524D02*
X369761D01*
X370015Y171270D01*
Y170508D01*
X369253D01*
X368999Y170762D01*
X369253Y171016D01*
X370015D01*
X370522Y171524D02*
Y170762D01*
X370776Y170508D01*
X371538D01*
Y170254D01*
X371284Y170001D01*
X371030D01*
X371538Y170508D02*
Y171524D01*
X372808Y170508D02*
X372300D01*
X372046Y170762D01*
Y171270D01*
X372300Y171524D01*
X372808D01*
X373062Y171270D01*
Y171016D01*
X372046D01*
X373570Y171524D02*
Y170508D01*
Y171016D01*
X373823Y171270D01*
X374077Y171524D01*
X374331D01*
X376617Y171270D02*
X377632D01*
X379664Y172032D02*
Y170508D01*
X380425D01*
X380679Y170762D01*
Y171016D01*
X380425Y171270D01*
X379664D01*
X380425D01*
X380679Y171524D01*
Y171778D01*
X380425Y172032D01*
X379664D01*
X381441Y170508D02*
X381949D01*
X382203Y170762D01*
Y171270D01*
X381949Y171524D01*
X381441D01*
X381187Y171270D01*
Y170762D01*
X381441Y170508D01*
X382964Y171778D02*
Y171524D01*
X382711D01*
X383218D01*
X382964D01*
Y170762D01*
X383218Y170508D01*
X384234Y171778D02*
Y171524D01*
X383980D01*
X384488D01*
X384234D01*
Y170762D01*
X384488Y170508D01*
X385504D02*
X386012D01*
X386265Y170762D01*
Y171270D01*
X386012Y171524D01*
X385504D01*
X385250Y171270D01*
Y170762D01*
X385504Y170508D01*
X386773D02*
Y171524D01*
X387027D01*
X387281Y171270D01*
Y170508D01*
Y171270D01*
X387535Y171524D01*
X387789Y171270D01*
Y170508D01*
X389820Y172032D02*
Y170508D01*
X390836D01*
X391598Y171524D02*
X392105D01*
X392359Y171270D01*
Y170508D01*
X391598D01*
X391344Y170762D01*
X391598Y171016D01*
X392359D01*
X392867Y171524D02*
Y170762D01*
X393121Y170508D01*
X393883D01*
Y170254D01*
X393629Y170001D01*
X393375D01*
X393883Y170508D02*
Y171524D01*
X395153Y170508D02*
X394645D01*
X394391Y170762D01*
Y171270D01*
X394645Y171524D01*
X395153D01*
X395406Y171270D01*
Y171016D01*
X394391D01*
X395914Y171524D02*
Y170508D01*
Y171016D01*
X396168Y171270D01*
X396422Y171524D01*
X396676D01*
X342436Y200988D02*
Y202512D01*
X343197D01*
X343451Y202258D01*
Y201750D01*
X343197Y201496D01*
X342436D01*
X342944D02*
X343451Y200988D01*
X344213D02*
X344721D01*
X344975Y201242D01*
Y201750D01*
X344721Y202004D01*
X344213D01*
X343959Y201750D01*
Y201242D01*
X344213Y200988D01*
X345483Y202004D02*
Y201242D01*
X345737Y200988D01*
X346498D01*
Y202004D01*
X347006Y200988D02*
Y202004D01*
X347768D01*
X348022Y201750D01*
Y200988D01*
X349545Y202512D02*
Y200988D01*
X348784D01*
X348530Y201242D01*
Y201750D01*
X348784Y202004D01*
X349545D01*
X342436Y197178D02*
Y198702D01*
X343197D01*
X343451Y198448D01*
Y197940D01*
X343197Y197686D01*
X342436D01*
X342944D02*
X343451Y197178D01*
X344213D02*
X344721D01*
X344975Y197432D01*
Y197940D01*
X344721Y198194D01*
X344213D01*
X343959Y197940D01*
Y197432D01*
X344213Y197178D01*
X345483Y198194D02*
Y197432D01*
X345737Y197178D01*
X346498D01*
Y198194D01*
X347006Y197178D02*
Y198194D01*
X347768D01*
X348022Y197940D01*
Y197178D01*
X349545Y198702D02*
Y197178D01*
X348784D01*
X348530Y197432D01*
Y197940D01*
X348784Y198194D01*
X349545D01*
X342436Y193368D02*
Y194892D01*
X343197D01*
X343451Y194638D01*
Y194130D01*
X343197Y193876D01*
X342436D01*
X342944D02*
X343451Y193368D01*
X344213D02*
X344721D01*
X344975Y193622D01*
Y194130D01*
X344721Y194384D01*
X344213D01*
X343959Y194130D01*
Y193622D01*
X344213Y193368D01*
X345483Y194384D02*
Y193622D01*
X345737Y193368D01*
X346498D01*
Y194384D01*
X347006Y193368D02*
Y194384D01*
X347768D01*
X348022Y194130D01*
Y193368D01*
X349545Y194892D02*
Y193368D01*
X348784D01*
X348530Y193622D01*
Y194130D01*
X348784Y194384D01*
X349545D01*
X342436Y189558D02*
Y191082D01*
X343197D01*
X343451Y190828D01*
Y190320D01*
X343197Y190066D01*
X342436D01*
X342944D02*
X343451Y189558D01*
X344213D02*
X344721D01*
X344975Y189812D01*
Y190320D01*
X344721Y190574D01*
X344213D01*
X343959Y190320D01*
Y189812D01*
X344213Y189558D01*
X345483Y190574D02*
Y189812D01*
X345737Y189558D01*
X346498D01*
Y190574D01*
X347006Y189558D02*
Y190574D01*
X347768D01*
X348022Y190320D01*
Y189558D01*
X349545Y191082D02*
Y189558D01*
X348784D01*
X348530Y189812D01*
Y190320D01*
X348784Y190574D01*
X349545D01*
X342436Y185748D02*
Y187272D01*
X343197D01*
X343451Y187018D01*
Y186510D01*
X343197Y186256D01*
X342436D01*
X342944D02*
X343451Y185748D01*
X344213D02*
X344721D01*
X344975Y186002D01*
Y186510D01*
X344721Y186764D01*
X344213D01*
X343959Y186510D01*
Y186002D01*
X344213Y185748D01*
X345483Y186764D02*
Y186002D01*
X345737Y185748D01*
X346498D01*
Y186764D01*
X347006Y185748D02*
Y186764D01*
X347768D01*
X348022Y186510D01*
Y185748D01*
X349545Y187272D02*
Y185748D01*
X348784D01*
X348530Y186002D01*
Y186510D01*
X348784Y186764D01*
X349545D01*
X342436Y181938D02*
Y183462D01*
X343197D01*
X343451Y183208D01*
Y182700D01*
X343197Y182446D01*
X342436D01*
X342944D02*
X343451Y181938D01*
X344213D02*
X344721D01*
X344975Y182192D01*
Y182700D01*
X344721Y182954D01*
X344213D01*
X343959Y182700D01*
Y182192D01*
X344213Y181938D01*
X345483Y182954D02*
Y182192D01*
X345737Y181938D01*
X346498D01*
Y182954D01*
X347006Y181938D02*
Y182954D01*
X347768D01*
X348022Y182700D01*
Y181938D01*
X349545Y183462D02*
Y181938D01*
X348784D01*
X348530Y182192D01*
Y182700D01*
X348784Y182954D01*
X349545D01*
X342436Y178128D02*
Y179652D01*
X343197D01*
X343451Y179398D01*
Y178890D01*
X343197Y178636D01*
X342436D01*
X342944D02*
X343451Y178128D01*
X344213D02*
X344721D01*
X344975Y178382D01*
Y178890D01*
X344721Y179144D01*
X344213D01*
X343959Y178890D01*
Y178382D01*
X344213Y178128D01*
X345483Y179144D02*
Y178382D01*
X345737Y178128D01*
X346498D01*
Y179144D01*
X347006Y178128D02*
Y179144D01*
X347768D01*
X348022Y178890D01*
Y178128D01*
X349545Y179652D02*
Y178128D01*
X348784D01*
X348530Y178382D01*
Y178890D01*
X348784Y179144D01*
X349545D01*
X342436Y174318D02*
Y175842D01*
X343197D01*
X343451Y175588D01*
Y175080D01*
X343197Y174826D01*
X342436D01*
X342944D02*
X343451Y174318D01*
X344213D02*
X344721D01*
X344975Y174572D01*
Y175080D01*
X344721Y175334D01*
X344213D01*
X343959Y175080D01*
Y174572D01*
X344213Y174318D01*
X345483Y175334D02*
Y174572D01*
X345737Y174318D01*
X346498D01*
Y175334D01*
X347006Y174318D02*
Y175334D01*
X347768D01*
X348022Y175080D01*
Y174318D01*
X349545Y175842D02*
Y174318D01*
X348784D01*
X348530Y174572D01*
Y175080D01*
X348784Y175334D01*
X349545D01*
X343451Y171778D02*
X343197Y172032D01*
X342690D01*
X342436Y171778D01*
Y171524D01*
X342690Y171270D01*
X343197D01*
X343451Y171016D01*
Y170762D01*
X343197Y170508D01*
X342690D01*
X342436Y170762D01*
X343959Y170508D02*
X344467D01*
X344213D01*
Y172032D01*
X343959D01*
X345483Y170508D02*
X345991D01*
X346244Y170762D01*
Y171270D01*
X345991Y171524D01*
X345483D01*
X345229Y171270D01*
Y170762D01*
X345483Y170508D01*
X347006Y171778D02*
Y171524D01*
X346752D01*
X347260D01*
X347006D01*
Y170762D01*
X347260Y170508D01*
X329279Y200988D02*
Y202512D01*
X330041D01*
X330295Y202258D01*
Y201750D01*
X330041Y201496D01*
X329279D01*
X330803Y202512D02*
X331818D01*
X331311D01*
Y200988D01*
X332326Y202512D02*
Y200988D01*
Y201750D01*
X333342D01*
Y202512D01*
Y200988D01*
X329279Y197178D02*
Y198702D01*
X330041D01*
X330295Y198448D01*
Y197940D01*
X330041Y197686D01*
X329279D01*
X330803Y198702D02*
X331818D01*
X331311D01*
Y197178D01*
X332326Y198702D02*
Y197178D01*
Y197940D01*
X333342D01*
Y198702D01*
Y197178D01*
X329279Y193368D02*
Y194892D01*
X330041D01*
X330295Y194638D01*
Y194130D01*
X330041Y193876D01*
X329279D01*
X330803Y194892D02*
X331818D01*
X331311D01*
Y193368D01*
X332326Y194892D02*
Y193368D01*
Y194130D01*
X333342D01*
Y194892D01*
Y193368D01*
X329279Y189558D02*
Y191082D01*
X330041D01*
X330295Y190828D01*
Y190320D01*
X330041Y190066D01*
X329279D01*
X330803Y191082D02*
X331818D01*
X331311D01*
Y189558D01*
X332326Y191082D02*
Y189558D01*
Y190320D01*
X333342D01*
Y191082D01*
Y189558D01*
X329279Y185748D02*
Y187272D01*
X330041D01*
X330295Y187018D01*
Y186510D01*
X330041Y186256D01*
X329279D01*
X330803Y187272D02*
X331818D01*
X331311D01*
Y185748D01*
X332326Y187272D02*
Y185748D01*
Y186510D01*
X333342D01*
Y187272D01*
Y185748D01*
X329279Y181938D02*
Y183462D01*
X330041D01*
X330295Y183208D01*
Y182700D01*
X330041Y182446D01*
X329279D01*
X330803Y183462D02*
X331818D01*
X331311D01*
Y181938D01*
X332326Y183462D02*
Y181938D01*
Y182700D01*
X333342D01*
Y183462D01*
Y181938D01*
X329279Y178128D02*
Y179652D01*
X330295Y178128D01*
Y179652D01*
X330803Y178128D02*
Y179652D01*
X331565D01*
X331818Y179398D01*
Y178890D01*
X331565Y178636D01*
X330803D01*
X332326Y179652D02*
X333342D01*
X332834D01*
Y178128D01*
X333850Y179652D02*
Y178128D01*
Y178890D01*
X334865D01*
Y179652D01*
Y178128D01*
X329279Y174318D02*
Y175842D01*
X330295Y174318D01*
Y175842D01*
X330803Y174318D02*
Y175842D01*
X331565D01*
X331818Y175588D01*
Y175080D01*
X331565Y174826D01*
X330803D01*
X332326Y175842D02*
X333342D01*
X332834D01*
Y174318D01*
X333850Y175842D02*
Y174318D01*
Y175080D01*
X334865D01*
Y175842D01*
Y174318D01*
X329279Y170508D02*
Y172032D01*
X330041D01*
X330295Y171778D01*
Y171270D01*
X330041Y171016D01*
X329279D01*
X330803Y172032D02*
X331818D01*
X331311D01*
Y170508D01*
X332326Y172032D02*
Y170508D01*
Y171270D01*
X333342D01*
Y172032D01*
Y170508D01*
X299886Y202258D02*
X300140Y202512D01*
X300648D01*
X300901Y202258D01*
Y201242D01*
X300648Y200988D01*
X300140D01*
X299886Y201242D01*
Y202258D01*
X301409Y200988D02*
Y201242D01*
X301663D01*
Y200988D01*
X301409D01*
X303695D02*
X302679D01*
X303695Y202004D01*
Y202258D01*
X303441Y202512D01*
X302933D01*
X302679Y202258D01*
X305218Y202512D02*
X304202D01*
Y201750D01*
X304710Y202004D01*
X304964D01*
X305218Y201750D01*
Y201242D01*
X304964Y200988D01*
X304456D01*
X304202Y201242D01*
X306488Y200988D02*
Y202512D01*
X305726Y201750D01*
X306742D01*
X307249Y200988D02*
Y202004D01*
X307503D01*
X307757Y201750D01*
Y200988D01*
Y201750D01*
X308011Y202004D01*
X308265Y201750D01*
Y200988D01*
X308773D02*
Y202004D01*
X309027D01*
X309281Y201750D01*
Y200988D01*
Y201750D01*
X309535Y202004D01*
X309789Y201750D01*
Y200988D01*
X312328D02*
X311820Y201496D01*
Y202004D01*
X312328Y202512D01*
X313090Y200988D02*
X313597D01*
X313343D01*
Y202512D01*
X313090Y202258D01*
X314359D02*
X314613Y202512D01*
X315121D01*
X315375Y202258D01*
Y201242D01*
X315121Y200988D01*
X314613D01*
X314359Y201242D01*
Y202258D01*
X315883Y200988D02*
Y201242D01*
X316137D01*
Y200988D01*
X315883D01*
X317152Y202258D02*
X317406Y202512D01*
X317914D01*
X318168Y202258D01*
Y201242D01*
X317914Y200988D01*
X317406D01*
X317152Y201242D01*
Y202258D01*
X318676D02*
X318930Y202512D01*
X319437D01*
X319691Y202258D01*
Y201242D01*
X319437Y200988D01*
X318930D01*
X318676Y201242D01*
Y202258D01*
X320199Y200988D02*
Y202004D01*
X320453D01*
X320707Y201750D01*
Y200988D01*
Y201750D01*
X320961Y202004D01*
X321215Y201750D01*
Y200988D01*
X321723D02*
X322231D01*
X321977D01*
Y202004D01*
X321723D01*
X322992Y200988D02*
X323500D01*
X323246D01*
Y202512D01*
X322992D01*
X324262Y200988D02*
X324770Y201496D01*
Y202004D01*
X324262Y202512D01*
X299886Y198448D02*
X300140Y198702D01*
X300648D01*
X300901Y198448D01*
Y197432D01*
X300648Y197178D01*
X300140D01*
X299886Y197432D01*
Y198448D01*
X301409Y197178D02*
Y197432D01*
X301663D01*
Y197178D01*
X301409D01*
X302679Y198702D02*
X303695D01*
Y198448D01*
X302679Y197432D01*
Y197178D01*
X304202Y198702D02*
X305218D01*
Y198448D01*
X304202Y197432D01*
Y197178D01*
X305726Y198448D02*
X305980Y198702D01*
X306488D01*
X306742Y198448D01*
Y197432D01*
X306488Y197178D01*
X305980D01*
X305726Y197432D01*
Y198448D01*
X307249Y197178D02*
Y198194D01*
X307503D01*
X307757Y197940D01*
Y197178D01*
Y197940D01*
X308011Y198194D01*
X308265Y197940D01*
Y197178D01*
X308773D02*
Y198194D01*
X309027D01*
X309281Y197940D01*
Y197178D01*
Y197940D01*
X309535Y198194D01*
X309789Y197940D01*
Y197178D01*
X312328D02*
X311820Y197686D01*
Y198194D01*
X312328Y198702D01*
X313090Y198448D02*
X313343Y198702D01*
X313851D01*
X314105Y198448D01*
Y198194D01*
X313851Y197940D01*
X313597D01*
X313851D01*
X314105Y197686D01*
Y197432D01*
X313851Y197178D01*
X313343D01*
X313090Y197432D01*
X314613Y198448D02*
X314867Y198702D01*
X315375D01*
X315629Y198448D01*
Y197432D01*
X315375Y197178D01*
X314867D01*
X314613Y197432D01*
Y198448D01*
X316137Y197178D02*
Y197432D01*
X316390D01*
Y197178D01*
X316137D01*
X317406Y198448D02*
X317660Y198702D01*
X318168D01*
X318422Y198448D01*
Y198194D01*
X318168Y197940D01*
X317914D01*
X318168D01*
X318422Y197686D01*
Y197432D01*
X318168Y197178D01*
X317660D01*
X317406Y197432D01*
X319945Y197178D02*
X318930D01*
X319945Y198194D01*
Y198448D01*
X319691Y198702D01*
X319184D01*
X318930Y198448D01*
X320453Y197178D02*
Y198194D01*
X320707D01*
X320961Y197940D01*
Y197178D01*
Y197940D01*
X321215Y198194D01*
X321469Y197940D01*
Y197178D01*
X321977D02*
X322484D01*
X322231D01*
Y198194D01*
X321977D01*
X323246Y197178D02*
X323754D01*
X323500D01*
Y198702D01*
X323246D01*
X324516Y197178D02*
X325024Y197686D01*
Y198194D01*
X324516Y198702D01*
X299886Y194638D02*
X300140Y194892D01*
X300648D01*
X300901Y194638D01*
Y193622D01*
X300648Y193368D01*
X300140D01*
X299886Y193622D01*
Y194638D01*
X301409Y193368D02*
Y193622D01*
X301663D01*
Y193368D01*
X301409D01*
X302679Y194638D02*
X302933Y194892D01*
X303441D01*
X303695Y194638D01*
Y194384D01*
X303441Y194130D01*
X303695Y193876D01*
Y193622D01*
X303441Y193368D01*
X302933D01*
X302679Y193622D01*
Y193876D01*
X302933Y194130D01*
X302679Y194384D01*
Y194638D01*
X302933Y194130D02*
X303441D01*
X305218Y194892D02*
X304202D01*
Y194130D01*
X304710Y194384D01*
X304964D01*
X305218Y194130D01*
Y193622D01*
X304964Y193368D01*
X304456D01*
X304202Y193622D01*
X305726Y194638D02*
X305980Y194892D01*
X306488D01*
X306742Y194638D01*
Y193622D01*
X306488Y193368D01*
X305980D01*
X305726Y193622D01*
Y194638D01*
X307249Y193368D02*
Y194384D01*
X307503D01*
X307757Y194130D01*
Y193368D01*
Y194130D01*
X308011Y194384D01*
X308265Y194130D01*
Y193368D01*
X308773D02*
Y194384D01*
X309027D01*
X309281Y194130D01*
Y193368D01*
Y194130D01*
X309535Y194384D01*
X309789Y194130D01*
Y193368D01*
X312328D02*
X311820Y193876D01*
Y194384D01*
X312328Y194892D01*
X313090Y194638D02*
X313343Y194892D01*
X313851D01*
X314105Y194638D01*
Y194384D01*
X313851Y194130D01*
X313597D01*
X313851D01*
X314105Y193876D01*
Y193622D01*
X313851Y193368D01*
X313343D01*
X313090Y193622D01*
X314613Y194638D02*
X314867Y194892D01*
X315375D01*
X315629Y194638D01*
Y194384D01*
X315375Y194130D01*
X315121D01*
X315375D01*
X315629Y193876D01*
Y193622D01*
X315375Y193368D01*
X314867D01*
X314613Y193622D01*
X316137Y193368D02*
Y193622D01*
X316390D01*
Y193368D01*
X316137D01*
X318168D02*
Y194892D01*
X317406Y194130D01*
X318422D01*
X318930Y194892D02*
X319945D01*
Y194638D01*
X318930Y193622D01*
Y193368D01*
X320453D02*
Y194384D01*
X320707D01*
X320961Y194130D01*
Y193368D01*
Y194130D01*
X321215Y194384D01*
X321469Y194130D01*
Y193368D01*
X321977D02*
X322484D01*
X322231D01*
Y194384D01*
X321977D01*
X323246Y193368D02*
X323754D01*
X323500D01*
Y194892D01*
X323246D01*
X324516Y193368D02*
X325024Y193876D01*
Y194384D01*
X324516Y194892D01*
X299886Y190828D02*
X300140Y191082D01*
X300648D01*
X300901Y190828D01*
Y189812D01*
X300648Y189558D01*
X300140D01*
X299886Y189812D01*
Y190828D01*
X301409Y189558D02*
Y189812D01*
X301663D01*
Y189558D01*
X301409D01*
X302679Y189812D02*
X302933Y189558D01*
X303441D01*
X303695Y189812D01*
Y190828D01*
X303441Y191082D01*
X302933D01*
X302679Y190828D01*
Y190574D01*
X302933Y190320D01*
X303695D01*
X304202Y190828D02*
X304456Y191082D01*
X304964D01*
X305218Y190828D01*
Y189812D01*
X304964Y189558D01*
X304456D01*
X304202Y189812D01*
Y190828D01*
X305726D02*
X305980Y191082D01*
X306488D01*
X306742Y190828D01*
Y189812D01*
X306488Y189558D01*
X305980D01*
X305726Y189812D01*
Y190828D01*
X307249Y189558D02*
Y190574D01*
X307503D01*
X307757Y190320D01*
Y189558D01*
Y190320D01*
X308011Y190574D01*
X308265Y190320D01*
Y189558D01*
X308773D02*
Y190574D01*
X309027D01*
X309281Y190320D01*
Y189558D01*
Y190320D01*
X309535Y190574D01*
X309789Y190320D01*
Y189558D01*
X312328D02*
X311820Y190066D01*
Y190574D01*
X312328Y191082D01*
X313090Y190828D02*
X313343Y191082D01*
X313851D01*
X314105Y190828D01*
Y190574D01*
X313851Y190320D01*
X313597D01*
X313851D01*
X314105Y190066D01*
Y189812D01*
X313851Y189558D01*
X313343D01*
X313090Y189812D01*
X315629Y191082D02*
X314613D01*
Y190320D01*
X315121Y190574D01*
X315375D01*
X315629Y190320D01*
Y189812D01*
X315375Y189558D01*
X314867D01*
X314613Y189812D01*
X316137Y189558D02*
Y189812D01*
X316390D01*
Y189558D01*
X316137D01*
X318168D02*
Y191082D01*
X317406Y190320D01*
X318422D01*
X318930Y190828D02*
X319184Y191082D01*
X319691D01*
X319945Y190828D01*
Y190574D01*
X319691Y190320D01*
X319437D01*
X319691D01*
X319945Y190066D01*
Y189812D01*
X319691Y189558D01*
X319184D01*
X318930Y189812D01*
X320453Y189558D02*
Y190574D01*
X320707D01*
X320961Y190320D01*
Y189558D01*
Y190320D01*
X321215Y190574D01*
X321469Y190320D01*
Y189558D01*
X321977D02*
X322484D01*
X322231D01*
Y190574D01*
X321977D01*
X323246Y189558D02*
X323754D01*
X323500D01*
Y191082D01*
X323246D01*
X324516Y189558D02*
X325024Y190066D01*
Y190574D01*
X324516Y191082D01*
X299886Y185748D02*
X300394D01*
X300140D01*
Y187272D01*
X299886Y187018D01*
X301155Y185748D02*
Y186002D01*
X301409D01*
Y185748D01*
X301155D01*
X302425Y187018D02*
X302679Y187272D01*
X303187D01*
X303441Y187018D01*
Y186002D01*
X303187Y185748D01*
X302679D01*
X302425Y186002D01*
Y187018D01*
X303948D02*
X304202Y187272D01*
X304710D01*
X304964Y187018D01*
Y186002D01*
X304710Y185748D01*
X304202D01*
X303948Y186002D01*
Y187018D01*
X305472D02*
X305726Y187272D01*
X306234D01*
X306488Y187018D01*
Y186002D01*
X306234Y185748D01*
X305726D01*
X305472Y186002D01*
Y187018D01*
X306995Y185748D02*
Y186764D01*
X307249D01*
X307503Y186510D01*
Y185748D01*
Y186510D01*
X307757Y186764D01*
X308011Y186510D01*
Y185748D01*
X308519D02*
Y186764D01*
X308773D01*
X309027Y186510D01*
Y185748D01*
Y186510D01*
X309281Y186764D01*
X309535Y186510D01*
Y185748D01*
X312074D02*
X311566Y186256D01*
Y186764D01*
X312074Y187272D01*
X312836Y187018D02*
X313090Y187272D01*
X313597D01*
X313851Y187018D01*
Y186764D01*
X313597Y186510D01*
X313343D01*
X313597D01*
X313851Y186256D01*
Y186002D01*
X313597Y185748D01*
X313090D01*
X312836Y186002D01*
X314359D02*
X314613Y185748D01*
X315121D01*
X315375Y186002D01*
Y187018D01*
X315121Y187272D01*
X314613D01*
X314359Y187018D01*
Y186764D01*
X314613Y186510D01*
X315375D01*
X315883Y185748D02*
Y186002D01*
X316137D01*
Y185748D01*
X315883D01*
X317152Y187018D02*
X317406Y187272D01*
X317914D01*
X318168Y187018D01*
Y186764D01*
X317914Y186510D01*
X317660D01*
X317914D01*
X318168Y186256D01*
Y186002D01*
X317914Y185748D01*
X317406D01*
X317152Y186002D01*
X318676Y187272D02*
X319691D01*
Y187018D01*
X318676Y186002D01*
Y185748D01*
X320199D02*
Y186764D01*
X320453D01*
X320707Y186510D01*
Y185748D01*
Y186510D01*
X320961Y186764D01*
X321215Y186510D01*
Y185748D01*
X321723D02*
X322231D01*
X321977D01*
Y186764D01*
X321723D01*
X322992Y185748D02*
X323500D01*
X323246D01*
Y187272D01*
X322992D01*
X324262Y185748D02*
X324770Y186256D01*
Y186764D01*
X324262Y187272D01*
X299886Y181938D02*
X300394D01*
X300140D01*
Y183462D01*
X299886Y183208D01*
X301155Y181938D02*
Y182192D01*
X301409D01*
Y181938D01*
X301155D01*
X303441Y183462D02*
X302425D01*
Y182700D01*
X302933Y182954D01*
X303187D01*
X303441Y182700D01*
Y182192D01*
X303187Y181938D01*
X302679D01*
X302425Y182192D01*
X304964Y181938D02*
X303948D01*
X304964Y182954D01*
Y183208D01*
X304710Y183462D01*
X304202D01*
X303948Y183208D01*
X306234Y181938D02*
Y183462D01*
X305472Y182700D01*
X306488D01*
X306995Y181938D02*
Y182954D01*
X307249D01*
X307503Y182700D01*
Y181938D01*
Y182700D01*
X307757Y182954D01*
X308011Y182700D01*
Y181938D01*
X308519D02*
Y182954D01*
X308773D01*
X309027Y182700D01*
Y181938D01*
Y182700D01*
X309281Y182954D01*
X309535Y182700D01*
Y181938D01*
X312074D02*
X311566Y182446D01*
Y182954D01*
X312074Y183462D01*
X313851D02*
X313343Y183208D01*
X312836Y182700D01*
Y182192D01*
X313090Y181938D01*
X313597D01*
X313851Y182192D01*
Y182446D01*
X313597Y182700D01*
X312836D01*
X314359Y183208D02*
X314613Y183462D01*
X315121D01*
X315375Y183208D01*
Y182192D01*
X315121Y181938D01*
X314613D01*
X314359Y182192D01*
Y183208D01*
X315883Y181938D02*
Y182192D01*
X316137D01*
Y181938D01*
X315883D01*
X317152Y183208D02*
X317406Y183462D01*
X317914D01*
X318168Y183208D01*
Y182192D01*
X317914Y181938D01*
X317406D01*
X317152Y182192D01*
Y183208D01*
X318676D02*
X318930Y183462D01*
X319437D01*
X319691Y183208D01*
Y182192D01*
X319437Y181938D01*
X318930D01*
X318676Y182192D01*
Y183208D01*
X320199Y181938D02*
Y182954D01*
X320453D01*
X320707Y182700D01*
Y181938D01*
Y182700D01*
X320961Y182954D01*
X321215Y182700D01*
Y181938D01*
X321723D02*
X322231D01*
X321977D01*
Y182954D01*
X321723D01*
X322992Y181938D02*
X323500D01*
X323246D01*
Y183462D01*
X322992D01*
X324262Y181938D02*
X324770Y182446D01*
Y182954D01*
X324262Y183462D01*
X299886Y178128D02*
X300394D01*
X300140D01*
Y179652D01*
X299886Y179398D01*
X301155Y178128D02*
Y178382D01*
X301409D01*
Y178128D01*
X301155D01*
X302425Y179652D02*
X303441D01*
Y179398D01*
X302425Y178382D01*
Y178128D01*
X303948Y179398D02*
X304202Y179652D01*
X304710D01*
X304964Y179398D01*
Y178382D01*
X304710Y178128D01*
X304202D01*
X303948Y178382D01*
Y179398D01*
X305472D02*
X305726Y179652D01*
X306234D01*
X306488Y179398D01*
Y178382D01*
X306234Y178128D01*
X305726D01*
X305472Y178382D01*
Y179398D01*
X306995Y178128D02*
Y179144D01*
X307249D01*
X307503Y178890D01*
Y178128D01*
Y178890D01*
X307757Y179144D01*
X308011Y178890D01*
Y178128D01*
X308519D02*
Y179144D01*
X308773D01*
X309027Y178890D01*
Y178128D01*
Y178890D01*
X309281Y179144D01*
X309535Y178890D01*
Y178128D01*
X312074D02*
X311566Y178636D01*
Y179144D01*
X312074Y179652D01*
X313851D02*
X313343Y179398D01*
X312836Y178890D01*
Y178382D01*
X313090Y178128D01*
X313597D01*
X313851Y178382D01*
Y178636D01*
X313597Y178890D01*
X312836D01*
X315375Y179652D02*
X314867Y179398D01*
X314359Y178890D01*
Y178382D01*
X314613Y178128D01*
X315121D01*
X315375Y178382D01*
Y178636D01*
X315121Y178890D01*
X314359D01*
X315883Y178128D02*
Y178382D01*
X316137D01*
Y178128D01*
X315883D01*
X317152Y178382D02*
X317406Y178128D01*
X317914D01*
X318168Y178382D01*
Y179398D01*
X317914Y179652D01*
X317406D01*
X317152Y179398D01*
Y179144D01*
X317406Y178890D01*
X318168D01*
X318676Y179398D02*
X318930Y179652D01*
X319437D01*
X319691Y179398D01*
Y179144D01*
X319437Y178890D01*
X319184D01*
X319437D01*
X319691Y178636D01*
Y178382D01*
X319437Y178128D01*
X318930D01*
X318676Y178382D01*
X320199Y178128D02*
Y179144D01*
X320453D01*
X320707Y178890D01*
Y178128D01*
Y178890D01*
X320961Y179144D01*
X321215Y178890D01*
Y178128D01*
X321723D02*
X322231D01*
X321977D01*
Y179144D01*
X321723D01*
X322992Y178128D02*
X323500D01*
X323246D01*
Y179652D01*
X322992D01*
X324262Y178128D02*
X324770Y178636D01*
Y179144D01*
X324262Y179652D01*
X300648Y174318D02*
Y175842D01*
X299886Y175080D01*
X300901D01*
X301409Y174318D02*
Y174572D01*
X301663D01*
Y174318D01*
X301409D01*
X302679Y175588D02*
X302933Y175842D01*
X303441D01*
X303695Y175588D01*
Y174572D01*
X303441Y174318D01*
X302933D01*
X302679Y174572D01*
Y175588D01*
X304202D02*
X304456Y175842D01*
X304964D01*
X305218Y175588D01*
Y174572D01*
X304964Y174318D01*
X304456D01*
X304202Y174572D01*
Y175588D01*
X305726D02*
X305980Y175842D01*
X306488D01*
X306742Y175588D01*
Y174572D01*
X306488Y174318D01*
X305980D01*
X305726Y174572D01*
Y175588D01*
X307249Y174318D02*
Y175334D01*
X307503D01*
X307757Y175080D01*
Y174318D01*
Y175080D01*
X308011Y175334D01*
X308265Y175080D01*
Y174318D01*
X308773D02*
Y175334D01*
X309027D01*
X309281Y175080D01*
Y174318D01*
Y175080D01*
X309535Y175334D01*
X309789Y175080D01*
Y174318D01*
X312328D02*
X311820Y174826D01*
Y175334D01*
X312328Y175842D01*
X313090Y174318D02*
X313597D01*
X313343D01*
Y175842D01*
X313090Y175588D01*
X315375Y175842D02*
X314359D01*
Y175080D01*
X314867Y175334D01*
X315121D01*
X315375Y175080D01*
Y174572D01*
X315121Y174318D01*
X314613D01*
X314359Y174572D01*
X315883Y175842D02*
X316898D01*
Y175588D01*
X315883Y174572D01*
Y174318D01*
X317406D02*
Y174572D01*
X317660D01*
Y174318D01*
X317406D01*
X319437D02*
Y175842D01*
X318676Y175080D01*
X319691D01*
X320199Y175588D02*
X320453Y175842D01*
X320961D01*
X321215Y175588D01*
Y175334D01*
X320961Y175080D01*
X321215Y174826D01*
Y174572D01*
X320961Y174318D01*
X320453D01*
X320199Y174572D01*
Y174826D01*
X320453Y175080D01*
X320199Y175334D01*
Y175588D01*
X320453Y175080D02*
X320961D01*
X321723Y174318D02*
Y175334D01*
X321977D01*
X322231Y175080D01*
Y174318D01*
Y175080D01*
X322484Y175334D01*
X322738Y175080D01*
Y174318D01*
X323246D02*
X323754D01*
X323500D01*
Y175334D01*
X323246D01*
X324516Y174318D02*
X325024D01*
X324770D01*
Y175842D01*
X324516D01*
X325785Y174318D02*
X326293Y174826D01*
Y175334D01*
X325785Y175842D01*
X300648Y170508D02*
Y172032D01*
X299886Y171270D01*
X300901D01*
X301409Y170508D02*
Y170762D01*
X301663D01*
Y170508D01*
X301409D01*
X303441D02*
Y172032D01*
X302679Y171270D01*
X303695D01*
X304202Y171778D02*
X304456Y172032D01*
X304964D01*
X305218Y171778D01*
Y170762D01*
X304964Y170508D01*
X304456D01*
X304202Y170762D01*
Y171778D01*
X305726D02*
X305980Y172032D01*
X306488D01*
X306742Y171778D01*
Y170762D01*
X306488Y170508D01*
X305980D01*
X305726Y170762D01*
Y171778D01*
X307249Y170508D02*
Y171524D01*
X307503D01*
X307757Y171270D01*
Y170508D01*
Y171270D01*
X308011Y171524D01*
X308265Y171270D01*
Y170508D01*
X308773D02*
Y171524D01*
X309027D01*
X309281Y171270D01*
Y170508D01*
Y171270D01*
X309535Y171524D01*
X309789Y171270D01*
Y170508D01*
X312328D02*
X311820Y171016D01*
Y171524D01*
X312328Y172032D01*
X313090Y170508D02*
X313597D01*
X313343D01*
Y172032D01*
X313090Y171778D01*
X314359Y172032D02*
X315375D01*
Y171778D01*
X314359Y170762D01*
Y170508D01*
X315883Y171778D02*
X316137Y172032D01*
X316644D01*
X316898Y171778D01*
Y171524D01*
X316644Y171270D01*
X316390D01*
X316644D01*
X316898Y171016D01*
Y170762D01*
X316644Y170508D01*
X316137D01*
X315883Y170762D01*
X317406Y170508D02*
Y170762D01*
X317660D01*
Y170508D01*
X317406D01*
X319691D02*
X318676D01*
X319691Y171524D01*
Y171778D01*
X319437Y172032D01*
X318930D01*
X318676Y171778D01*
X320199D02*
X320453Y172032D01*
X320961D01*
X321215Y171778D01*
Y171524D01*
X320961Y171270D01*
X320707D01*
X320961D01*
X321215Y171016D01*
Y170762D01*
X320961Y170508D01*
X320453D01*
X320199Y170762D01*
X321723Y170508D02*
Y171524D01*
X321977D01*
X322231Y171270D01*
Y170508D01*
Y171270D01*
X322484Y171524D01*
X322738Y171270D01*
Y170508D01*
X323246D02*
X323754D01*
X323500D01*
Y171524D01*
X323246D01*
X324516Y170508D02*
X325024D01*
X324770D01*
Y172032D01*
X324516D01*
X325785Y170508D02*
X326293Y171016D01*
Y171524D01*
X325785Y172032D01*
X284712Y166698D02*
X285220D01*
X284966D01*
Y168222D01*
X284712Y167968D01*
X286997Y168222D02*
X286489Y167968D01*
X285981Y167460D01*
Y166952D01*
X286235Y166698D01*
X286743D01*
X286997Y166952D01*
Y167206D01*
X286743Y167460D01*
X285981D01*
X287505Y167968D02*
X287759Y168222D01*
X288267D01*
X288521Y167968D01*
Y166952D01*
X288267Y166698D01*
X287759D01*
X287505Y166952D01*
Y167968D01*
X290552Y168222D02*
X291568D01*
X291060D01*
Y166698D01*
X292329D02*
X292837D01*
X293091Y166952D01*
Y167460D01*
X292837Y167714D01*
X292329D01*
X292075Y167460D01*
Y166952D01*
X292329Y166698D01*
X293853Y167968D02*
Y167714D01*
X293599D01*
X294107D01*
X293853D01*
Y166952D01*
X294107Y166698D01*
X295122Y167714D02*
X295630D01*
X295884Y167460D01*
Y166698D01*
X295122D01*
X294868Y166952D01*
X295122Y167206D01*
X295884D01*
X296392Y166698D02*
X296900D01*
X296646D01*
Y168222D01*
X296392D01*
X284712Y201242D02*
X284966Y200988D01*
X285474D01*
X285727Y201242D01*
Y202258D01*
X285474Y202512D01*
X284966D01*
X284712Y202258D01*
Y202004D01*
X284966Y201750D01*
X285727D01*
Y197178D02*
X284712D01*
X285727Y198194D01*
Y198448D01*
X285474Y198702D01*
X284966D01*
X284712Y198448D01*
X286235D02*
X286489Y198702D01*
X286997D01*
X287251Y198448D01*
Y198194D01*
X286997Y197940D01*
X287251Y197686D01*
Y197432D01*
X286997Y197178D01*
X286489D01*
X286235Y197432D01*
Y197686D01*
X286489Y197940D01*
X286235Y198194D01*
Y198448D01*
X286489Y197940D02*
X286997D01*
X285727Y193368D02*
X284712D01*
X285727Y194384D01*
Y194638D01*
X285474Y194892D01*
X284966D01*
X284712Y194638D01*
X286235D02*
X286489Y194892D01*
X286997D01*
X287251Y194638D01*
Y193622D01*
X286997Y193368D01*
X286489D01*
X286235Y193622D01*
Y194638D01*
X284712Y190828D02*
X284966Y191082D01*
X285474D01*
X285727Y190828D01*
Y190574D01*
X285474Y190320D01*
X285220D01*
X285474D01*
X285727Y190066D01*
Y189812D01*
X285474Y189558D01*
X284966D01*
X284712Y189812D01*
X287251Y191082D02*
X286743Y190828D01*
X286235Y190320D01*
Y189812D01*
X286489Y189558D01*
X286997D01*
X287251Y189812D01*
Y190066D01*
X286997Y190320D01*
X286235D01*
X285727Y187272D02*
X284712D01*
Y186510D01*
X285220Y186764D01*
X285474D01*
X285727Y186510D01*
Y186002D01*
X285474Y185748D01*
X284966D01*
X284712Y186002D01*
X285727Y181938D02*
X284712D01*
X285727Y182954D01*
Y183208D01*
X285474Y183462D01*
X284966D01*
X284712Y183208D01*
X286997Y181938D02*
Y183462D01*
X286235Y182700D01*
X287251D01*
X285727Y178128D02*
X284712D01*
X285727Y179144D01*
Y179398D01*
X285474Y179652D01*
X284966D01*
X284712Y179398D01*
X286997Y178128D02*
Y179652D01*
X286235Y178890D01*
X287251D01*
X284712Y174318D02*
X285220D01*
X284966D01*
Y175842D01*
X284712Y175588D01*
X286997Y174318D02*
X285981D01*
X286997Y175334D01*
Y175588D01*
X286743Y175842D01*
X286235D01*
X285981Y175588D01*
X285727Y170508D02*
X284712D01*
X285727Y171524D01*
Y171778D01*
X285474Y172032D01*
X284966D01*
X284712Y171778D01*
X317444Y160601D02*
X318460D01*
X317444Y161108D02*
X318460D01*
X320491Y160093D02*
Y161616D01*
X321253D01*
X321507Y161362D01*
Y160854D01*
X321253Y160601D01*
X320491D01*
X320999D02*
X321507Y160093D01*
X322268D02*
X322776D01*
X323030Y160347D01*
Y160854D01*
X322776Y161108D01*
X322268D01*
X322014Y160854D01*
Y160347D01*
X322268Y160093D01*
X323538Y161108D02*
Y160347D01*
X323792Y160093D01*
X324554D01*
Y161108D01*
X325315Y161362D02*
Y161108D01*
X325061D01*
X325569D01*
X325315D01*
Y160347D01*
X325569Y160093D01*
X327093D02*
X326585D01*
X326331Y160347D01*
Y160854D01*
X326585Y161108D01*
X327093D01*
X327347Y160854D01*
Y160601D01*
X326331D01*
X328870Y161616D02*
Y160093D01*
X328108D01*
X327854Y160347D01*
Y160854D01*
X328108Y161108D01*
X328870D01*
X330901Y160093D02*
Y161616D01*
X331663D01*
X331917Y161362D01*
Y160854D01*
X331663Y160601D01*
X330901D01*
X332679Y161108D02*
X333187D01*
X333441Y160854D01*
Y160093D01*
X332679D01*
X332425Y160347D01*
X332679Y160601D01*
X333441D01*
X334202Y161362D02*
Y161108D01*
X333948D01*
X334456D01*
X334202D01*
Y160347D01*
X334456Y160093D01*
X335218Y161616D02*
Y160093D01*
Y160854D01*
X335472Y161108D01*
X335980D01*
X336234Y160854D01*
Y160093D01*
X338265Y161616D02*
Y160093D01*
X339281D01*
X340550D02*
X340043D01*
X339789Y160347D01*
Y160854D01*
X340043Y161108D01*
X340550D01*
X340804Y160854D01*
Y160601D01*
X339789D01*
X341312Y160093D02*
Y161108D01*
X342074D01*
X342328Y160854D01*
Y160093D01*
X343343Y159585D02*
X343597D01*
X343851Y159839D01*
Y161108D01*
X343090D01*
X342836Y160854D01*
Y160347D01*
X343090Y160093D01*
X343851D01*
X344613Y161362D02*
Y161108D01*
X344359D01*
X344867D01*
X344613D01*
Y160347D01*
X344867Y160093D01*
X345629Y161616D02*
Y160093D01*
Y160854D01*
X345883Y161108D01*
X346390D01*
X346644Y160854D01*
Y160093D01*
X348676Y160854D02*
X349691D01*
X349184Y161362D02*
Y160347D01*
X351723Y161616D02*
X352738D01*
X352231D01*
Y160093D01*
X353500D02*
X354008D01*
X354262Y160347D01*
Y160854D01*
X354008Y161108D01*
X353500D01*
X353246Y160854D01*
Y160347D01*
X353500Y160093D01*
X355024D02*
X355531D01*
X355785Y160347D01*
Y160854D01*
X355531Y161108D01*
X355024D01*
X354770Y160854D01*
Y160347D01*
X355024Y160093D01*
X356293D02*
X356801D01*
X356547D01*
Y161616D01*
X356293D01*
X360102Y161362D02*
X359848Y161616D01*
X359340D01*
X359086Y161362D01*
Y161108D01*
X359340Y160854D01*
X359848D01*
X360102Y160601D01*
Y160347D01*
X359848Y160093D01*
X359340D01*
X359086Y160347D01*
X360610Y160093D02*
X361118D01*
X360864D01*
Y161108D01*
X360610D01*
X361879D02*
X362895D01*
X361879Y160093D01*
X362895D01*
X364165D02*
X363657D01*
X363403Y160347D01*
Y160854D01*
X363657Y161108D01*
X364165D01*
X364419Y160854D01*
Y160601D01*
X363403D01*
X366450D02*
X367466D01*
X366450Y161108D02*
X367466D01*
X370513Y161362D02*
X370259Y161616D01*
X369751D01*
X369497Y161362D01*
Y161108D01*
X369751Y160854D01*
X370259D01*
X370513Y160601D01*
Y160347D01*
X370259Y160093D01*
X369751D01*
X369497Y160347D01*
X371020Y160093D02*
X371528D01*
X371274D01*
Y161616D01*
X371020D01*
X372544Y160093D02*
X373052D01*
X373306Y160347D01*
Y160854D01*
X373052Y161108D01*
X372544D01*
X372290Y160854D01*
Y160347D01*
X372544Y160093D01*
X374068Y161362D02*
Y161108D01*
X373814D01*
X374321D01*
X374068D01*
Y160347D01*
X374321Y160093D01*
X376607D02*
X377115D01*
X376861D01*
Y161616D01*
X376607D01*
X378638Y160093D02*
X378130D01*
X377876Y160347D01*
Y160854D01*
X378130Y161108D01*
X378638D01*
X378892Y160854D01*
Y160601D01*
X377876D01*
X379400Y160093D02*
Y161108D01*
X380162D01*
X380415Y160854D01*
Y160093D01*
X381431Y159585D02*
X381685D01*
X381939Y159839D01*
Y161108D01*
X381177D01*
X380923Y160854D01*
Y160347D01*
X381177Y160093D01*
X381939D01*
X382701Y161362D02*
Y161108D01*
X382447D01*
X382955D01*
X382701D01*
Y160347D01*
X382955Y160093D01*
X383716Y161616D02*
Y160093D01*
Y160854D01*
X383970Y161108D01*
X384478D01*
X384732Y160854D01*
Y160093D01*
X387017Y161108D02*
X387525D01*
X387779Y160854D01*
Y160093D01*
X387017D01*
X386763Y160347D01*
X387017Y160601D01*
X387779D01*
X388287Y160093D02*
X389049D01*
X389303Y160347D01*
X389049Y160601D01*
X388541D01*
X388287Y160854D01*
X388541Y161108D01*
X389303D01*
X392350Y161616D02*
Y160093D01*
X391588D01*
X391334Y160347D01*
Y160854D01*
X391588Y161108D01*
X392350D01*
X393619Y160093D02*
X393111D01*
X392857Y160347D01*
Y160854D01*
X393111Y161108D01*
X393619D01*
X393873Y160854D01*
Y160601D01*
X392857D01*
X394635Y160093D02*
Y161362D01*
Y160854D01*
X394381D01*
X394889D01*
X394635D01*
Y161362D01*
X394889Y161616D01*
X395651Y160093D02*
X396158D01*
X395904D01*
Y161108D01*
X395651D01*
X396920Y160093D02*
Y161108D01*
X397682D01*
X397936Y160854D01*
Y160093D01*
X399205D02*
X398698D01*
X398444Y160347D01*
Y160854D01*
X398698Y161108D01*
X399205D01*
X399459Y160854D01*
Y160601D01*
X398444D01*
X400983Y161616D02*
Y160093D01*
X400221D01*
X399967Y160347D01*
Y160854D01*
X400221Y161108D01*
X400983D01*
X403014Y160093D02*
X403522D01*
X403268D01*
Y161108D01*
X403014D01*
X404284Y160093D02*
Y161108D01*
X405045D01*
X405299Y160854D01*
Y160093D01*
X407585Y161362D02*
Y161108D01*
X407331D01*
X407839D01*
X407585D01*
Y160347D01*
X407839Y160093D01*
X408600Y161616D02*
Y160093D01*
Y160854D01*
X408854Y161108D01*
X409362D01*
X409616Y160854D01*
Y160093D01*
X410886D02*
X410378D01*
X410124Y160347D01*
Y160854D01*
X410378Y161108D01*
X410886D01*
X411139Y160854D01*
Y160601D01*
X410124D01*
X413171Y160093D02*
Y161616D01*
X413933D01*
X414187Y161362D01*
Y160854D01*
X413933Y160601D01*
X413171D01*
X415710Y161362D02*
X415456Y161616D01*
X414948D01*
X414694Y161362D01*
Y160347D01*
X414948Y160093D01*
X415456D01*
X415710Y160347D01*
X416218Y161616D02*
Y160093D01*
X416980D01*
X417234Y160347D01*
Y160601D01*
X416980Y160854D01*
X416218D01*
X416980D01*
X417234Y161108D01*
Y161362D01*
X416980Y161616D01*
X416218D01*
X419265Y160093D02*
X419773D01*
X419519D01*
Y161616D01*
X419265D01*
X420788Y161108D02*
X421296D01*
X421550Y160854D01*
Y160093D01*
X420788D01*
X420534Y160347D01*
X420788Y160601D01*
X421550D01*
X422058Y161108D02*
Y160347D01*
X422312Y160093D01*
X423074D01*
Y159839D01*
X422820Y159585D01*
X422566D01*
X423074Y160093D02*
Y161108D01*
X423835Y160093D02*
X424343D01*
X424597Y160347D01*
Y160854D01*
X424343Y161108D01*
X423835D01*
X423581Y160854D01*
Y160347D01*
X423835Y160093D01*
X425105Y161108D02*
Y160347D01*
X425359Y160093D01*
X426121D01*
Y161108D01*
X426882Y161362D02*
Y161108D01*
X426628D01*
X427136D01*
X426882D01*
Y160347D01*
X427136Y160093D01*
X326331Y163332D02*
X327347D01*
X326331Y163840D02*
X327347D01*
X330394Y164094D02*
X330140Y164348D01*
X329632D01*
X329378Y164094D01*
Y163078D01*
X329632Y162824D01*
X330140D01*
X330394Y163078D01*
X331155Y163840D02*
X331663D01*
X331917Y163586D01*
Y162824D01*
X331155D01*
X330901Y163078D01*
X331155Y163332D01*
X331917D01*
X332425Y162824D02*
X332933D01*
X332679D01*
Y164348D01*
X332425D01*
X334710Y163840D02*
X333948D01*
X333695Y163586D01*
Y163078D01*
X333948Y162824D01*
X334710D01*
X335218Y163840D02*
Y163078D01*
X335472Y162824D01*
X336234D01*
Y163840D01*
X336742Y162824D02*
X337249D01*
X336995D01*
Y164348D01*
X336742D01*
X338265Y163840D02*
X338773D01*
X339027Y163586D01*
Y162824D01*
X338265D01*
X338011Y163078D01*
X338265Y163332D01*
X339027D01*
X339789Y164094D02*
Y163840D01*
X339535D01*
X340043D01*
X339789D01*
Y163078D01*
X340043Y162824D01*
X341566D02*
X341058D01*
X340804Y163078D01*
Y163586D01*
X341058Y163840D01*
X341566D01*
X341820Y163586D01*
Y163332D01*
X340804D01*
X343343Y164348D02*
Y162824D01*
X342582D01*
X342328Y163078D01*
Y163586D01*
X342582Y163840D01*
X343343D01*
X345629Y162824D02*
Y164094D01*
Y163586D01*
X345375D01*
X345883D01*
X345629D01*
Y164094D01*
X345883Y164348D01*
X346644Y163840D02*
Y162824D01*
Y163332D01*
X346898Y163586D01*
X347152Y163840D01*
X347406D01*
X348422Y162824D02*
X348930D01*
X349184Y163078D01*
Y163586D01*
X348930Y163840D01*
X348422D01*
X348168Y163586D01*
Y163078D01*
X348422Y162824D01*
X349691D02*
Y163840D01*
X349945D01*
X350199Y163586D01*
Y162824D01*
Y163586D01*
X350453Y163840D01*
X350707Y163586D01*
Y162824D01*
X352992Y164094D02*
Y163840D01*
X352738D01*
X353246D01*
X352992D01*
Y163078D01*
X353246Y162824D01*
X354262D02*
X354770D01*
X355024Y163078D01*
Y163586D01*
X354770Y163840D01*
X354262D01*
X354008Y163586D01*
Y163078D01*
X354262Y162824D01*
X355785D02*
X356293D01*
X356547Y163078D01*
Y163586D01*
X356293Y163840D01*
X355785D01*
X355531Y163586D01*
Y163078D01*
X355785Y162824D01*
X357055D02*
X357563D01*
X357309D01*
Y164348D01*
X357055D01*
X359848Y162824D02*
X360610D01*
X360864Y163078D01*
X360610Y163332D01*
X360102D01*
X359848Y163586D01*
X360102Y163840D01*
X360864D01*
X361626Y164094D02*
Y163840D01*
X361372D01*
X361879D01*
X361626D01*
Y163078D01*
X361879Y162824D01*
X362895Y163840D02*
X363403D01*
X363657Y163586D01*
Y162824D01*
X362895D01*
X362641Y163078D01*
X362895Y163332D01*
X363657D01*
X364165Y163840D02*
Y162824D01*
Y163332D01*
X364419Y163586D01*
X364673Y163840D01*
X364926D01*
X365942Y164094D02*
Y163840D01*
X365688D01*
X366196D01*
X365942D01*
Y163078D01*
X366196Y162824D01*
X369497Y163840D02*
X368735D01*
X368481Y163586D01*
Y163078D01*
X368735Y162824D01*
X369497D01*
X370767D02*
X370259D01*
X370005Y163078D01*
Y163586D01*
X370259Y163840D01*
X370767D01*
X371020Y163586D01*
Y163332D01*
X370005D01*
X371528Y162824D02*
Y163840D01*
X372290D01*
X372544Y163586D01*
Y162824D01*
X373306Y164094D02*
Y163840D01*
X373052D01*
X373560D01*
X373306D01*
Y163078D01*
X373560Y162824D01*
X374321Y163840D02*
Y162824D01*
Y163332D01*
X374575Y163586D01*
X374829Y163840D01*
X375083D01*
X376607Y162824D02*
X376099D01*
X375845Y163078D01*
Y163586D01*
X376099Y163840D01*
X376607D01*
X376861Y163586D01*
Y163332D01*
X375845D01*
X378892Y162316D02*
Y163840D01*
X379654D01*
X379908Y163586D01*
Y163078D01*
X379654Y162824D01*
X378892D01*
X380669D02*
X381177D01*
X381431Y163078D01*
Y163586D01*
X381177Y163840D01*
X380669D01*
X380415Y163586D01*
Y163078D01*
X380669Y162824D01*
X381939D02*
X382701D01*
X382955Y163078D01*
X382701Y163332D01*
X382193D01*
X381939Y163586D01*
X382193Y163840D01*
X382955D01*
X383462Y162824D02*
X383970D01*
X383716D01*
Y163840D01*
X383462D01*
X384986Y164094D02*
Y163840D01*
X384732D01*
X385240D01*
X384986D01*
Y163078D01*
X385240Y162824D01*
X386002D02*
X386509D01*
X386256D01*
Y163840D01*
X386002D01*
X387525Y162824D02*
X388033D01*
X388287Y163078D01*
Y163586D01*
X388033Y163840D01*
X387525D01*
X387271Y163586D01*
Y163078D01*
X387525Y162824D01*
X388795D02*
Y163840D01*
X389556D01*
X389810Y163586D01*
Y162824D01*
X392096Y164094D02*
Y163840D01*
X391842D01*
X392350D01*
X392096D01*
Y163078D01*
X392350Y162824D01*
X393365D02*
X393873D01*
X394127Y163078D01*
Y163586D01*
X393873Y163840D01*
X393365D01*
X393111Y163586D01*
Y163078D01*
X393365Y162824D01*
X396412Y164094D02*
Y163840D01*
X396158D01*
X396666D01*
X396412D01*
Y163078D01*
X396666Y162824D01*
X397682D02*
X398190D01*
X398444Y163078D01*
Y163586D01*
X398190Y163840D01*
X397682D01*
X397428Y163586D01*
Y163078D01*
X397682Y162824D01*
X399205D02*
X399713D01*
X399967Y163078D01*
Y163586D01*
X399713Y163840D01*
X399205D01*
X398951Y163586D01*
Y163078D01*
X399205Y162824D01*
X400475D02*
X400983D01*
X400729D01*
Y164348D01*
X400475D01*
X404030Y162824D02*
X403522D01*
X403268Y163078D01*
Y163586D01*
X403522Y163840D01*
X404030D01*
X404284Y163586D01*
Y163332D01*
X403268D01*
X404792Y162824D02*
Y163840D01*
X405553D01*
X405807Y163586D01*
Y162824D01*
X407331Y164348D02*
Y162824D01*
X406569D01*
X406315Y163078D01*
Y163586D01*
X406569Y163840D01*
X407331D01*
X410378D02*
X409616D01*
X409362Y163586D01*
Y163078D01*
X409616Y162824D01*
X410378D01*
X411647D02*
X411139D01*
X410886Y163078D01*
Y163586D01*
X411139Y163840D01*
X411647D01*
X411901Y163586D01*
Y163332D01*
X410886D01*
X412409Y162824D02*
Y163840D01*
X413171D01*
X413425Y163586D01*
Y162824D01*
X414187Y164094D02*
Y163840D01*
X413933D01*
X414440D01*
X414187D01*
Y163078D01*
X414440Y162824D01*
X415202Y163840D02*
Y162824D01*
Y163332D01*
X415456Y163586D01*
X415710Y163840D01*
X415964D01*
X417487Y162824D02*
X416980D01*
X416726Y163078D01*
Y163586D01*
X416980Y163840D01*
X417487D01*
X417741Y163586D01*
Y163332D01*
X416726D01*
X419773Y162316D02*
Y163840D01*
X420534D01*
X420788Y163586D01*
Y163078D01*
X420534Y162824D01*
X419773D01*
X421550D02*
X422058D01*
X422312Y163078D01*
Y163586D01*
X422058Y163840D01*
X421550D01*
X421296Y163586D01*
Y163078D01*
X421550Y162824D01*
X422820D02*
X423581D01*
X423835Y163078D01*
X423581Y163332D01*
X423074D01*
X422820Y163586D01*
X423074Y163840D01*
X423835D01*
X424343Y162824D02*
X424851D01*
X424597D01*
Y163840D01*
X424343D01*
X425867Y164094D02*
Y163840D01*
X425613D01*
X426121D01*
X425867D01*
Y163078D01*
X426121Y162824D01*
X426882D02*
X427390D01*
X427136D01*
Y163840D01*
X426882D01*
X428406Y162824D02*
X428914D01*
X429168Y163078D01*
Y163586D01*
X428914Y163840D01*
X428406D01*
X428152Y163586D01*
Y163078D01*
X428406Y162824D01*
X429676D02*
Y163840D01*
X430437D01*
X430691Y163586D01*
Y162824D01*
X431199D02*
Y163078D01*
X431453D01*
Y162824D01*
X431199D01*
D45*
X269269Y203655D02*
X442821D01*
X269269Y169365D02*
X442821D01*
X269269Y165555D02*
X442821D01*
Y207465D01*
X269269D02*
X442821D01*
X269269Y165555D02*
Y207465D01*
X413808Y165555D02*
Y207465D01*
X398519Y165555D02*
Y207465D01*
X360238Y165555D02*
Y207465D01*
X341293Y165555D02*
Y207465D01*
X328136Y165555D02*
Y207465D01*
X298743Y165555D02*
Y207465D01*
X283569Y165555D02*
Y207465D01*
D47*
X414951Y204798D02*
Y206627D01*
X415865D01*
X416170Y206322D01*
Y205712D01*
X415865Y205408D01*
X414951D01*
X417084Y206017D02*
X417694D01*
X417998Y205712D01*
Y204798D01*
X417084D01*
X416780Y205103D01*
X417084Y205408D01*
X417998D01*
X419827Y206627D02*
Y204798D01*
X418913D01*
X418608Y205103D01*
Y205712D01*
X418913Y206017D01*
X419827D01*
X423483Y206322D02*
X423178Y206627D01*
X422569D01*
X422264Y206322D01*
Y206017D01*
X422569Y205712D01*
X423178D01*
X423483Y205408D01*
Y205103D01*
X423178Y204798D01*
X422569D01*
X422264Y205103D01*
X424092Y206627D02*
Y204798D01*
Y205712D01*
X424397Y206017D01*
X425007D01*
X425311Y205712D01*
Y204798D01*
X426225Y206017D02*
X426835D01*
X427139Y205712D01*
Y204798D01*
X426225D01*
X425921Y205103D01*
X426225Y205408D01*
X427139D01*
X427749Y204189D02*
Y206017D01*
X428663D01*
X428968Y205712D01*
Y205103D01*
X428663Y204798D01*
X427749D01*
X430491D02*
X429882D01*
X429577Y205103D01*
Y205712D01*
X429882Y206017D01*
X430491D01*
X430796Y205712D01*
Y205408D01*
X429577D01*
X399662Y206627D02*
Y205408D01*
X400271Y204798D01*
X400881Y205408D01*
Y206627D01*
X401490Y204798D02*
X402100D01*
X401795D01*
Y206017D01*
X401490D01*
X403318D02*
X403928D01*
X404233Y205712D01*
Y204798D01*
X403318D01*
X403014Y205103D01*
X403318Y205408D01*
X404233D01*
X404842Y204798D02*
X406061Y206017D01*
X406670Y204798D02*
Y206627D01*
X407584D01*
X407889Y206322D01*
Y205712D01*
X407584Y205408D01*
X406670D01*
X408803Y206017D02*
X409412D01*
X409717Y205712D01*
Y204798D01*
X408803D01*
X408498Y205103D01*
X408803Y205408D01*
X409717D01*
X411545Y206627D02*
Y204798D01*
X410631D01*
X410327Y205103D01*
Y205712D01*
X410631Y206017D01*
X411545D01*
X361381Y206627D02*
Y204798D01*
X362296D01*
X362600Y205103D01*
Y206322D01*
X362296Y206627D01*
X361381D01*
X363210Y206017D02*
Y204798D01*
Y205408D01*
X363514Y205712D01*
X363819Y206017D01*
X364124D01*
X365038Y204798D02*
X365647D01*
X365343D01*
Y206017D01*
X365038D01*
X366561Y204798D02*
X367171D01*
X366866D01*
Y206627D01*
X366561D01*
X368085Y204798D02*
X368694D01*
X368390D01*
Y206627D01*
X368085D01*
X371437D02*
Y204798D01*
X372655D01*
X373570Y206017D02*
X374179D01*
X374484Y205712D01*
Y204798D01*
X373570D01*
X373265Y205103D01*
X373570Y205408D01*
X374484D01*
X375093Y206017D02*
Y205103D01*
X375398Y204798D01*
X376312D01*
Y204494D01*
X376007Y204189D01*
X375702D01*
X376312Y204798D02*
Y206017D01*
X377835Y204798D02*
X377226D01*
X376921Y205103D01*
Y205712D01*
X377226Y206017D01*
X377835D01*
X378140Y205712D01*
Y205408D01*
X376921D01*
X378749Y206017D02*
Y204798D01*
Y205408D01*
X379054Y205712D01*
X379359Y206017D01*
X379664D01*
X382406Y204798D02*
Y206627D01*
X383320D01*
X383625Y206322D01*
Y205712D01*
X383320Y205408D01*
X382406D01*
X384539Y206017D02*
X385148D01*
X385453Y205712D01*
Y204798D01*
X384539D01*
X384234Y205103D01*
X384539Y205408D01*
X385453D01*
X386062Y204798D02*
X386672D01*
X386367D01*
Y206017D01*
X386062D01*
X387586D02*
Y204798D01*
Y205408D01*
X387890Y205712D01*
X388195Y206017D01*
X388500D01*
X342436Y206627D02*
Y204798D01*
Y205712D01*
X343654D01*
Y206627D01*
Y204798D01*
X344569D02*
X345178D01*
X345483Y205103D01*
Y205712D01*
X345178Y206017D01*
X344569D01*
X344264Y205712D01*
Y205103D01*
X344569Y204798D01*
X346092D02*
X346702D01*
X346397D01*
Y206627D01*
X346092D01*
X348530Y204798D02*
X347920D01*
X347616Y205103D01*
Y205712D01*
X347920Y206017D01*
X348530D01*
X348834Y205712D01*
Y205408D01*
X347616D01*
X351272Y206627D02*
X352491D01*
X351881D01*
Y204798D01*
X353100Y206017D02*
Y205103D01*
X353405Y204798D01*
X354319D01*
Y204494D01*
X354014Y204189D01*
X353710D01*
X354319Y204798D02*
Y206017D01*
X354928Y204189D02*
Y206017D01*
X355843D01*
X356147Y205712D01*
Y205103D01*
X355843Y204798D01*
X354928D01*
X357671D02*
X357061D01*
X356757Y205103D01*
Y205712D01*
X357061Y206017D01*
X357671D01*
X357975Y205712D01*
Y205408D01*
X356757D01*
X329279Y204798D02*
Y206627D01*
X330193D01*
X330498Y206322D01*
Y205712D01*
X330193Y205408D01*
X329279D01*
X331107Y204798D02*
X331717D01*
X331412D01*
Y206627D01*
X331107D01*
X332936Y206017D02*
X333545D01*
X333850Y205712D01*
Y204798D01*
X332936D01*
X332631Y205103D01*
X332936Y205408D01*
X333850D01*
X334764Y206322D02*
Y206017D01*
X334459D01*
X335069D01*
X334764D01*
Y205103D01*
X335069Y204798D01*
X336897D02*
X336287D01*
X335983Y205103D01*
Y205712D01*
X336287Y206017D01*
X336897D01*
X337201Y205712D01*
Y205408D01*
X335983D01*
X339030Y206627D02*
Y204798D01*
X338116D01*
X337811Y205103D01*
Y205712D01*
X338116Y206017D01*
X339030D01*
X299886Y206627D02*
Y204798D01*
Y205712D01*
X301105D01*
Y206627D01*
Y204798D01*
X302019D02*
X302628D01*
X302933Y205103D01*
Y205712D01*
X302628Y206017D01*
X302019D01*
X301714Y205712D01*
Y205103D01*
X302019Y204798D01*
X303542D02*
X304152D01*
X303847D01*
Y206627D01*
X303542D01*
X305980Y204798D02*
X305370D01*
X305066Y205103D01*
Y205712D01*
X305370Y206017D01*
X305980D01*
X306285Y205712D01*
Y205408D01*
X305066D01*
X309941Y206322D02*
X309636Y206627D01*
X309027D01*
X308722Y206322D01*
Y206017D01*
X309027Y205712D01*
X309636D01*
X309941Y205408D01*
Y205103D01*
X309636Y204798D01*
X309027D01*
X308722Y205103D01*
X310550Y204798D02*
X311160D01*
X310855D01*
Y206017D01*
X310550D01*
X312074D02*
X313293D01*
X312074Y204798D01*
X313293D01*
X314816D02*
X314207D01*
X313902Y205103D01*
Y205712D01*
X314207Y206017D01*
X314816D01*
X315121Y205712D01*
Y205408D01*
X313902D01*
X285931Y206322D02*
X285626Y206627D01*
X285016D01*
X284712Y206322D01*
Y205103D01*
X285016Y204798D01*
X285626D01*
X285931Y205103D01*
X286845Y204798D02*
X287454D01*
X287759Y205103D01*
Y205712D01*
X287454Y206017D01*
X286845D01*
X286540Y205712D01*
Y205103D01*
X286845Y204798D01*
X288368Y206017D02*
Y205103D01*
X288673Y204798D01*
X289587D01*
Y206017D01*
X290196Y204798D02*
Y206017D01*
X291110D01*
X291415Y205712D01*
Y204798D01*
X292329Y206322D02*
Y206017D01*
X292025D01*
X292634D01*
X292329D01*
Y205103D01*
X292634Y204798D01*
X272774Y206322D02*
X272469Y206627D01*
X271860D01*
X271555Y206322D01*
Y206017D01*
X271860Y205712D01*
X272469D01*
X272774Y205408D01*
Y205103D01*
X272469Y204798D01*
X271860D01*
X271555Y205103D01*
X273384Y206017D02*
Y205103D01*
X273688Y204798D01*
X274602D01*
Y204494D01*
X274298Y204189D01*
X273993D01*
X274602Y204798D02*
Y206017D01*
X275212Y204798D02*
Y206017D01*
X275516D01*
X275821Y205712D01*
Y204798D01*
Y205712D01*
X276126Y206017D01*
X276431Y205712D01*
Y204798D01*
X277040Y206627D02*
Y204798D01*
X277954D01*
X278259Y205103D01*
Y205408D01*
Y205712D01*
X277954Y206017D01*
X277040D01*
X279173Y204798D02*
X279782D01*
X280087Y205103D01*
Y205712D01*
X279782Y206017D01*
X279173D01*
X278868Y205712D01*
Y205103D01*
X279173Y204798D01*
X280696D02*
X281306D01*
X281001D01*
Y206627D01*
X280696D01*
D48*
X298054Y161616D02*
Y160093D01*
Y160854D01*
X299070D01*
Y161616D01*
Y160093D01*
X299832D02*
X300340D01*
X300594Y160347D01*
Y160854D01*
X300340Y161108D01*
X299832D01*
X299578Y160854D01*
Y160347D01*
X299832Y160093D01*
X301101D02*
X301609D01*
X301355D01*
Y161616D01*
X301101D01*
X303133Y160093D02*
X302625D01*
X302371Y160347D01*
Y160854D01*
X302625Y161108D01*
X303133D01*
X303387Y160854D01*
Y160601D01*
X302371D01*
X305418Y161616D02*
Y160093D01*
X306434D01*
X307703D02*
X307195D01*
X306942Y160347D01*
Y160854D01*
X307195Y161108D01*
X307703D01*
X307957Y160854D01*
Y160601D01*
X306942D01*
X308465Y160093D02*
Y161108D01*
X309227D01*
X309481Y160854D01*
Y160093D01*
X310496Y159585D02*
X310750D01*
X311004Y159839D01*
Y161108D01*
X310242D01*
X309989Y160854D01*
Y160347D01*
X310242Y160093D01*
X311004D01*
X311766Y161362D02*
Y161108D01*
X311512D01*
X312020D01*
X311766D01*
Y160347D01*
X312020Y160093D01*
X312782Y161616D02*
Y160093D01*
Y160854D01*
X313036Y161108D01*
X313543D01*
X313797Y160854D01*
Y160093D01*
X298054Y162824D02*
Y164348D01*
X298816D01*
X299070Y164094D01*
Y163586D01*
X298816Y163332D01*
X298054D01*
X298562D02*
X299070Y162824D01*
X299832D02*
X300340D01*
X300594Y163078D01*
Y163586D01*
X300340Y163840D01*
X299832D01*
X299578Y163586D01*
Y163078D01*
X299832Y162824D01*
X301101Y163840D02*
Y163078D01*
X301355Y162824D01*
X302117D01*
Y163840D01*
X302879Y164094D02*
Y163840D01*
X302625D01*
X303133D01*
X302879D01*
Y163078D01*
X303133Y162824D01*
X304656D02*
X304148D01*
X303895Y163078D01*
Y163586D01*
X304148Y163840D01*
X304656D01*
X304910Y163586D01*
Y163332D01*
X303895D01*
X306434Y164348D02*
Y162824D01*
X305672D01*
X305418Y163078D01*
Y163586D01*
X305672Y163840D01*
X306434D01*
X308465Y162824D02*
Y164348D01*
X309227D01*
X309481Y164094D01*
Y163586D01*
X309227Y163332D01*
X308465D01*
X310242Y163840D02*
X310750D01*
X311004Y163586D01*
Y162824D01*
X310242D01*
X309989Y163078D01*
X310242Y163332D01*
X311004D01*
X311766Y164094D02*
Y163840D01*
X311512D01*
X312020D01*
X311766D01*
Y163078D01*
X312020Y162824D01*
X312782Y164348D02*
Y162824D01*
Y163586D01*
X313036Y163840D01*
X313543D01*
X313797Y163586D01*
Y162824D01*
X315829Y164348D02*
Y162824D01*
X316844D01*
X318114D02*
X317606D01*
X317352Y163078D01*
Y163586D01*
X317606Y163840D01*
X318114D01*
X318368Y163586D01*
Y163332D01*
X317352D01*
X318876Y162824D02*
Y163840D01*
X319637D01*
X319891Y163586D01*
Y162824D01*
X320907Y162316D02*
X321161D01*
X321415Y162570D01*
Y163840D01*
X320653D01*
X320399Y163586D01*
Y163078D01*
X320653Y162824D01*
X321415D01*
X322177Y164094D02*
Y163840D01*
X321923D01*
X322431D01*
X322177D01*
Y163078D01*
X322431Y162824D01*
X323192Y164348D02*
Y162824D01*
Y163586D01*
X323446Y163840D01*
X323954D01*
X324208Y163586D01*
Y162824D01*
X272571Y164094D02*
X272317Y164348D01*
X271809D01*
X271555Y164094D01*
Y163840D01*
X271809Y163586D01*
X272317D01*
X272571Y163332D01*
Y163078D01*
X272317Y162824D01*
X271809D01*
X271555Y163078D01*
X273079Y162824D02*
X273587D01*
X273333D01*
Y164348D01*
X273079D01*
X274602Y162824D02*
X275110D01*
X275364Y163078D01*
Y163586D01*
X275110Y163840D01*
X274602D01*
X274348Y163586D01*
Y163078D01*
X274602Y162824D01*
X276126Y164094D02*
Y163840D01*
X275872D01*
X276380D01*
X276126D01*
Y163078D01*
X276380Y162824D01*
X279681Y164348D02*
Y162824D01*
X278919D01*
X278665Y163078D01*
Y163586D01*
X278919Y163840D01*
X279681D01*
X280950Y162824D02*
X280442D01*
X280189Y163078D01*
Y163586D01*
X280442Y163840D01*
X280950D01*
X281204Y163586D01*
Y163332D01*
X280189D01*
X281966Y162824D02*
Y164094D01*
Y163586D01*
X281712D01*
X282220D01*
X281966D01*
Y164094D01*
X282220Y164348D01*
X282982Y162824D02*
X283489D01*
X283236D01*
Y163840D01*
X282982D01*
X284251Y162824D02*
Y163840D01*
X285013D01*
X285267Y163586D01*
Y162824D01*
X285775D02*
X286283D01*
X286029D01*
Y163840D01*
X285775D01*
X287298Y164094D02*
Y163840D01*
X287044D01*
X287552D01*
X287298D01*
Y163078D01*
X287552Y162824D01*
X288314D02*
X288822D01*
X288568D01*
Y163840D01*
X288314D01*
X289837Y162824D02*
X290345D01*
X290599Y163078D01*
Y163586D01*
X290345Y163840D01*
X289837D01*
X289583Y163586D01*
Y163078D01*
X289837Y162824D01*
X291107D02*
Y163840D01*
X291869D01*
X292123Y163586D01*
Y162824D01*
X292630D02*
X293392D01*
X293646Y163078D01*
X293392Y163332D01*
X292884D01*
X292630Y163586D01*
X292884Y163840D01*
X293646D01*
X295677D02*
X295931D01*
Y163586D01*
X295677D01*
Y163840D01*
Y163078D02*
X295931D01*
Y162824D01*
X295677D01*
Y163078D01*
M02*
