G04*
G04 #@! TF.GenerationSoftware,Altium Limited,Altium Designer,25.3.3 (18)*
G04*
G04 Layer_Color=32768*
%FSLAX43Y43*%
%MOMM*%
G71*
G04*
G04 #@! TF.SameCoordinates,C300852C-C8DC-408C-B86D-D4AF72776700*
G04*
G04*
G04 #@! TF.FilePolarity,Positive*
G04*
G01*
G75*
%ADD10C,0.254*%
%ADD44C,0.350*%
%ADD45C,0.381*%
%ADD46C,0.025*%
D10*
X157571Y204608D02*
G03*
X154397Y201434I0J-3175D01*
G01*
X245232Y104597D02*
G03*
X248407Y107772I0J3175D01*
G01*
X154408D02*
G03*
X157583Y104597I3175J0D01*
G01*
X248382Y201422D02*
G03*
X245207Y204597I-3175J0D01*
G01*
X154397Y107772D02*
X154397Y201434D01*
X248397Y201422D02*
X248397Y107520D01*
X157583Y104597D02*
X245232Y104597D01*
X157302Y204597D02*
X245207Y204597D01*
D44*
X271143Y152306D02*
Y150782D01*
X272159D01*
X272921Y151798D02*
X273429D01*
X273682Y151544D01*
Y150782D01*
X272921D01*
X272667Y151036D01*
X272921Y151290D01*
X273682D01*
X274190Y151798D02*
Y151036D01*
X274444Y150782D01*
X275206D01*
Y150528D01*
X274952Y150274D01*
X274698D01*
X275206Y150782D02*
Y151798D01*
X276476Y150782D02*
X275968D01*
X275714Y151036D01*
Y151544D01*
X275968Y151798D01*
X276476D01*
X276729Y151544D01*
Y151290D01*
X275714D01*
X277237Y151798D02*
Y150782D01*
Y151290D01*
X277491Y151544D01*
X277745Y151798D01*
X277999D01*
X272159Y135542D02*
X271143D01*
X272159Y136558D01*
Y136812D01*
X271905Y137066D01*
X271397D01*
X271143Y136812D01*
Y141638D02*
X271651D01*
X271397D01*
Y143162D01*
X271143Y142908D01*
X281747Y150782D02*
Y152306D01*
X282763Y150782D01*
Y152306D01*
X283525Y151798D02*
X284032D01*
X284286Y151544D01*
Y150782D01*
X283525D01*
X283271Y151036D01*
X283525Y151290D01*
X284286D01*
X284794Y150782D02*
Y151798D01*
X285048D01*
X285302Y151544D01*
Y150782D01*
Y151544D01*
X285556Y151798D01*
X285810Y151544D01*
Y150782D01*
X287079D02*
X286572D01*
X286318Y151036D01*
Y151544D01*
X286572Y151798D01*
X287079D01*
X287333Y151544D01*
Y151290D01*
X286318D01*
X281747Y130970D02*
Y129446D01*
X282509D01*
X282763Y129700D01*
Y129954D01*
X282509Y130208D01*
X281747D01*
X282509D01*
X282763Y130462D01*
Y130716D01*
X282509Y130970D01*
X281747D01*
X283525Y129446D02*
X284032D01*
X284286Y129700D01*
Y130208D01*
X284032Y130462D01*
X283525D01*
X283271Y130208D01*
Y129700D01*
X283525Y129446D01*
X285048Y130716D02*
Y130462D01*
X284794D01*
X285302D01*
X285048D01*
Y129700D01*
X285302Y129446D01*
X286318Y130716D02*
Y130462D01*
X286064D01*
X286572D01*
X286318D01*
Y129700D01*
X286572Y129446D01*
X287587D02*
X288095D01*
X288349Y129700D01*
Y130208D01*
X288095Y130462D01*
X287587D01*
X287333Y130208D01*
Y129700D01*
X287587Y129446D01*
X288857D02*
Y130462D01*
X289111D01*
X289365Y130208D01*
Y129446D01*
Y130208D01*
X289619Y130462D01*
X289872Y130208D01*
Y129446D01*
X292666Y130970D02*
X292158D01*
X291904Y130716D01*
Y129700D01*
X292158Y129446D01*
X292666D01*
X292919Y129700D01*
Y130716D01*
X292666Y130970D01*
X293427Y130462D02*
X293935Y129446D01*
X294443Y130462D01*
X295713Y129446D02*
X295205D01*
X294951Y129700D01*
Y130208D01*
X295205Y130462D01*
X295713D01*
X295966Y130208D01*
Y129954D01*
X294951D01*
X296474Y130462D02*
Y129446D01*
Y129954D01*
X296728Y130208D01*
X296982Y130462D01*
X297236D01*
X297998Y129446D02*
X298506D01*
X298252D01*
Y130970D01*
X297998D01*
X299521Y130462D02*
X300029D01*
X300283Y130208D01*
Y129446D01*
X299521D01*
X299267Y129700D01*
X299521Y129954D01*
X300283D01*
X300791Y130462D02*
Y129700D01*
X301045Y129446D01*
X301807D01*
Y129192D01*
X301553Y128938D01*
X301299D01*
X301807Y129446D02*
Y130462D01*
X281747Y134018D02*
Y132494D01*
X282509D01*
X282763Y132748D01*
Y133002D01*
X282509Y133256D01*
X281747D01*
X282509D01*
X282763Y133510D01*
Y133764D01*
X282509Y134018D01*
X281747D01*
X283525Y132494D02*
X284032D01*
X284286Y132748D01*
Y133256D01*
X284032Y133510D01*
X283525D01*
X283271Y133256D01*
Y132748D01*
X283525Y132494D01*
X285048Y133764D02*
Y133510D01*
X284794D01*
X285302D01*
X285048D01*
Y132748D01*
X285302Y132494D01*
X286318Y133764D02*
Y133510D01*
X286064D01*
X286572D01*
X286318D01*
Y132748D01*
X286572Y132494D01*
X287587D02*
X288095D01*
X288349Y132748D01*
Y133256D01*
X288095Y133510D01*
X287587D01*
X287333Y133256D01*
Y132748D01*
X287587Y132494D01*
X288857D02*
Y133510D01*
X289111D01*
X289365Y133256D01*
Y132494D01*
Y133256D01*
X289619Y133510D01*
X289872Y133256D01*
Y132494D01*
X292919Y133764D02*
X292666Y134018D01*
X292158D01*
X291904Y133764D01*
Y133510D01*
X292158Y133256D01*
X292666D01*
X292919Y133002D01*
Y132748D01*
X292666Y132494D01*
X292158D01*
X291904Y132748D01*
X293681Y132494D02*
X294189D01*
X294443Y132748D01*
Y133256D01*
X294189Y133510D01*
X293681D01*
X293427Y133256D01*
Y132748D01*
X293681Y132494D01*
X294951D02*
X295459D01*
X295205D01*
Y134018D01*
X294951D01*
X297236D02*
Y132494D01*
X296474D01*
X296220Y132748D01*
Y133256D01*
X296474Y133510D01*
X297236D01*
X298506Y132494D02*
X297998D01*
X297744Y132748D01*
Y133256D01*
X297998Y133510D01*
X298506D01*
X298760Y133256D01*
Y133002D01*
X297744D01*
X299267Y133510D02*
Y132494D01*
Y133002D01*
X299521Y133256D01*
X299775Y133510D01*
X300029D01*
X281747Y137066D02*
Y135542D01*
X282509D01*
X282763Y135796D01*
Y136050D01*
X282509Y136304D01*
X281747D01*
X282509D01*
X282763Y136558D01*
Y136812D01*
X282509Y137066D01*
X281747D01*
X283525Y135542D02*
X284032D01*
X284286Y135796D01*
Y136304D01*
X284032Y136558D01*
X283525D01*
X283271Y136304D01*
Y135796D01*
X283525Y135542D01*
X285048Y136812D02*
Y136558D01*
X284794D01*
X285302D01*
X285048D01*
Y135796D01*
X285302Y135542D01*
X286318Y136812D02*
Y136558D01*
X286064D01*
X286572D01*
X286318D01*
Y135796D01*
X286572Y135542D01*
X287587D02*
X288095D01*
X288349Y135796D01*
Y136304D01*
X288095Y136558D01*
X287587D01*
X287333Y136304D01*
Y135796D01*
X287587Y135542D01*
X288857D02*
Y136558D01*
X289111D01*
X289365Y136304D01*
Y135542D01*
Y136304D01*
X289619Y136558D01*
X289872Y136304D01*
Y135542D01*
X291904Y137066D02*
Y135542D01*
X292919D01*
X293681Y136558D02*
X294189D01*
X294443Y136304D01*
Y135542D01*
X293681D01*
X293427Y135796D01*
X293681Y136050D01*
X294443D01*
X294951Y136558D02*
Y135796D01*
X295205Y135542D01*
X295966D01*
Y135288D01*
X295713Y135034D01*
X295459D01*
X295966Y135542D02*
Y136558D01*
X297236Y135542D02*
X296728D01*
X296474Y135796D01*
Y136304D01*
X296728Y136558D01*
X297236D01*
X297490Y136304D01*
Y136050D01*
X296474D01*
X297998Y136558D02*
Y135542D01*
Y136050D01*
X298252Y136304D01*
X298506Y136558D01*
X298760D01*
X281747Y140114D02*
Y138590D01*
X282509D01*
X282763Y138844D01*
Y139860D01*
X282509Y140114D01*
X281747D01*
X283271Y138590D02*
X283778D01*
X283525D01*
Y139606D01*
X283271D01*
X285302Y138590D02*
X284794D01*
X284540Y138844D01*
Y139352D01*
X284794Y139606D01*
X285302D01*
X285556Y139352D01*
Y139098D01*
X284540D01*
X286064Y138590D02*
X286572D01*
X286318D01*
Y140114D01*
X286064D01*
X288095Y138590D02*
X287587D01*
X287333Y138844D01*
Y139352D01*
X287587Y139606D01*
X288095D01*
X288349Y139352D01*
Y139098D01*
X287333D01*
X289872Y139606D02*
X289111D01*
X288857Y139352D01*
Y138844D01*
X289111Y138590D01*
X289872D01*
X290634Y139860D02*
Y139606D01*
X290380D01*
X290888D01*
X290634D01*
Y138844D01*
X290888Y138590D01*
X291650Y139606D02*
Y138590D01*
Y139098D01*
X291904Y139352D01*
X292158Y139606D01*
X292412D01*
X293173Y138590D02*
X293681D01*
X293427D01*
Y139606D01*
X293173D01*
X295459D02*
X294697D01*
X294443Y139352D01*
Y138844D01*
X294697Y138590D01*
X295459D01*
X295966D02*
X296474D01*
X296220D01*
Y140114D01*
X295966Y139860D01*
X281747Y143162D02*
X282763D01*
X282255D01*
Y141638D01*
X283525D02*
X284032D01*
X284286Y141892D01*
Y142400D01*
X284032Y142654D01*
X283525D01*
X283271Y142400D01*
Y141892D01*
X283525Y141638D01*
X284794Y141130D02*
Y142654D01*
X285556D01*
X285810Y142400D01*
Y141892D01*
X285556Y141638D01*
X284794D01*
X287841Y143162D02*
Y141638D01*
X288857D01*
X289619Y142654D02*
X290126D01*
X290380Y142400D01*
Y141638D01*
X289619D01*
X289365Y141892D01*
X289619Y142146D01*
X290380D01*
X290888Y142654D02*
Y141892D01*
X291142Y141638D01*
X291904D01*
Y141384D01*
X291650Y141130D01*
X291396D01*
X291904Y141638D02*
Y142654D01*
X293173Y141638D02*
X292666D01*
X292412Y141892D01*
Y142400D01*
X292666Y142654D01*
X293173D01*
X293427Y142400D01*
Y142146D01*
X292412D01*
X293935Y142654D02*
Y141638D01*
Y142146D01*
X294189Y142400D01*
X294443Y142654D01*
X294697D01*
X281747Y146210D02*
X282763D01*
X282255D01*
Y144686D01*
X283525D02*
X284032D01*
X284286Y144940D01*
Y145448D01*
X284032Y145702D01*
X283525D01*
X283271Y145448D01*
Y144940D01*
X283525Y144686D01*
X284794Y144178D02*
Y145702D01*
X285556D01*
X285810Y145448D01*
Y144940D01*
X285556Y144686D01*
X284794D01*
X288857Y145956D02*
X288603Y146210D01*
X288095D01*
X287841Y145956D01*
Y145702D01*
X288095Y145448D01*
X288603D01*
X288857Y145194D01*
Y144940D01*
X288603Y144686D01*
X288095D01*
X287841Y144940D01*
X289619Y144686D02*
X290126D01*
X290380Y144940D01*
Y145448D01*
X290126Y145702D01*
X289619D01*
X289365Y145448D01*
Y144940D01*
X289619Y144686D01*
X290888D02*
X291396D01*
X291142D01*
Y146210D01*
X290888D01*
X293173D02*
Y144686D01*
X292412D01*
X292158Y144940D01*
Y145448D01*
X292412Y145702D01*
X293173D01*
X294443Y144686D02*
X293935D01*
X293681Y144940D01*
Y145448D01*
X293935Y145702D01*
X294443D01*
X294697Y145448D01*
Y145194D01*
X293681D01*
X295205Y145702D02*
Y144686D01*
Y145194D01*
X295459Y145448D01*
X295713Y145702D01*
X295966D01*
X281747Y149258D02*
X282763D01*
X282255D01*
Y147734D01*
X283525D02*
X284032D01*
X284286Y147988D01*
Y148496D01*
X284032Y148750D01*
X283525D01*
X283271Y148496D01*
Y147988D01*
X283525Y147734D01*
X284794Y147226D02*
Y148750D01*
X285556D01*
X285810Y148496D01*
Y147988D01*
X285556Y147734D01*
X284794D01*
X288603Y149258D02*
X288095D01*
X287841Y149004D01*
Y147988D01*
X288095Y147734D01*
X288603D01*
X288857Y147988D01*
Y149004D01*
X288603Y149258D01*
X289365Y148750D02*
X289872Y147734D01*
X290380Y148750D01*
X291650Y147734D02*
X291142D01*
X290888Y147988D01*
Y148496D01*
X291142Y148750D01*
X291650D01*
X291904Y148496D01*
Y148242D01*
X290888D01*
X292412Y148750D02*
Y147734D01*
Y148242D01*
X292666Y148496D01*
X292919Y148750D01*
X293173D01*
X293935Y147734D02*
X294443D01*
X294189D01*
Y149258D01*
X293935D01*
X295459Y148750D02*
X295966D01*
X296220Y148496D01*
Y147734D01*
X295459D01*
X295205Y147988D01*
X295459Y148242D01*
X296220D01*
X296728Y148750D02*
Y147988D01*
X296982Y147734D01*
X297744D01*
Y147480D01*
X297490Y147226D01*
X297236D01*
X297744Y147734D02*
Y148750D01*
X305555Y150782D02*
Y152306D01*
X306062Y151798D01*
X306570Y152306D01*
Y150782D01*
X307332Y151798D02*
X307840D01*
X308094Y151544D01*
Y150782D01*
X307332D01*
X307078Y151036D01*
X307332Y151290D01*
X308094D01*
X308856Y152052D02*
Y151798D01*
X308602D01*
X309109D01*
X308856D01*
Y151036D01*
X309109Y150782D01*
X310633D02*
X310125D01*
X309871Y151036D01*
Y151544D01*
X310125Y151798D01*
X310633D01*
X310887Y151544D01*
Y151290D01*
X309871D01*
X311395Y151798D02*
Y150782D01*
Y151290D01*
X311649Y151544D01*
X311903Y151798D01*
X312156D01*
X312918Y150782D02*
X313426D01*
X313172D01*
Y151798D01*
X312918D01*
X314442D02*
X314950D01*
X315203Y151544D01*
Y150782D01*
X314442D01*
X314188Y151036D01*
X314442Y151290D01*
X315203D01*
X315711Y150782D02*
X316219D01*
X315965D01*
Y152306D01*
X315711D01*
X306570Y133764D02*
X306316Y134018D01*
X305809D01*
X305555Y133764D01*
Y133510D01*
X305809Y133256D01*
X306316D01*
X306570Y133002D01*
Y132748D01*
X306316Y132494D01*
X305809D01*
X305555Y132748D01*
X307332Y132494D02*
X307840D01*
X308094Y132748D01*
Y133256D01*
X307840Y133510D01*
X307332D01*
X307078Y133256D01*
Y132748D01*
X307332Y132494D01*
X308602D02*
X309109D01*
X308856D01*
Y134018D01*
X308602D01*
X310887D02*
Y132494D01*
X310125D01*
X309871Y132748D01*
Y133256D01*
X310125Y133510D01*
X310887D01*
X312156Y132494D02*
X311649D01*
X311395Y132748D01*
Y133256D01*
X311649Y133510D01*
X312156D01*
X312410Y133256D01*
Y133002D01*
X311395D01*
X312918Y133510D02*
Y132494D01*
Y133002D01*
X313172Y133256D01*
X313426Y133510D01*
X313680D01*
X315965Y132494D02*
Y134018D01*
X316727D01*
X316981Y133764D01*
Y133256D01*
X316727Y133002D01*
X315965D01*
X316473D02*
X316981Y132494D01*
X318250D02*
X317743D01*
X317489Y132748D01*
Y133256D01*
X317743Y133510D01*
X318250D01*
X318504Y133256D01*
Y133002D01*
X317489D01*
X319012Y132494D02*
X319774D01*
X320028Y132748D01*
X319774Y133002D01*
X319266D01*
X319012Y133256D01*
X319266Y133510D01*
X320028D01*
X320536Y132494D02*
X321044D01*
X320790D01*
Y133510D01*
X320536D01*
X321805Y132494D02*
X322567D01*
X322821Y132748D01*
X322567Y133002D01*
X322059D01*
X321805Y133256D01*
X322059Y133510D01*
X322821D01*
X323583Y133764D02*
Y133510D01*
X323329D01*
X323837D01*
X323583D01*
Y132748D01*
X323837Y132494D01*
X306570Y140114D02*
X305555D01*
Y139352D01*
X306062D01*
X305555D01*
Y138590D01*
X307078D02*
Y140114D01*
X307840D01*
X308094Y139860D01*
Y139352D01*
X307840Y139098D01*
X307078D01*
X307586D02*
X308094Y138590D01*
X308602Y139352D02*
X309617D01*
X310887Y138590D02*
Y140114D01*
X310125Y139352D01*
X311141D01*
X306570Y145956D02*
X306316Y146210D01*
X305809D01*
X305555Y145956D01*
Y145702D01*
X305809Y145448D01*
X306316D01*
X306570Y145194D01*
Y144940D01*
X306316Y144686D01*
X305809D01*
X305555Y144940D01*
X307332Y144686D02*
X307840D01*
X308094Y144940D01*
Y145448D01*
X307840Y145702D01*
X307332D01*
X307078Y145448D01*
Y144940D01*
X307332Y144686D01*
X308602D02*
X309109D01*
X308856D01*
Y146210D01*
X308602D01*
X310887D02*
Y144686D01*
X310125D01*
X309871Y144940D01*
Y145448D01*
X310125Y145702D01*
X310887D01*
X312156Y144686D02*
X311649D01*
X311395Y144940D01*
Y145448D01*
X311649Y145702D01*
X312156D01*
X312410Y145448D01*
Y145194D01*
X311395D01*
X312918Y145702D02*
Y144686D01*
Y145194D01*
X313172Y145448D01*
X313426Y145702D01*
X313680D01*
X315965Y144686D02*
Y146210D01*
X316727D01*
X316981Y145956D01*
Y145448D01*
X316727Y145194D01*
X315965D01*
X316473D02*
X316981Y144686D01*
X318250D02*
X317743D01*
X317489Y144940D01*
Y145448D01*
X317743Y145702D01*
X318250D01*
X318504Y145448D01*
Y145194D01*
X317489D01*
X319012Y144686D02*
X319774D01*
X320028Y144940D01*
X319774Y145194D01*
X319266D01*
X319012Y145448D01*
X319266Y145702D01*
X320028D01*
X320536Y144686D02*
X321044D01*
X320790D01*
Y145702D01*
X320536D01*
X321805Y144686D02*
X322567D01*
X322821Y144940D01*
X322567Y145194D01*
X322059D01*
X321805Y145448D01*
X322059Y145702D01*
X322821D01*
X323583Y145956D02*
Y145702D01*
X323329D01*
X323837D01*
X323583D01*
Y144940D01*
X323837Y144686D01*
X327585Y152306D02*
X328600D01*
X328092D01*
Y150782D01*
X329108Y152306D02*
Y150782D01*
Y151544D01*
X329362Y151798D01*
X329870D01*
X330124Y151544D01*
Y150782D01*
X330632D02*
X331139D01*
X330886D01*
Y151798D01*
X330632D01*
X332917D02*
X332155D01*
X331901Y151544D01*
Y151036D01*
X332155Y150782D01*
X332917D01*
X333425D02*
Y152306D01*
Y151290D02*
X334187Y151798D01*
X333425Y151290D02*
X334187Y150782D01*
X334948D02*
Y151798D01*
X335710D01*
X335964Y151544D01*
Y150782D01*
X337234D02*
X336726D01*
X336472Y151036D01*
Y151544D01*
X336726Y151798D01*
X337234D01*
X337487Y151544D01*
Y151290D01*
X336472D01*
X337995Y150782D02*
X338757D01*
X339011Y151036D01*
X338757Y151290D01*
X338249D01*
X337995Y151544D01*
X338249Y151798D01*
X339011D01*
X339519Y150782D02*
X340281D01*
X340534Y151036D01*
X340281Y151290D01*
X339773D01*
X339519Y151544D01*
X339773Y151798D01*
X340534D01*
X327585Y133764D02*
X327839Y134018D01*
X328346D01*
X328600Y133764D01*
Y132748D01*
X328346Y132494D01*
X327839D01*
X327585Y132748D01*
Y133764D01*
X329108Y132494D02*
Y132748D01*
X329362D01*
Y132494D01*
X329108D01*
X330378Y133764D02*
X330632Y134018D01*
X331139D01*
X331393Y133764D01*
Y132748D01*
X331139Y132494D01*
X330632D01*
X330378Y132748D01*
Y133764D01*
X331901Y132494D02*
X332409D01*
X332155D01*
Y134018D01*
X331901Y133764D01*
X333171D02*
X333425Y134018D01*
X333933D01*
X334187Y133764D01*
Y133510D01*
X333933Y133256D01*
X333679D01*
X333933D01*
X334187Y133002D01*
Y132748D01*
X333933Y132494D01*
X333425D01*
X333171Y132748D01*
X334694Y132494D02*
Y133510D01*
X334948D01*
X335202Y133256D01*
Y132494D01*
Y133256D01*
X335456Y133510D01*
X335710Y133256D01*
Y132494D01*
X336218D02*
Y133510D01*
X336472D01*
X336726Y133256D01*
Y132494D01*
Y133256D01*
X336980Y133510D01*
X337234Y133256D01*
Y132494D01*
X327585Y136812D02*
X327839Y137066D01*
X328346D01*
X328600Y136812D01*
Y135796D01*
X328346Y135542D01*
X327839D01*
X327585Y135796D01*
Y136812D01*
X329108Y135542D02*
Y135796D01*
X329362D01*
Y135542D01*
X329108D01*
X330378Y136812D02*
X330632Y137066D01*
X331139D01*
X331393Y136812D01*
Y135796D01*
X331139Y135542D01*
X330632D01*
X330378Y135796D01*
Y136812D01*
X331901Y135542D02*
X332409D01*
X332155D01*
Y137066D01*
X331901Y136812D01*
X333171D02*
X333425Y137066D01*
X333933D01*
X334187Y136812D01*
Y136558D01*
X333933Y136304D01*
X334187Y136050D01*
Y135796D01*
X333933Y135542D01*
X333425D01*
X333171Y135796D01*
Y136050D01*
X333425Y136304D01*
X333171Y136558D01*
Y136812D01*
X333425Y136304D02*
X333933D01*
X334694Y135542D02*
Y136558D01*
X334948D01*
X335202Y136304D01*
Y135542D01*
Y136304D01*
X335456Y136558D01*
X335710Y136304D01*
Y135542D01*
X336218D02*
Y136558D01*
X336472D01*
X336726Y136304D01*
Y135542D01*
Y136304D01*
X336980Y136558D01*
X337234Y136304D01*
Y135542D01*
X327585Y138590D02*
X328092D01*
X327839D01*
Y140114D01*
X327585Y139860D01*
X328854Y138590D02*
Y138844D01*
X329108D01*
Y138590D01*
X328854D01*
X330886D02*
Y140114D01*
X330124Y139352D01*
X331139D01*
X331647Y138844D02*
X331901Y138590D01*
X332409D01*
X332663Y138844D01*
Y139860D01*
X332409Y140114D01*
X331901D01*
X331647Y139860D01*
Y139606D01*
X331901Y139352D01*
X332663D01*
X333171Y138844D02*
X333425Y138590D01*
X333933D01*
X334187Y138844D01*
Y139860D01*
X333933Y140114D01*
X333425D01*
X333171Y139860D01*
Y139606D01*
X333425Y139352D01*
X334187D01*
X334694Y138590D02*
Y139606D01*
X334948D01*
X335202Y139352D01*
Y138590D01*
Y139352D01*
X335456Y139606D01*
X335710Y139352D01*
Y138590D01*
X336218D02*
Y139606D01*
X336472D01*
X336726Y139352D01*
Y138590D01*
Y139352D01*
X336980Y139606D01*
X337234Y139352D01*
Y138590D01*
X327585Y142908D02*
X327839Y143162D01*
X328346D01*
X328600Y142908D01*
Y141892D01*
X328346Y141638D01*
X327839D01*
X327585Y141892D01*
Y142908D01*
X329108Y141638D02*
Y141892D01*
X329362D01*
Y141638D01*
X329108D01*
X330378Y142908D02*
X330632Y143162D01*
X331139D01*
X331393Y142908D01*
Y141892D01*
X331139Y141638D01*
X330632D01*
X330378Y141892D01*
Y142908D01*
X331901Y141638D02*
X332409D01*
X332155D01*
Y143162D01*
X331901Y142908D01*
X333171D02*
X333425Y143162D01*
X333933D01*
X334187Y142908D01*
Y142654D01*
X333933Y142400D01*
X334187Y142146D01*
Y141892D01*
X333933Y141638D01*
X333425D01*
X333171Y141892D01*
Y142146D01*
X333425Y142400D01*
X333171Y142654D01*
Y142908D01*
X333425Y142400D02*
X333933D01*
X334694Y141638D02*
Y142654D01*
X334948D01*
X335202Y142400D01*
Y141638D01*
Y142400D01*
X335456Y142654D01*
X335710Y142400D01*
Y141638D01*
X336218D02*
Y142654D01*
X336472D01*
X336726Y142400D01*
Y141638D01*
Y142400D01*
X336980Y142654D01*
X337234Y142400D01*
Y141638D01*
X327585Y145956D02*
X327839Y146210D01*
X328346D01*
X328600Y145956D01*
Y144940D01*
X328346Y144686D01*
X327839D01*
X327585Y144940D01*
Y145956D01*
X329108Y144686D02*
Y144940D01*
X329362D01*
Y144686D01*
X329108D01*
X330378Y145956D02*
X330632Y146210D01*
X331139D01*
X331393Y145956D01*
Y144940D01*
X331139Y144686D01*
X330632D01*
X330378Y144940D01*
Y145956D01*
X331901Y144686D02*
X332409D01*
X332155D01*
Y146210D01*
X331901Y145956D01*
X333171D02*
X333425Y146210D01*
X333933D01*
X334187Y145956D01*
Y145702D01*
X333933Y145448D01*
X333679D01*
X333933D01*
X334187Y145194D01*
Y144940D01*
X333933Y144686D01*
X333425D01*
X333171Y144940D01*
X334694Y144686D02*
Y145702D01*
X334948D01*
X335202Y145448D01*
Y144686D01*
Y145448D01*
X335456Y145702D01*
X335710Y145448D01*
Y144686D01*
X336218D02*
Y145702D01*
X336472D01*
X336726Y145448D01*
Y144686D01*
Y145448D01*
X336980Y145702D01*
X337234Y145448D01*
Y144686D01*
X345298Y152052D02*
X345044Y152306D01*
X344536D01*
X344282Y152052D01*
Y151036D01*
X344536Y150782D01*
X345044D01*
X345298Y151036D01*
X346060Y150782D02*
X346568D01*
X346822Y151036D01*
Y151544D01*
X346568Y151798D01*
X346060D01*
X345806Y151544D01*
Y151036D01*
X346060Y150782D01*
X347329D02*
Y151798D01*
X348091D01*
X348345Y151544D01*
Y150782D01*
X348853D02*
X349615D01*
X349869Y151036D01*
X349615Y151290D01*
X349107D01*
X348853Y151544D01*
X349107Y151798D01*
X349869D01*
X350630Y152052D02*
Y151798D01*
X350376D01*
X350884D01*
X350630D01*
Y151036D01*
X350884Y150782D01*
X351900Y151798D02*
X352408D01*
X352662Y151544D01*
Y150782D01*
X351900D01*
X351646Y151036D01*
X351900Y151290D01*
X352662D01*
X353170Y150782D02*
Y151798D01*
X353931D01*
X354185Y151544D01*
Y150782D01*
X354947Y152052D02*
Y151798D01*
X354693D01*
X355201D01*
X354947D01*
Y151036D01*
X355201Y150782D01*
X344282Y133764D02*
X344536Y134018D01*
X345044D01*
X345298Y133764D01*
Y133510D01*
X345044Y133256D01*
X344790D01*
X345044D01*
X345298Y133002D01*
Y132748D01*
X345044Y132494D01*
X344536D01*
X344282Y132748D01*
X345806Y132494D02*
Y132748D01*
X346060D01*
Y132494D01*
X345806D01*
X347076Y133764D02*
X347329Y134018D01*
X347837D01*
X348091Y133764D01*
Y133510D01*
X347837Y133256D01*
X347583D01*
X347837D01*
X348091Y133002D01*
Y132748D01*
X347837Y132494D01*
X347329D01*
X347076Y132748D01*
X345044Y138590D02*
Y140114D01*
X344282Y139352D01*
X345298D01*
X345806Y138590D02*
Y138844D01*
X346060D01*
Y138590D01*
X345806D01*
X347076Y139860D02*
X347329Y140114D01*
X347837D01*
X348091Y139860D01*
Y139606D01*
X347837Y139352D01*
X347583D01*
X347837D01*
X348091Y139098D01*
Y138844D01*
X347837Y138590D01*
X347329D01*
X347076Y138844D01*
X344282Y145956D02*
X344536Y146210D01*
X345044D01*
X345298Y145956D01*
Y145702D01*
X345044Y145448D01*
X344790D01*
X345044D01*
X345298Y145194D01*
Y144940D01*
X345044Y144686D01*
X344536D01*
X344282Y144940D01*
X345806Y144686D02*
Y144940D01*
X346060D01*
Y144686D01*
X345806D01*
X347076Y145956D02*
X347329Y146210D01*
X347837D01*
X348091Y145956D01*
Y145702D01*
X347837Y145448D01*
X347583D01*
X347837D01*
X348091Y145194D01*
Y144940D01*
X347837Y144686D01*
X347329D01*
X347076Y144940D01*
X358949Y150782D02*
Y152306D01*
X359711D01*
X359965Y152052D01*
Y151544D01*
X359711Y151290D01*
X358949D01*
X359457D02*
X359965Y150782D01*
X360472D02*
X360980D01*
X360726D01*
Y151798D01*
X360472D01*
X362250Y150274D02*
X362504D01*
X362758Y150528D01*
Y151798D01*
X361996D01*
X361742Y151544D01*
Y151036D01*
X361996Y150782D01*
X362758D01*
X363266D02*
X363773D01*
X363519D01*
Y151798D01*
X363266D01*
X365551Y152306D02*
Y150782D01*
X364789D01*
X364535Y151036D01*
Y151544D01*
X364789Y151798D01*
X365551D01*
D45*
X269269Y150020D02*
X370218D01*
X269269Y153068D02*
X370218D01*
X269269Y128684D02*
Y153068D01*
Y128684D02*
X279873D01*
X269269Y131732D02*
X279873D01*
X269269Y134780D02*
X279873D01*
X269269Y137828D02*
X279873D01*
X269269Y140876D02*
X279873D01*
X269269Y143924D02*
X279873D01*
X269269Y146972D02*
X279873D01*
Y128684D02*
Y153068D01*
Y128684D02*
X303681D01*
X279873Y131732D02*
X303681D01*
X279873Y134780D02*
X303681D01*
X279873Y137828D02*
X303681D01*
X279873Y140876D02*
X303681D01*
X279873Y143924D02*
X303681D01*
X279873Y146972D02*
X303681D01*
Y128684D02*
Y153068D01*
Y128684D02*
X325711D01*
X303681Y131732D02*
X325711D01*
X303681Y134780D02*
X325711D01*
X303681Y137828D02*
X325711D01*
X303681Y140876D02*
X325711D01*
X303681Y143924D02*
X325711D01*
X303681Y146972D02*
X325711D01*
Y128684D02*
Y153068D01*
Y128684D02*
X342408D01*
X325711Y131732D02*
X342408D01*
X325711Y134780D02*
X342408D01*
X325711Y137828D02*
X342408D01*
X325711Y140876D02*
X342408D01*
X325711Y143924D02*
X342408D01*
X325711Y146972D02*
X342408D01*
Y128684D02*
Y153068D01*
Y128684D02*
X357075D01*
X342408Y131732D02*
X357075D01*
X342408Y134780D02*
X357075D01*
X342408Y137828D02*
X357075D01*
X342408Y140876D02*
X357075D01*
X342408Y143924D02*
X357075D01*
X342408Y146972D02*
X357075D01*
Y128684D02*
Y153068D01*
Y128684D02*
X370218D01*
X357075Y131732D02*
X370218D01*
X357075Y134780D02*
X370218D01*
X357075Y137828D02*
X370218D01*
X357075Y140876D02*
X370218D01*
X357075Y143924D02*
X370218D01*
X357075Y146972D02*
X370218D01*
Y128684D02*
Y153068D01*
D46*
X368694Y128684D02*
X370218Y130208D01*
X367170Y128684D02*
X370218Y131732D01*
X365646Y128684D02*
X368694Y131732D01*
X364122Y128684D02*
X367170Y131732D01*
X362598Y128684D02*
X365646Y131732D01*
X361074Y128684D02*
X364122Y131732D01*
X359550Y128684D02*
X362598Y131732D01*
X358026Y128684D02*
X361074Y131732D01*
X357075Y129257D02*
X359550Y131732D01*
X357075Y130781D02*
X358026Y131732D01*
X368694D02*
X370218Y133256D01*
X367170Y131732D02*
X370218Y134780D01*
X365646Y131732D02*
X368694Y134780D01*
X364122Y131732D02*
X367170Y134780D01*
X362598Y131732D02*
X365646Y134780D01*
X361074Y131732D02*
X364122Y134780D01*
X359550Y131732D02*
X362598Y134780D01*
X358026Y131732D02*
X361074Y134780D01*
X357075Y132305D02*
X359550Y134780D01*
X357075Y133829D02*
X358026Y134780D01*
X368694D02*
X370218Y136304D01*
X367170Y134780D02*
X370218Y137828D01*
X365646Y134780D02*
X368694Y137828D01*
X364122Y134780D02*
X367170Y137828D01*
X362598Y134780D02*
X365646Y137828D01*
X361074Y134780D02*
X364122Y137828D01*
X359550Y134780D02*
X362598Y137828D01*
X358026Y134780D02*
X361074Y137828D01*
X357075Y135353D02*
X359550Y137828D01*
X357075Y136877D02*
X358026Y137828D01*
X368694D02*
X370218Y139352D01*
X367170Y137828D02*
X370218Y140876D01*
X365646Y137828D02*
X368694Y140876D01*
X364122Y137828D02*
X367170Y140876D01*
X362598Y137828D02*
X365646Y140876D01*
X361074Y137828D02*
X364122Y140876D01*
X359550Y137828D02*
X362598Y140876D01*
X358026Y137828D02*
X361074Y140876D01*
X357075Y138401D02*
X359550Y140876D01*
X357075Y139925D02*
X358026Y140876D01*
X368694D02*
X370218Y142400D01*
X367170Y140876D02*
X370218Y143924D01*
X365646Y140876D02*
X368694Y143924D01*
X364122Y140876D02*
X367170Y143924D01*
X362598Y140876D02*
X365646Y143924D01*
X361074Y140876D02*
X364122Y143924D01*
X359550Y140876D02*
X362598Y143924D01*
X358026Y140876D02*
X361074Y143924D01*
X357075Y141449D02*
X359550Y143924D01*
X357075Y142973D02*
X358026Y143924D01*
X368694D02*
X370218Y145448D01*
X367170Y143924D02*
X370218Y146972D01*
X365646Y143924D02*
X368694Y146972D01*
X364122Y143924D02*
X367170Y146972D01*
X362598Y143924D02*
X365646Y146972D01*
X361074Y143924D02*
X364122Y146972D01*
X359550Y143924D02*
X362598Y146972D01*
X358026Y143924D02*
X361074Y146972D01*
X357075Y144497D02*
X359550Y146972D01*
X357075Y146021D02*
X358026Y146972D01*
X368694D02*
X370218Y148496D01*
X367170Y146972D02*
X370218Y150020D01*
X365646Y146972D02*
X368694Y150020D01*
X364122Y146972D02*
X367170Y150020D01*
X362598Y146972D02*
X365646Y150020D01*
X361074Y146972D02*
X364122Y150020D01*
X359550Y146972D02*
X362598Y150020D01*
X358026Y146972D02*
X361074Y150020D01*
X357075Y147545D02*
X359550Y150020D01*
X357075Y149069D02*
X358026Y150020D01*
M02*
