G04*
G04 #@! TF.GenerationSoftware,Altium Limited,Altium Designer,25.3.3 (18)*
G04*
G04 Layer_Color=8388736*
%FSLAX43Y43*%
%MOMM*%
G71*
G04*
G04 #@! TF.SameCoordinates,C300852C-C8DC-408C-B86D-D4AF72776700*
G04*
G04*
G04 #@! TF.FilePolarity,Negative*
G04*
G01*
G75*
%ADD10C,0.254*%
%ADD16C,2.008*%
%ADD17C,4.000*%
%ADD18C,1.700*%
%ADD19C,3.008*%
%ADD20R,2.008X2.008*%
%ADD21R,1.858X1.858*%
%ADD22C,1.858*%
%ADD23C,1.866*%
%ADD24R,1.866X1.866*%
%ADD25C,1.550*%
%ADD26R,1.550X1.550*%
G04:AMPARAMS|DCode=27|XSize=2.4mm|YSize=5mm|CornerRadius=1.2mm|HoleSize=0mm|Usage=FLASHONLY|Rotation=0.000|XOffset=0mm|YOffset=0mm|HoleType=Round|Shape=RoundedRectangle|*
%AMROUNDEDRECTD27*
21,1,2.400,2.600,0,0,0.0*
21,1,0.000,5.000,0,0,0.0*
1,1,2.400,0.000,-1.300*
1,1,2.400,0.000,-1.300*
1,1,2.400,0.000,1.300*
1,1,2.400,0.000,1.300*
%
%ADD27ROUNDEDRECTD27*%
%ADD28R,1.678X1.678*%
%ADD29C,1.678*%
%ADD30R,1.858X1.858*%
%ADD31C,1.016*%
D10*
X157571Y204608D02*
G03*
X154397Y201434I0J-3175D01*
G01*
X245232Y104597D02*
G03*
X248407Y107772I0J3175D01*
G01*
X154408D02*
G03*
X157583Y104597I3175J0D01*
G01*
X248382Y201422D02*
G03*
X245207Y204597I-3175J0D01*
G01*
X154397Y107772D02*
X154397Y201434D01*
X248397Y201422D02*
X248397Y107520D01*
X157583Y104597D02*
X245232Y104597D01*
X157302Y204597D02*
X245207Y204597D01*
D16*
X200327Y199263D02*
D03*
Y196723D02*
D03*
Y194183D02*
D03*
Y191643D02*
D03*
X177775Y167513D02*
D03*
Y170053D02*
D03*
Y172593D02*
D03*
Y175133D02*
D03*
Y177673D02*
D03*
Y180213D02*
D03*
Y182753D02*
D03*
Y185293D02*
D03*
X170155Y167513D02*
D03*
Y170053D02*
D03*
Y172593D02*
D03*
Y175133D02*
D03*
Y177673D02*
D03*
Y180213D02*
D03*
Y182753D02*
D03*
X189840Y167513D02*
D03*
Y170053D02*
D03*
Y172593D02*
D03*
Y175133D02*
D03*
Y177673D02*
D03*
Y180213D02*
D03*
Y182753D02*
D03*
Y185293D02*
D03*
X182220Y167513D02*
D03*
Y170053D02*
D03*
Y172593D02*
D03*
Y175133D02*
D03*
Y177673D02*
D03*
Y180213D02*
D03*
Y182753D02*
D03*
D17*
X229972Y117094D02*
D03*
X210922D02*
D03*
X191872D02*
D03*
X172822D02*
D03*
X229972Y136144D02*
D03*
X210922D02*
D03*
X191872D02*
D03*
X172822D02*
D03*
X229972Y155194D02*
D03*
X210922D02*
D03*
X191872D02*
D03*
X172822D02*
D03*
D18*
X235052Y117094D02*
D03*
X224892D02*
D03*
X216002D02*
D03*
X205842D02*
D03*
X196952D02*
D03*
X186792D02*
D03*
X177902D02*
D03*
X167742D02*
D03*
X235052Y136144D02*
D03*
X224892D02*
D03*
X216002D02*
D03*
X205842D02*
D03*
X196952D02*
D03*
X186792D02*
D03*
X177902D02*
D03*
X167742D02*
D03*
X235052Y155194D02*
D03*
X224892D02*
D03*
X216002D02*
D03*
X205842D02*
D03*
X196952D02*
D03*
X186792D02*
D03*
X177902D02*
D03*
X167742D02*
D03*
D19*
X232512Y122174D02*
D03*
X226162Y119634D02*
D03*
X213462Y122174D02*
D03*
X207112Y119634D02*
D03*
X194412Y122174D02*
D03*
X188062Y119634D02*
D03*
X175362Y122174D02*
D03*
X169012Y119634D02*
D03*
X232512Y141224D02*
D03*
X226162Y138684D02*
D03*
X213462Y141224D02*
D03*
X207112Y138684D02*
D03*
X194412Y141224D02*
D03*
X188062Y138684D02*
D03*
X175362Y141224D02*
D03*
X169012Y138684D02*
D03*
X232512Y160274D02*
D03*
X226162Y157734D02*
D03*
X213462Y160274D02*
D03*
X207112Y157734D02*
D03*
X194412Y160274D02*
D03*
X188062Y157734D02*
D03*
X175362Y160274D02*
D03*
X169012Y157734D02*
D03*
D20*
X170155Y185293D02*
D03*
X182220D02*
D03*
D21*
X165563D02*
D03*
X194432D02*
D03*
D22*
X165563Y176293D02*
D03*
X236830Y182118D02*
D03*
X194432Y176293D02*
D03*
D23*
X221463Y194056D02*
D03*
Y191516D02*
D03*
Y188976D02*
D03*
Y186436D02*
D03*
Y196596D02*
D03*
Y199136D02*
D03*
Y201676D02*
D03*
X206223Y194056D02*
D03*
Y191516D02*
D03*
Y188976D02*
D03*
Y186436D02*
D03*
Y196596D02*
D03*
Y199136D02*
D03*
D24*
Y201676D02*
D03*
D25*
X229504Y200929D02*
D03*
X234504D02*
D03*
Y186429D02*
D03*
X232004D02*
D03*
D26*
X229504D02*
D03*
D27*
X237704Y193929D02*
D03*
X226304D02*
D03*
D28*
X221590Y170815D02*
D03*
X200000Y170815D02*
D03*
D29*
X224130Y170815D02*
D03*
X226670D02*
D03*
X229210D02*
D03*
X231750D02*
D03*
X234290D02*
D03*
X236830D02*
D03*
Y178685D02*
D03*
X234290D02*
D03*
X231750D02*
D03*
X229210D02*
D03*
X226670D02*
D03*
X224130D02*
D03*
X221590D02*
D03*
X202540Y170815D02*
D03*
X205080D02*
D03*
X207620D02*
D03*
X210160D02*
D03*
X212700D02*
D03*
X215240D02*
D03*
Y178685D02*
D03*
X212700D02*
D03*
X210160D02*
D03*
X207620D02*
D03*
X205080D02*
D03*
X202540D02*
D03*
X200000D02*
D03*
D30*
X227830Y182118D02*
D03*
D31*
X195732Y175133D02*
D03*
X219495Y181293D02*
D03*
X203048Y183959D02*
D03*
X197333D02*
D03*
Y181618D02*
D03*
X196571Y177419D02*
D03*
X195732Y171345D02*
D03*
X193232Y172593D02*
D03*
X191872Y173355D02*
D03*
M02*
